<?xml version="1.0" encoding="UTF-8"?>
<svg version="1.1" xmlns="http://www.w3.org/2000/svg" width="272" height="127">
<path d="M0 0 C89.76 0 179.52 0 272 0 C272 41.91 272 83.82 272 127 C182.24 127 92.48 127 0 127 C0 85.09 0 43.18 0 0 Z " fill="#FDFEFD" transform="translate(0,0)"/>
<path d="M0 0 C0.99 0.33 1.98 0.66 3 1 C1.93147208 8.31233566 -3.12570848 14.60346296 -8 20 C-8.66 20 -9.32 20 -10 20 C-10.22558594 20.57878906 -10.45117188 21.15757813 -10.68359375 21.75390625 C-17.60965893 33.57137651 -38.00427686 40.53450551 -50.69140625 44.01171875 C-57.03418682 45.43901844 -63.3044968 46.38049305 -69.79296875 46.7890625 C-72.17410298 46.93329324 -72.17410298 46.93329324 -75 48 C-76.41930926 48.09576813 -77.84261834 48.13806791 -79.26513672 48.14526367 C-80.12388397 48.15164352 -80.98263123 48.15802338 -81.86740112 48.16459656 C-82.79545563 48.16570938 -83.72351013 48.1668222 -84.6796875 48.16796875 C-86.12530563 48.17296135 -86.12530563 48.17296135 -87.60012817 48.17805481 C-89.64617435 48.1831225 -91.6922288 48.18546318 -93.73828125 48.18530273 C-96.82826976 48.18746727 -99.91788823 48.20556325 -103.0078125 48.22460938 C-113.2210049 48.25387976 -122.96349236 48.05146294 -133 46 C-134.27875 45.78859375 -135.5575 45.5771875 -136.875 45.359375 C-145.25304685 43.72565587 -152.45543221 40.97184988 -160 37 C-160.88558594 36.5359375 -161.77117187 36.071875 -162.68359375 35.59375 C-175.76618318 28.24627388 -187.2868473 16.45173402 -194 3 C-194 2.34 -194 1.68 -194 1 C-190.87092364 1.29335091 -190.05534346 1.93363109 -188 4.3984375 C-187.34 5.38070313 -186.68 6.36296875 -186 7.375 C-183.57175721 10.96993757 -181.49143326 13.45935883 -178 16 C-178 16.66 -178 17.32 -178 18 C-177.46246094 18.25007813 -176.92492187 18.50015625 -176.37109375 18.7578125 C-173.46795653 20.27873117 -170.80399067 22.07896779 -168.0625 23.875 C-151.23666187 34.3764327 -127.7460986 37.09153773 -108.171875 37.203125 C-107.3489949 37.21009399 -106.52611481 37.21706299 -105.67829895 37.22424316 C-103.03548015 37.24155587 -100.39287316 37.24796336 -97.75 37.25 C-96.39924881 37.25151062 -96.39924881 37.25151062 -95.02120972 37.25305176 C-82.10585264 37.24325681 -69.64562229 36.84154571 -57 34 C-55.47659876 33.68341921 -53.95316054 33.36701634 -52.4296875 33.05078125 C-33.35954075 28.95128417 -13.98963288 21.60625173 -2.50390625 4.8125 C-1.26884908 2.75322839 -1.26884908 2.75322839 0 0 Z " fill="#B5BEC4" transform="translate(229,16)"/>
<path d="M0 0 C4.05523038 2.85709413 7.51585617 6.46921234 9.75 10.9375 C10.27779267 17.1492137 10.49403643 22.695849 6.75 27.9375 C2.52352218 32.17581669 -1.06623442 34.75850282 -7.0625 35.25 C-12.112483 35.08135493 -16.27560189 33.858536 -19.984375 30.25 C-24.85067579 24.68851339 -25.56446484 21.34300257 -25.44921875 13.9140625 C-25.12589532 9.08323004 -23.97701139 6.51148506 -20.3984375 3.25 C-13.77982101 -1.80166488 -7.86923969 -2.57263605 0 0 Z " fill="#053A69" transform="translate(205.25,3.0625)"/>
<path d="M0 0 C0.66 0.33 1.32 0.66 2 1 C2 1.66 2 2.32 2 3 C6.29 3 10.58 3 15 3 C15 3.99 15 4.98 15 6 C11.37 6 7.74 6 4 6 C4 7.65 4 9.3 4 11 C7.3 11 10.6 11 14 11 C14 11.99 14 12.98 14 14 C10.37 14 6.74 14 3 14 C3 15.98 3 17.96 3 20 C6.96 20 10.92 20 15 20 C15 20.99 15 21.98 15 23 C13.96359375 22.98839844 12.9271875 22.97679688 11.859375 22.96484375 C10.48958514 22.95546163 9.11979332 22.94636188 7.75 22.9375 C7.06808594 22.92912109 6.38617188 22.92074219 5.68359375 22.91210938 C2.26905665 22.89553395 -0.70993485 23.13048278 -4 24 C-4.66 23.67 -5.32 23.34 -6 23 C-6.33 23 -6.66 23 -7 23 C-9.50847546 22.63065392 -10.67165938 22.39988948 -12.30859375 20.40625 C-12.68113281 19.7771875 -13.05367187 19.148125 -13.4375 18.5 C-15.4184424 15.45567115 -15.4184424 15.45567115 -18.8125 14.0625 C-19.8953125 14.0315625 -19.8953125 14.0315625 -21 14 C-21 16.64 -21 19.28 -21 22 C-21.99 22 -22.98 22 -24 22 C-24 15.73 -24 9.46 -24 3 C-21.20052083 2.77213542 -18.40104167 2.54427083 -15.6015625 2.31640625 C-13.02072387 2.15034374 -13.02072387 2.15034374 -11 1 C-9.88625 1.556875 -9.88625 1.556875 -8.75 2.125 C-5.88310895 3.37443201 -5.88310895 3.37443201 -2.8125 1.5625 C-1.4203125 0.7890625 -1.4203125 0.7890625 0 0 Z " fill="#ECF0F3" transform="translate(211,82)"/>
<path d="M0 0 C1.60379341 -0.05416188 3.20811406 -0.09286638 4.8125 -0.125 C5.70582031 -0.14820312 6.59914062 -0.17140625 7.51953125 -0.1953125 C12.23290757 0.17581949 14.8949403 3.73968731 18 7 C18.8971875 7.86625 18.8971875 7.86625 19.8125 8.75 C22.15988015 13.19766766 21.40460127 18.23446721 20.3125 23 C19 25 19 25 16.75 25.9375 C13.45787597 26.012321 11.04477316 25.20374753 8 24 C8 23.34 8 22.68 8 22 C7.34 22 6.68 22 6 22 C0.29623215 17.0322022 -1.32268006 12.54742605 -2.08203125 5.20703125 C-2 3 -2 3 0 1 C0 0.67 0 0.34 0 0 Z " fill="#23517F" transform="translate(192,2)"/>
<path d="M0 0 C0.99 0 1.98 0 3 0 C3.33 4.95 3.66 9.9 4 15 C4.66 13.68 5.32 12.36 6 11 C9 12 9 12 11 13 C11.99 13.33 12.98 13.66 14 14 C15.35308313 15.31328657 16.68870078 16.64499081 18 18 C18.33 18 18.66 18 19 18 C19.33 12.06 19.66 6.12 20 0 C24.95 0 29.9 0 35 0 C35 0.99 35 1.98 35 3 C31.04 3 27.08 3 23 3 C23 4.65 23 6.3 23 8 C26.63 8 30.26 8 34 8 C34 8.99 34 9.98 34 11 C30.37 11 26.74 11 23 11 C23 12.98 23 14.96 23 17 C27.62 17 32.24 17 37 17 C36.505 18.485 36.505 18.485 36 20 C30.72 20 25.44 20 20 20 C20 21.65 20 23.3 20 25 C19.34 25 18.68 25 18 25 C17.67 24.34 17.34 23.68 17 23 C13.89614303 22.70096988 10.83780925 22.5845077 7.72265625 22.52148438 C3.36393693 22.34593674 0.42311126 21.77514182 -3 19 C-3.4375 15.9375 -3.4375 15.9375 -3 13 C-2.34 12.34 -1.68 11.68 -1 11 C-0.53709779 8.33757179 -0.53709779 8.33757179 -0.375 5.375 C-0.30023438 4.37210937 -0.22546875 3.36921875 -0.1484375 2.3359375 C-0.09945312 1.56507812 -0.05046875 0.79421875 0 0 Z M40 9 C40.66 9.99 41.32 10.98 42 12 C41.01 13.98 40.02 15.96 39 18 C38.34 17.67 37.68 17.34 37 17 C36.63076923 12.44615385 36.63076923 12.44615385 38.5 10.1875 C38.995 9.795625 39.49 9.40375 40 9 Z " fill="#F5FBF9" transform="translate(94,85)"/>
<path d="M0 0 C-0.15855469 0.53882813 -0.31710938 1.07765625 -0.48046875 1.6328125 C-1.80248992 7.65645783 -2.0032653 13.91915345 0.6875 19.5 C1.450625 20.325 2.21375 21.15 3 22 C3.680625 22.7425 4.36125 23.485 5.0625 24.25 C9.42616428 26.84962978 14.01490931 27.3364853 19 28 C15.9183567 31.0816433 12.20063296 32.04969287 8 33 C3.82289657 32.79456868 0.59550743 32.15730446 -3 30 C-3 29.34 -3 28.68 -3 28 C-3.99 27.67 -4.98 27.34 -6 27 C-10.23157069 22.28017115 -10.22804348 17.56612816 -10.15625 11.47265625 C-9.90447743 7.48835533 -8.97463363 4.39233376 -6.6875 1.125 C-4.39758754 -0.40160831 -2.69108253 -0.21819588 0 0 Z " fill="#E0E6EE" transform="translate(182,10)"/>
<path d="M0 0 C8.3984375 -0.1953125 8.3984375 -0.1953125 11 0 C11.66 0.66 12.32 1.32 13 2 C12.66666667 4.33333333 12.33333333 6.66666667 12 9 C12.66 9.66 13.32 10.32 14 11 C14.25 13.5 14.25 13.5 14 16 C12 18 12 18 9.1796875 18.1953125 C6.11979167 18.13020833 3.05989583 18.06510417 0 18 C0 12.06 0 6.12 0 0 Z " fill="#34465F" transform="translate(164,86)"/>
<path d="M0 0 C4.62 0 9.24 0 14 0 C14.33 2.64 14.66 5.28 15 8 C14.34 8 13.68 8 13 8 C13 8.66 13 9.32 13 10 C14.32 9.67 15.64 9.34 17 9 C17.33 10.32 17.66 11.64 18 13 C16.68 13.33 15.36 13.66 14 14 C14 15.32 14 16.64 14 18 C9.05 18 4.1 18 -1 18 C0.11358822 13.54564712 1.62978624 11.71968952 4.5625 8.25 C5.80193359 6.77273437 5.80193359 6.77273437 7.06640625 5.265625 C7.70449219 4.51796875 8.34257813 3.7703125 9 3 C6.03 2.67 3.06 2.34 0 2 C0 1.34 0 0.68 0 0 Z " fill="#EFF4F5" transform="translate(72,86)"/>
<path d="M0 0 C9.9609375 -0.1953125 9.9609375 -0.1953125 13 0 C15 2 15 2 15.125 4.625 C15.08375 5.40875 15.0425 6.1925 15 7 C13.02 7.99 13.02 7.99 11 9 C11.3609375 9.48210937 11.721875 9.96421875 12.09375 10.4609375 C12.5578125 11.09257813 13.021875 11.72421875 13.5 12.375 C13.9640625 13.00148438 14.428125 13.62796875 14.90625 14.2734375 C16 16 16 16 16 18 C14.25 17.875 14.25 17.875 12 17 C11.360625 16.01 10.72125 15.02 10.0625 14 C8.30571613 10.78763 8.30571613 10.78763 5.25 10.125 C4.5075 10.08375 3.765 10.0425 3 10 C3 12.64 3 15.28 3 18 C2.01 18 1.02 18 0 18 C0 12.06 0 6.12 0 0 Z " fill="#323E53" transform="translate(187,86)"/>
<path d="M0 0 C2.71392558 0.06920757 3.80823289 0.27560357 5.82421875 2.1328125 C9.16320146 7.01212821 9.70655745 10.81155656 9.1875 16.625 C3.94539474 17.06184211 3.94539474 17.06184211 1.1875 16.625 C-1.3125 14.25 -1.3125 14.25 -2.8125 11.625 C-2.8125 10.965 -2.8125 10.305 -2.8125 9.625 C-3.4725 9.625 -4.1325 9.625 -4.8125 9.625 C-5.4375 6.25 -5.4375 6.25 -5.8125 2.625 C-3.8125 0.625 -3.8125 0.625 0 0 Z " fill="#657EA6" transform="translate(200.8125,4.375)"/>
<path d="M0 0 C0.99 0 1.98 0 3 0 C2.84144531 0.53882813 2.68289062 1.07765625 2.51953125 1.6328125 C1.19751008 7.65645783 0.9967347 13.91915345 3.6875 19.5 C7.07387524 23.16094621 10.42671966 25.96743096 15 28 C13.31640625 29.1328125 13.31640625 29.1328125 11 30 C8.52734375 29.2421875 8.52734375 29.2421875 5.9375 27.875 C5.08027344 27.43929687 4.22304687 27.00359375 3.33984375 26.5546875 C-1.47469525 23.35571167 -2.76069441 19.52920955 -4 14 C-4.71412851 8.40599333 -2.69267186 4.73621747 0 0 Z " fill="#C8D3E4" transform="translate(179,10)"/>
<path d="M0 0 C1.32 0 2.64 0 4 0 C6.31 5.94 8.62 11.88 11 18 C10.01 18 9.02 18 8 18 C7.67 16.35 7.34 14.7 7 13 C5.54052295 13.06006078 4.08220728 13.1488689 2.625 13.25 C1.81289063 13.29640625 1.00078125 13.3428125 0.1640625 13.390625 C-2.18838927 13.7922092 -2.18838927 13.7922092 -3.2890625 16.046875 C-3.52367187 16.69140625 -3.75828125 17.3359375 -4 18 C-4.66 18 -5.32 18 -6 18 C-5.31583566 13.82423832 -3.98634991 10.11919593 -2.4375 6.1875 C-1.75494141 4.44533203 -1.75494141 4.44533203 -1.05859375 2.66796875 C-0.70925781 1.78753906 -0.35992187 0.90710938 0 0 Z " fill="#2C3A4E" transform="translate(29,86)"/>
<path d="M0 0 C4.29 0 8.58 0 13 0 C13 0.66 13 1.32 13 2 C9.7 2 6.4 2 3 2 C3 3.65 3 5.3 3 7 C6.3 7 9.6 7 13 7 C13 7.99 13 8.98 13 10 C9.37 10 5.74 10 2 10 C2 11.98 2 13.96 2 16 C5.96 16 9.92 16 14 16 C14 16.66 14 17.32 14 18 C9.38 18 4.76 18 0 18 C0 12.06 0 6.12 0 0 Z " fill="#293751" transform="translate(212,86)"/>
<path d="M0 0 C0.66 0 1.32 0 2 0 C2 6.27 2 12.54 2 19 C-3.66334165 16.16832917 -5.50414316 12.24378525 -9 7 C-9.33 10.96 -9.66 14.92 -10 19 C-10.66 19 -11.32 19 -12 19 C-12 13.06 -12 7.12 -12 1 C-8 2 -8 2 -6.078125 4.50390625 C-4.38541667 7.3359375 -2.69270833 10.16796875 -1 13 C-0.67 8.71 -0.34 4.42 0 0 Z " fill="#182648" transform="translate(60,85)"/>
<path d="M0 0 C4.29 0 8.58 0 13 0 C13 0.66 13 1.32 13 2 C9.37 2 5.74 2 2 2 C2 3.65 2 5.3 2 7 C5.63 7 9.26 7 13 7 C13 7.99 13 8.98 13 10 C9.37 10 5.74 10 2 10 C2 11.98 2 13.96 2 16 C5.96 16 9.92 16 14 16 C14 16.66 14 17.32 14 18 C9.38 18 4.76 18 0 18 C0 12.06 0 6.12 0 0 Z " fill="#26334B" transform="translate(115,86)"/>
<path d="M0 0 C8.91 0 17.82 0 27 0 C26.34 2.64 25.68 5.28 25 8 C24.071875 7.360625 23.14375 6.72125 22.1875 6.0625 C16.95589078 2.67734109 12.11001061 2.02875554 6 3 C3.44172664 4.32680637 1.27721099 5.81870803 -0.9921875 7.58984375 C-3.03578107 9.02513028 -4.56224337 9.56820006 -7 10 C-5.625 8 -5.625 8 -4 6 C-3.34 6 -2.68 6 -2 6 C-1.34 4.02 -0.68 2.04 0 0 Z " fill="#F3FAF9" transform="translate(186,0)"/>
<path d="M0 0 C0.66 0 1.32 0 2 0 C2.33 2.64 2.66 5.28 3 8 C5.64 5.36 8.28 2.72 11 0 C11.99 0.33 12.98 0.66 14 1 C13.154375 1.7425 12.30875 2.485 11.4375 3.25 C10.2309375 4.61125 10.2309375 4.61125 9 6 C9.30743973 9.17687726 10.67691092 11.23588122 12.5625 13.75 C13.01753906 14.36359375 13.47257813 14.9771875 13.94140625 15.609375 C14.29074219 16.06828125 14.64007813 16.5271875 15 17 C14.01 17.33 13.02 17.66 12 18 C11.59007812 17.43410156 11.18015625 16.86820313 10.7578125 16.28515625 C10.21898437 15.55167969 9.68015625 14.81820312 9.125 14.0625 C8.32449219 12.96615234 8.32449219 12.96615234 7.5078125 11.84765625 C6.11987896 9.88901765 6.11987896 9.88901765 4 9 C3.34 11.97 2.68 14.94 2 18 C1.34 18 0.68 18 0 18 C0 12.06 0 6.12 0 0 Z " fill="#0D1C35" transform="translate(1,86)"/>
<path d="M0 0 C4.29 0 8.58 0 13 0 C11.88641178 4.45435288 10.37021376 6.28031048 7.4375 9.75 C6.19806641 11.22726563 6.19806641 11.22726563 4.93359375 12.734375 C4.29550781 13.48203125 3.65742187 14.2296875 3 15 C6.63 15.33 10.26 15.66 14 16 C14 16.66 14 17.32 14 18 C9.05 18 4.1 18 -1 18 C0.11358822 13.54564712 1.62978624 11.71968952 4.5625 8.25 C5.80193359 6.77273437 5.80193359 6.77273437 7.06640625 5.265625 C7.70449219 4.51796875 8.34257813 3.7703125 9 3 C6.03 2.67 3.06 2.34 0 2 C0 1.34 0 0.68 0 0 Z " fill="#1A2639" transform="translate(72,86)"/>
<path d="M0 0 C0.66 1.98 1.32 3.96 2 6 C0.9790625 6.0309375 0.9790625 6.0309375 -0.0625 6.0625 C-3.94829326 7.30264679 -5.81732846 9.55480923 -8.546875 12.50390625 C-9.02640625 12.99761719 -9.5059375 13.49132812 -10 14 C-10.33 14 -10.66 14 -11 14 C-11 11.03 -11 8.06 -11 5 C-11.66 4.67 -12.32 4.34 -13 4 C-12.01 4 -11.02 4 -10 4 C-10 3.34 -10 2.68 -10 2 C-6.37626474 -0.79545292 -4.37834956 -1.37605272 0 0 Z " fill="#F9FBF5" transform="translate(14,81)"/>
<path d="M0 0 C4.875 3.75 4.875 3.75 6 6 C6.0952699 7.47668337 6.12985959 8.95775457 6.125 10.4375 C6.12886719 11.61119141 6.12886719 11.61119141 6.1328125 12.80859375 C6 15 6 15 5 18 C-0.57849229 17.45979027 -4.83068288 16.88717917 -8.625 12.5 C-11 9.40331492 -11 9.40331492 -11 7 C-10.34 7 -9.68 7 -9 7 C-5 11.47058824 -5 11.47058824 -5 14 C-2.36 14 0.28 14 3 14 C2.68872484 12.41642541 2.37592711 10.83315007 2.0625 9.25 C1.88847656 8.36828125 1.71445313 7.4865625 1.53515625 6.578125 C1.07631512 4.36764947 0.56663926 2.18487932 0 0 Z " fill="#446793" transform="translate(207,7)"/>
<path d="M0 0 C1.2065625 0.0309375 1.2065625 0.0309375 2.4375 0.0625 C2.1075 0.7225 1.7775 1.3825 1.4375 2.0625 C4.56040635 1.57671457 7.43330359 1.0638988 10.4375 0.0625 C12.44625442 0.33821139 14.44928687 0.66485737 16.4375 1.0625 C15.4475 2.5475 15.4475 2.5475 14.4375 4.0625 C13.1175 4.0625 11.7975 4.0625 10.4375 4.0625 C9.66507731 5.89950789 9.66507731 5.89950789 9.4375 8.0625 C10.79194301 9.83440909 10.79194301 9.83440909 12.4375 11.0625 C6.99253074 10.68261842 5.11876344 8.93751415 1.4375 5.0625 C0.1132713 4.69465869 -1.21863912 4.35047019 -2.5625 4.0625 C-2.8925 3.0725 -3.2225 2.0825 -3.5625 1.0625 C-2.5625 0.0625 -2.5625 0.0625 0 0 Z " fill="#BCC6CB" transform="translate(75.5625,48.9375)"/>
<path d="M0 0 C0.66 0.33 1.32 0.66 2 1 C2 1.66 2 2.32 2 3 C6.29 3 10.58 3 15 3 C14.67 3.99 14.34 4.98 14 6 C14 5.34 14 4.68 14 4 C8.39 4 2.78 4 -3 4 C-3.33 5.65 -3.66 7.3 -4 9 C-5.32 8.67 -6.64 8.34 -8 8 C-8.33 8.99 -8.66 9.98 -9 11 C-9.66 9.02 -10.32 7.04 -11 5 C-15.29 4.67 -19.58 4.34 -24 4 C-24 3.67 -24 3.34 -24 3 C-23.22914063 2.93941406 -22.45828125 2.87882812 -21.6640625 2.81640625 C-20.66117188 2.73261719 -19.65828125 2.64882812 -18.625 2.5625 C-17.62726563 2.48128906 -16.62953125 2.40007812 -15.6015625 2.31640625 C-13.02072387 2.15034374 -13.02072387 2.15034374 -11 1 C-9.88625 1.556875 -9.88625 1.556875 -8.75 2.125 C-5.88310895 3.37443201 -5.88310895 3.37443201 -2.8125 1.5625 C-1.4203125 0.7890625 -1.4203125 0.7890625 0 0 Z " fill="#D9E2E9" transform="translate(211,82)"/>
<path d="M0 0 C4.95 0 9.9 0 15 0 C14.67 0.99 14.34 1.98 14 3 C14 2.34 14 1.68 14 1 C9.71 1 5.42 1 1 1 C1 6.94 1 12.88 1 19 C5.62 19 10.24 19 15 19 C15 18.34 15 17.68 15 17 C15.66 17.33 16.32 17.66 17 18 C16.67 18.66 16.34 19.32 16 20 C10.72 20 5.44 20 0 20 C0 13.4 0 6.8 0 0 Z M20 9 C20.66 9.99 21.32 10.98 22 12 C21.01 13.98 20.02 15.96 19 18 C18.34 17.67 17.68 17.34 17 17 C16.63076923 12.44615385 16.63076923 12.44615385 18.5 10.1875 C18.995 9.795625 19.49 9.40375 20 9 Z " fill="#BDC5CC" transform="translate(114,85)"/>
<path d="M0 0 C4.95 0 9.9 0 15 0 C15 0.66 15 1.32 15 2 C13.02 2 11.04 2 9 2 C9 7.28 9 12.56 9 18 C8.01 18 7.02 18 6 18 C6 12.72 6 7.44 6 2 C4.02 2 2.04 2 0 2 C0 1.34 0 0.68 0 0 Z " fill="#323F5A" transform="translate(234,86)"/>
<path d="M0 0 C0.99 0 1.98 0 3 0 C3 5.61 3 11.22 3 17 C5.97 17 8.94 17 12 17 C12 17.66 12 18.32 12 19 C8.04 19 4.08 19 0 19 C0 12.73 0 6.46 0 0 Z " fill="#313E53" transform="translate(94,85)"/>
<path d="M0 0 C0.9075 0.0825 1.815 0.165 2.75 0.25 C-0.38462208 4.74715881 -3.6702825 7.00643183 -8.375 9.5625 C-9.00792969 9.92150391 -9.64085937 10.28050781 -10.29296875 10.65039062 C-14.95741071 13.25 -14.95741071 13.25 -17.25 13.25 C-17.25 12.59 -17.25 11.93 -17.25 11.25 C-17.91 10.92 -18.57 10.59 -19.25 10.25 C-18.43015625 9.86328125 -17.6103125 9.4765625 -16.765625 9.078125 C-15.68796875 8.55734375 -14.6103125 8.0365625 -13.5 7.5 C-12.43265625 6.98953125 -11.3653125 6.4790625 -10.265625 5.953125 C-7.20920923 4.40460615 -7.20920923 4.40460615 -5.0625 2.0625 C-3.25 0.25 -3.25 0.25 0 0 Z " fill="#EDF5F8" transform="translate(215.25,29.75)"/>
<path d="M0 0 C2.99324263 1.0975223 3.84610901 1.67682892 5.25 4.625 C5.4975 5.40875 5.745 6.1925 6 7 C5.360625 7.12375 4.72125 7.2475 4.0625 7.375 C3.381875 7.58125 2.70125 7.7875 2 8 C0.8509288 9.9254644 0.8509288 9.9254644 1 12 C-0.32 12.33 -1.64 12.66 -3 13 C-3 12.34 -3 11.68 -3 11 C-3.66 10.67 -4.32 10.34 -5 10 C-5 8.02 -5 6.04 -5 4 C-4.67 4 -4.34 4 -4 4 C-4 5.65 -4 7.3 -4 9 C-3.34 9 -2.68 9 -2 9 C-2.04125 8.071875 -2.0825 7.14375 -2.125 6.1875 C-2 3 -2 3 0 0 Z " fill="#F6F9FA" transform="translate(5,95)"/>
<path d="M0 0 C0.33 0 0.66 0 1 0 C1.02578125 0.65226562 1.0515625 1.30453125 1.078125 1.9765625 C1.54386027 9.15311954 3.01140553 13.31026497 8.5 18.25 C10.6244699 19.73712893 12.63574039 20.94921795 15 22 C13.3125 23.125 13.3125 23.125 11 24 C8.25 23.125 8.25 23.125 6 22 C6 21.34 6 20.68 6 20 C5.4225 19.814375 4.845 19.62875 4.25 19.4375 C0.90175957 17.29834639 -0.9488631 14.77877063 -2 11 C-1.74564036 7.21512859 -0.97932086 3.65921917 0 0 Z " fill="#B3C5E4" transform="translate(179,16)"/>
<path d="M0 0 C9.9609375 -0.1953125 9.9609375 -0.1953125 13 0 C15 2 15 2 15.125 4.625 C15.08375 5.40875 15.0425 6.1925 15 7 C14.01 7 13.02 7 12 7 C12 5.68 12 4.36 12 3 C8.7 2.34 5.4 1.68 2 1 C2 6.61 2 12.22 2 18 C1.34 18 0.68 18 0 18 C0 12.06 0 6.12 0 0 Z " fill="#1C293B" transform="translate(187,86)"/>
<path d="M0 0 C5.28 0 10.56 0 16 0 C16 0.66 16 1.32 16 2 C13.69 2 11.38 2 9 2 C9 7.28 9 12.56 9 18 C8.34 18 7.68 18 7 18 C7 12.72 7 7.44 7 2 C4.69 2 2.38 2 0 2 C0 1.34 0 0.68 0 0 Z " fill="#1C2743" transform="translate(255,86)"/>
<path d="M0 0 C1.60379341 -0.05416188 3.20811406 -0.09286638 4.8125 -0.125 C5.70582031 -0.14820312 6.59914062 -0.17140625 7.51953125 -0.1953125 C10 0 10 0 13 2 C10 3 7 4 4 5 C4 7.31 4 9.62 4 12 C3.01 12 2.02 12 1 12 C0.46705574 7.9363 0 4.09829169 0 0 Z " fill="#49638E" transform="translate(192,2)"/>
<path d="M0 0 C3.53659092 0.56002416 4.95559692 1.67774324 7.1875 4.4375 C7.95126953 5.36369141 7.95126953 5.36369141 8.73046875 6.30859375 C11.05238203 9.40209668 11.16161751 11.48706841 11.1875 15.3125 C11.20167969 16.25738281 11.21585938 17.20226562 11.23046875 18.17578125 C10.98824335 21.14406882 10.24026607 23.30867165 9 26 C8.34 25.67 7.68 25.34 7 25 C6.95745644 23.00045254 6.95919217 20.99958364 7 19 C7.33 18.67 7.66 18.34 8 18 C8.56312641 13.53191504 8.66183405 10.06366186 6.25 6.1875 C5.5075 5.465625 4.765 4.74375 4 4 C3.2575 3.236875 2.515 2.47375 1.75 1.6875 C1.1725 1.130625 0.595 0.57375 0 0 Z " fill="#253F5F" transform="translate(204,4)"/>
<path d="M0 0 C0.99 0 1.98 0 3 0 C3 6.27 3 12.54 3 19 C2.01 19 1.02 19 0 19 C0 12.73 0 6.46 0 0 Z " fill="#3E495D" transform="translate(138,85)"/>
<path d="M0 0 C1.96733733 3.5657989 2 5.93941676 2 10 C2.33 10.99 2.66 11.98 3 13 C-1 13 -1 13 -3.3125 10.75 C-5 8 -5 8 -5 5.9375 C-3.7252865 3.4677426 -2.05169107 1.85314032 0 0 Z " fill="#EFF6F6" transform="translate(14,87)"/>
<path d="M0 0 C2.97 0 5.94 0 9 0 C9.33 1.65 9.66 3.3 10 5 C6.78548731 6.60725635 3.56387464 6.05748185 0 6 C0 4.02 0 2.04 0 0 Z " fill="#E6EEF4" transform="translate(190,88)"/>
<path d="M0 0 C0.33 0 0.66 0 1 0 C1 5.94 1 11.88 1 18 C1.66 18.33 2.32 18.66 3 19 C2.34 19.99 1.68 20.98 1 22 C-0.98 21.67 -2.96 21.34 -5 21 C-5.33 18.36 -5.66 15.72 -6 13 C-4.02 14.65 -2.04 16.3 0 18 C0 12.06 0 6.12 0 0 Z " fill="#D2DEE4" transform="translate(62,86)"/>
<path d="M0 0 C1.65 0 3.3 0 5 0 C5.93423645 3.01031744 6.04449911 3.86650268 5 7 C4.01 7.495 4.01 7.495 3 8 C2.34227572 11.02934491 2.34227572 11.02934491 2 14 C1.34 13.67 0.68 13.34 0 13 C0 12.34 0 11.68 0 11 C-1.45833358 9.37485532 -1.45833358 9.37485532 -3 8 C-2.01 8 -1.02 8 0 8 C0 5.36 0 2.72 0 0 Z " fill="#F0F6F5" transform="translate(190,96)"/>
<path d="M0 0 C2.31 0 4.62 0 7 0 C7 0.33 7 0.66 7 1 C5.02 1 3.04 1 1 1 C1.33 3.31 1.66 5.62 2 8 C4.64 8 7.28 8 10 8 C10 8.33 10 8.66 10 9 C7.36 9 4.72 9 2 9 C2 11.64 2 14.28 2 17 C4.64 17 7.28 17 10 17 C10 17.33 10 17.66 10 18 C6.7 18 3.4 18 0 18 C0 12.06 0 6.12 0 0 Z " fill="#041330" transform="translate(164,86)"/>
<path d="M0 0 C2.64 0 5.28 0 8 0 C8.38218767 1.65614657 8.71395102 3.32457024 9 5 C8 6 8 6 6.15234375 6.09765625 C4.1015625 6.06510417 2.05078125 6.03255208 0 6 C0 4.02 0 2.04 0 0 Z " fill="#EEF8FB" transform="translate(166,96)"/>
<path d="M0 0 C0.99 0.99 1.98 1.98 3 3 C1.84826645 5.46800047 0.95216435 7.04783565 -1 9 C-1.33 8.34 -1.66 7.68 -2 7 C-2.99 6.67 -3.98 6.34 -5 6 C-5 11.94 -5 17.88 -5 24 C-5.33 24 -5.66 24 -6 24 C-6 17.73 -6 11.46 -6 5 C-5.34 5 -4.68 5 -4 5 C-3.896875 4.360625 -3.79375 3.72125 -3.6875 3.0625 C-3.460625 2.381875 -3.23375 1.70125 -3 1 C-2.01 0.67 -1.02 0.34 0 0 Z " fill="#CDD7DB" transform="translate(53,80)"/>
<path d="M0 0 C0.99 0.33 1.98 0.66 3 1 C2.34 1 1.68 1 1 1 C0.855625 2.093125 0.71125 3.18625 0.5625 4.3125 C0 8 0 8 -1 11 C0.98 11 2.96 11 5 11 C5 11.33 5 11.66 5 12 C2.69 12 0.38 12 -2 12 C-2.66 13.98 -3.32 15.96 -4 18 C-4.66 18 -5.32 18 -6 18 C-5.31583566 13.82423832 -3.98634991 10.11919593 -2.4375 6.1875 C-1.75494141 4.44533203 -1.75494141 4.44533203 -1.05859375 2.66796875 C-0.70925781 1.78753906 -0.35992187 0.90710938 0 0 Z " fill="#1D2A42" transform="translate(29,86)"/>
<path d="M0 0 C4.75 0.75 4.75 0.75 7 3 C7.125 5.625 7.125 5.625 7 8 C4.625 8.125 4.625 8.125 2 8 C0 6 0 6 -0.125 2.875 C-0.08375 1.92625 -0.0425 0.9775 0 0 Z " fill="#A8B6D6" transform="translate(200,10)"/>
<path d="M0 0 C2.97 0 5.94 0 9 0 C9.33 1.65 9.66 3.3 10 5 C9.34 5 8.68 5 8 5 C7.34 5.66 6.68 6.32 6 7 C5.01 5.35 4.02 3.7 3 2 C3 2.66 3 3.32 3 4 C1.35 4.33 -0.3 4.66 -2 5 C-1.34 3.35 -0.68 1.7 0 0 Z " fill="#E0EBF0" transform="translate(27,99)"/>
<path d="M0 0 C2.64 0 5.28 0 8 0 C8.5625 1.9375 8.5625 1.9375 9 4 C8 5 8 5 6.15234375 5.09765625 C4.1015625 5.06510417 2.05078125 5.03255208 0 5 C0 3.35 0 1.7 0 0 Z " fill="#E0EDEF" transform="translate(166,88)"/>
<path d="M0 0 C0.99 0.33 1.98 0.66 3 1 C3.33 2.65 3.66 4.3 4 6 C4.66 6 5.32 6 6 6 C6 6.99 6 7.98 6 9 C6.33 9.66 6.66 10.32 7 11 C6.67 11.66 6.34 12.32 6 13 C6.66 13.33 7.32 13.66 8 14 C7.01 14.495 7.01 14.495 6 15 C5.34 14.67 4.68 14.34 4 14 C4 13.01 4 12.02 4 11 C2.68 10.34 1.36 9.68 0 9 C0.185625 7.88625 0.37125 6.7725 0.5625 5.625 C1.31680657 2.17431139 1.31680657 2.17431139 0 0 Z " fill="#F8F9F1" transform="translate(175,86)"/>
<path d="M0 0 C2.68186667 4.0228 2.57140016 7.27528823 2 12 C0.625 14.5625 0.625 14.5625 -1 16 C-1.66 16 -2.32 16 -3 16 C-3.33 14.68 -3.66 13.36 -4 12 C-3.01 12 -2.02 12 -1 12 C-1.01160156 11.21753906 -1.02320313 10.43507813 -1.03515625 9.62890625 C-1.04417969 8.61699219 -1.05320313 7.60507813 -1.0625 6.5625 C-1.07410156 5.55316406 -1.08570313 4.54382813 -1.09765625 3.50390625 C-1 1 -1 1 0 0 Z " fill="#EEF8F7" transform="translate(244,92)"/>
<path d="M0 0 C0.625 2.375 0.625 2.375 1 5 C0.34 5.66 -0.32 6.32 -1 7 C-1 6.34 -1 5.68 -1 5 C-4.96 5 -8.92 5 -13 5 C-12.34 3.68 -11.68 2.36 -11 1 C-9.02 1.66 -7.04 2.32 -5 3 C-4.54625 2.505 -4.0925 2.01 -3.625 1.5 C-2 0 -2 0 0 0 Z " fill="#F4FDF5" transform="translate(130,80)"/>
<path d="M0 0 C0.33 0.66 0.66 1.32 1 2 C5.95 2 10.9 2 16 2 C16 2.33 16 2.66 16 3 C13.36 3 10.72 3 8 3 C7.67 4.32 7.34 5.64 7 7 C4.69 6.67 2.38 6.34 0 6 C0 4 0 2 0 0 Z " fill="#DBE6EA" transform="translate(70,102)"/>
<path d="M0 0 C0.969375 0.185625 1.93875 0.37125 2.9375 0.5625 C3.948125 0.706875 4.95875 0.85125 6 1 C6.33 0.67 6.66 0.34 7 0 C8.51928038 -0.07179964 10.04167482 -0.08392007 11.5625 -0.0625 C12.38878906 -0.05347656 13.21507812 -0.04445312 14.06640625 -0.03515625 C14.70449219 -0.02355469 15.34257812 -0.01195312 16 0 C12.9565234 3.0434766 10.12945053 3.88705495 5.875 4.3125 C3 4 3 4 1.125 2.5625 C0 1 0 1 0 0 Z " fill="#D4DBEC" transform="translate(185,38)"/>
<path d="M0 0 C3 1 3 1 4.796875 2.984375 C7.58691485 5.53696465 9.53623733 5.76559617 13.25 6.25 C14.32765625 6.39953125 15.4053125 6.5490625 16.515625 6.703125 C17.74539062 6.85007812 17.74539062 6.85007812 19 7 C19 7.66 19 8.32 19 9 C12.08477748 9.36395908 7.06332944 8.59204799 1.5625 3.9375 C0 2 0 2 0 0 Z " fill="#1E3D66" transform="translate(183,29)"/>
<path d="M0 0 C-0.99 0.495 -0.99 0.495 -2 1 C-1.67 2.98 -1.34 4.96 -1 7 C-2.32 7.33 -3.64 7.66 -5 8 C-5.33 7.34 -5.66 6.68 -6 6 C-5.67 5.34 -5.34 4.68 -5 4 C-5.99 3.67 -6.98 3.34 -8 3 C-7.67 2.67 -7.34 2.34 -7 2 C-7.66 1.34 -8.32 0.68 -9 0 C-5.62182575 -0.84454356 -3.32534757 -1.10844919 0 0 Z " fill="#BDC6CD" transform="translate(181,50)"/>
<path d="M0 0 C0 1.65 0 3.3 0 5 C-3.63 5 -7.26 5 -11 5 C-9.68 4.01 -8.36 3.02 -7 2 C-6.67 1.34 -6.34 0.68 -6 0 C-3 -1 -3 -1 0 0 Z " fill="#D6E1E0" transform="translate(175,81)"/>
<path d="M0 0 C2.9375 0.9375 2.9375 0.9375 6.9375 3.9375 C1.9875 3.9375 -2.9625 3.9375 -8.0625 3.9375 C-3.0625 -0.0625 -3.0625 -0.0625 0 0 Z " fill="#C7D4DC" transform="translate(264.0625,82.0625)"/>
<path d="M0 0 C0.66 0 1.32 0 2 0 C2.66 2.97 3.32 5.94 4 9 C2.02 9 0.04 9 -2 9 C-1.34 6.03 -0.68 3.06 0 0 Z " fill="#CADBE6" transform="translate(30,88)"/>
<path d="M0 0 C0.66 0.33 1.32 0.66 2 1 C2 1.66 2 2.32 2 3 C6.29 3 10.58 3 15 3 C14.67 3.99 14.34 4.98 14 6 C14 5.34 14 4.68 14 4 C11.20775927 3.91928212 8.41783434 3.85964592 5.625 3.8125 C4.8309375 3.78736328 4.036875 3.76222656 3.21875 3.73632812 C1.14413852 3.70995595 -0.93100865 3.84513538 -3 4 C-3.66 4.99 -4.32 5.98 -5 7 C-5 5.35 -5 3.7 -5 2 C-2.625 0.9375 -2.625 0.9375 0 0 Z " fill="#C4CCCD" transform="translate(211,82)"/>
<path d="M0 0 C0.98120464 3.05263664 0.98120464 4.94736336 0 8 C-0.66 8 -1.32 8 -2 8 C-2 7.34 -2 6.68 -2 6 C-2.66 5.67 -3.32 5.34 -4 5 C-3.34 5 -2.68 5 -2 5 C-2 4.34 -2 3.68 -2 3 C-2.61875 3.495 -3.2375 3.99 -3.875 4.5 C-6 6 -6 6 -8 6 C-8 4.68 -8 3.36 -8 2 C-5.3260876 1.10869587 -2.76276177 0.52268466 0 0 Z " fill="#BAC4CB" transform="translate(200,44)"/>
<path d="M0 0 C0.99 0 1.98 0 3 0 C2.690625 0.825 2.38125 1.65 2.0625 2.5 C0.88122417 6.39126155 0.41775832 9.96166953 0 14 C-0.66 14 -1.32 14 -2 14 C-2.3690205 4.58997722 -2.3690205 4.58997722 0 0 Z " fill="#B8CCE8" transform="translate(179,10)"/>
<path d="M0 0 C3.476909 0.22675493 5.39381293 0.41336736 7.9375 2.875 C8.288125 3.57625 8.63875 4.2775 9 5 C8.67 5.99 8.34 6.98 8 8 C7.38125 7.0409375 7.38125 7.0409375 6.75 6.0625 C4.82189513 3.79009069 3.88575819 3.39803561 1 3 C1 4.32 1 5.64 1 7 C0.34 7 -0.32 7 -1 7 C-1.04254356 5.00045254 -1.04080783 2.99958364 -1 1 C-0.67 0.67 -0.34 0.34 0 0 Z " fill="#8699BC" transform="translate(199,7)"/>
<path d="M0 0 C0.33 0 0.66 0 1 0 C1 2.64 1 5.28 1 8 C4.96 8 8.92 8 13 8 C13 8.33 13 8.66 13 9 C10.87506859 9.02693575 8.75004088 9.04636628 6.625 9.0625 C5.44164063 9.07410156 4.25828125 9.08570312 3.0390625 9.09765625 C0 9 0 9 -2 8 C-2.125 5.125 -2.125 5.125 -2 2 C-1.34 1.34 -0.68 0.68 0 0 Z " fill="#DEE8ED" transform="translate(93,96)"/>
<path d="M0 0 C3.21880117 3.7935871 5.6163187 7.65829477 8 12 C5.1157546 11.65514457 4.1792182 11.21744593 2.296875 8.93359375 C1.78640625 8.10988281 1.2759375 7.28617187 0.75 6.4375 C0.22921875 5.61121094 -0.2915625 4.78492187 -0.828125 3.93359375 C-1.21484375 3.29550781 -1.6015625 2.65742187 -2 2 C-1.34 2 -0.68 2 0 2 C0 1.34 0 0.68 0 0 Z " fill="#1B2A40" transform="translate(8,92)"/>
<path d="M0 0 C0.33 0 0.66 0 1 0 C1.02578125 0.64066406 1.0515625 1.28132813 1.078125 1.94140625 C1.4792753 8.0589484 2.57146888 11.9125022 6 17 C2.08556509 15.73045354 0.03509537 14.62346249 -2 11 C-1.85546875 8.203125 -1.85546875 8.203125 -1.1875 5.25 C-0.86845703 3.77273437 -0.86845703 3.77273437 -0.54296875 2.265625 C-0.36378906 1.51796875 -0.18460938 0.7703125 0 0 Z " fill="#A0B9DA" transform="translate(179,16)"/>
<path d="M0 0 C1.32 0 2.64 0 4 0 C3.25 5.75 3.25 5.75 1 8 C0.34 7.67 -0.32 7.34 -1 7 C-1.04254356 5.00045254 -1.04080783 2.99958364 -1 1 C-0.67 0.67 -0.34 0.34 0 0 Z " fill="#F8F9FA" transform="translate(208,85)"/>
<path d="M0 0 C1.48206495 0.254496 2.96068615 0.52911762 4.4375 0.8125 C5.67306641 1.03873047 5.67306641 1.03873047 6.93359375 1.26953125 C7.95646484 1.63111328 7.95646484 1.63111328 9 2 C9.33 2.99 9.66 3.98 10 5 C12.00016466 6.20882096 12.00016466 6.20882096 14 7 C9.94393835 6.53199289 6.53411321 6.12046792 3 4 C3 3.34 3 2.68 3 2 C2.01 1.67 1.02 1.34 0 1 C0 0.67 0 0.34 0 0 Z " fill="#ECECF3" transform="translate(176,36)"/>
<path d="M0 0 C0.763125 0.0825 1.52625 0.165 2.3125 0.25 C1.6525 2.89 0.9925 5.53 0.3125 8.25 C-1.6675 6.93 -3.6475 5.61 -5.6875 4.25 C-3.34903846 0.31153846 -3.34903846 0.31153846 0 0 Z " fill="#E9F0F2" transform="translate(210.6875,-0.25)"/>
<path d="M0 0 C0.99 0 1.98 0 3 0 C4.0625 2.375 4.0625 2.375 5 5 C4.67 5.66 4.34 6.32 4 7 C4.66 7.33 5.32 7.66 6 8 C5.34 9.32 4.68 10.64 4 12 C3.3291288 10.3767313 2.66342971 8.75132422 2 7.125 C1.62875 6.22007813 1.2575 5.31515625 0.875 4.3828125 C0 2 0 2 0 0 Z " fill="#E6EFF5" transform="translate(34,89)"/>
<path d="M0 0 C0.33 1.65 0.66 3.3 1 5 C0.01 5.495 0.01 5.495 -1 6 C-1.33 4.68 -1.66 3.36 -2 2 C-4.64 1.67 -7.28 1.34 -10 1 C-10.33 1.99 -10.66 2.98 -11 4 C-11 2.68 -11 1.36 -11 0 C-6.98195309 -0.84098656 -3.98196457 -1.05404945 0 0 Z " fill="#1D2C47" transform="translate(176,87)"/>
<path d="M0 0 C1.32 0.33 2.64 0.66 4 1 C3.67 1.99 3.34 2.98 3 4 C4.65 4 6.3 4 8 4 C6.35830472 6.02054804 4.69088222 8.02043058 3 10 C2.67 10 2.34 10 2 10 C2 7.03 2 4.06 2 1 C1.34 0.67 0.68 0.34 0 0 Z " fill="#C9D5DF" transform="translate(1,85)"/>
<path d="M0 0 C0.33 0.66 0.66 1.32 1 2 C3.02463255 2.65213292 3.02463255 2.65213292 5 3 C5 3.66 5 4.32 5 5 C0.71 5 -3.58 5 -8 5 C-8 4.67 -8 4.34 -8 4 C-5.36 3.34 -2.72 2.68 0 2 C0 1.34 0 0.68 0 0 Z " fill="#C0CED7" transform="translate(80,81)"/>
<path d="M0 0 C0.33 0 0.66 0 1 0 C1.1953125 1.98567708 1.390625 3.97135417 1.5859375 5.95703125 C1.92665391 8.29988142 1.92665391 8.29988142 4 11 C3.34 11.66 2.68 12.32 2 13 C0.68 12.67 -0.64 12.34 -2 12 C-1.34 8.04 -0.68 4.08 0 0 Z " fill="#D9E5EF" transform="translate(215,16)"/>
<path d="M0 0 C2.01822917 0.29296875 4.03645833 0.5859375 6.0546875 0.87890625 C8.08140667 1.1684297 8.08140667 1.1684297 10 0 C10.66 0.66 11.32 1.32 12 2 C10 4 10 4 8.125 4.01171875 C7.42375 3.90472656 6.7225 3.79773438 6 3.6875 C4.948125 3.53861328 4.948125 3.53861328 3.875 3.38671875 C2 3 2 3 0 2 C0 1.34 0 0.68 0 0 Z " fill="#19497B" transform="translate(200,24)"/>
<path d="M0 0 C0.99 0.33 1.98 0.66 3 1 C2.50168276 4.68754757 1.89932357 6.60490662 -1 9 C-1 8.01 -1 7.02 -1 6 C-1.99 6.495 -1.99 6.495 -3 7 C-1.125 2.25 -1.125 2.25 0 0 Z " fill="#B4B7BA" transform="translate(229,16)"/>
<path d="M0 0 C0.33 0 0.66 0 1 0 C1.144375 1.11375 1.28875 2.2275 1.4375 3.375 C1.78372035 6.82142047 1.78372035 6.82142047 3 9 C1.68 9.33 0.36 9.66 -1 10 C-1 9.34 -1 8.68 -1 8 C-1.66 7.67 -2.32 7.34 -3 7 C-3 5.02 -3 3.04 -3 1 C-2.67 1 -2.34 1 -2 1 C-2 2.65 -2 4.3 -2 6 C-1.34 6 -0.68 6 0 6 C0 4.02 0 2.04 0 0 Z M2 5 C2.66 5 3.32 5 4 5 C3.67 5.66 3.34 6.32 3 7 C2.67 6.34 2.34 5.68 2 5 Z " fill="#D8E2E5" transform="translate(3,98)"/>
<path d="M0 0 C0.66 0.33 1.32 0.66 2 1 C1.01 3.64 0.02 6.28 -1 9 C-0.34 9.33 0.32 9.66 1 10 C0.01 10 -0.98 10 -2 10 C-2 9.01 -2 8.02 -2 7 C-2.66 7 -3.32 7 -4 7 C-3.39816251 4.97954558 -2.72693904 2.97888961 -2 1 C-1.34 0.67 -0.68 0.34 0 0 Z " fill="#E0EBEE" transform="translate(24,95)"/>
<path d="M0 0 C0.66 0 1.32 0 2 0 C0.4422692 3.82352106 -1.91595258 6.29205593 -5 9 C-5.99 9 -6.98 9 -8 9 C-8 8.34 -8 7.68 -8 7 C-7.01 6.67 -6.02 6.34 -5 6 C-4.26676204 3.98491642 -4.26676204 3.98491642 -4 2 C-2.68 2 -1.36 2 0 2 C0 1.34 0 0.68 0 0 Z " fill="#E3ECF1" transform="translate(77,91)"/>
<path d="M0 0 C4.7361809 3.27889447 4.7361809 3.27889447 5.9375 6.5625 C6 9 6 9 4 12 C3.51801537 10.75108386 3.03954323 9.50081192 2.5625 8.25 C2.29566406 7.55390625 2.02882812 6.8578125 1.75390625 6.140625 C1.03853307 4.10940997 0.48634348 2.0964709 0 0 Z " fill="#4A658B" transform="translate(207,7)"/>
<path d="M0 0 C0.99 0 1.98 0 3 0 C4.6875 2 4.6875 2 6 4 C2.535 5.485 2.535 5.485 -1 7 C-0.814375 6.360625 -0.62875 5.72125 -0.4375 5.0625 C-0.293125 4.381875 -0.14875 3.70125 0 3 C-0.33 2.67 -0.66 2.34 -1 2 C-0.67 1.34 -0.34 0.68 0 0 Z " fill="#F6FAF7" transform="translate(163,80)"/>
<path d="M0 0 C2.97 0.495 2.97 0.495 6 1 C6 3.31 6 5.62 6 8 C3.33264727 5.51047079 1.44253657 3.36591866 0 0 Z " fill="#E2F4F6" transform="translate(54,91)"/>
<path d="M0 0 C0.99 1.32 1.98 2.64 3 4 C2.01 4 1.02 4 0 4 C-0.99 7.465 -0.99 7.465 -2 11 C-3.06546953 7.8035914 -3.07427838 5.34252724 -3 2 C-2.01 2 -1.02 2 0 2 C0 1.34 0 0.68 0 0 Z " fill="#DEE7ED" transform="translate(29,82)"/>
<path d="M0 0 C0.66 1.32 1.32 2.64 2 4 C1.01 5.485 1.01 5.485 0 7 C-0.24055468 9.05709596 -0.24055468 9.05709596 -0.125 11.1875 C-0.08375 12.445625 -0.0425 13.70375 0 15 C-0.66 14.67 -1.32 14.34 -2 14 C-2.05437607 12.41705218 -2.09296271 10.83355744 -2.125 9.25 C-2.14820313 8.36828125 -2.17140625 7.4865625 -2.1953125 6.578125 C-1.99139502 3.8864142 -1.36551721 2.30095026 0 0 Z " fill="#0B305B" transform="translate(182,10)"/>
<path d="M0 0 C0.66 0.99 1.32 1.98 2 3 C0 5 -2 7 -4 9 C-4.8125 7.3125 -4.8125 7.3125 -5 5 C-2.5625 2.25 -2.5625 2.25 0 0 Z " fill="#E1EFF5" transform="translate(14,87)"/>
<path d="M0 0 C2.01822917 0.06510417 4.03645833 0.13020833 6.0546875 0.1953125 C6.0546875 0.5253125 6.0546875 0.8553125 6.0546875 1.1953125 C3.7446875 1.1953125 1.4346875 1.1953125 -0.9453125 1.1953125 C-1.6053125 3.1753125 -2.2653125 5.1553125 -2.9453125 7.1953125 C-3.6053125 7.1953125 -4.2653125 7.1953125 -4.9453125 7.1953125 C-3.87057023 0.38861147 -3.87057023 0.38861147 0 0 Z " fill="#131F33" transform="translate(27.9453125,96.8046875)"/>
<path d="M0 0 C0.99 1.32 1.98 2.64 3 4 C2.67 4.66 2.34 5.32 2 6 C0.0625 6.5625 0.0625 6.5625 -2 7 C-2.99 7.495 -2.99 7.495 -4 8 C-3.50168276 4.31245243 -2.89932357 2.39509338 0 0 Z " fill="#D8DDE3" transform="translate(13,81)"/>
<path d="M0 0 C-3 2 -3 2 -5 2 C-5 2.99 -5 3.98 -5 5 C-6.32 5.33 -7.64 5.66 -9 6 C-8.6875 4.125 -8.6875 4.125 -8 2 C-4.77208445 -0.1519437 -3.71599191 -0.20086443 0 0 Z " fill="#153558" transform="translate(195,3)"/>
<path d="M0 0 C0.66 0.66 1.32 1.32 2 2 C0.7391988 3.03319813 -0.53403258 4.05124379 -1.8125 5.0625 C-2.87404297 5.91521484 -2.87404297 5.91521484 -3.95703125 6.78515625 C-4.63121094 7.18605469 -5.30539063 7.58695313 -6 8 C-6.99 7.67 -7.98 7.34 -9 7 C-7.625 5.5 -7.625 5.5 -6 4 C-5.34 4 -4.68 4 -4 4 C-4 3.34 -4 2.68 -4 2 C-2.68 1.34 -1.36 0.68 0 0 Z " fill="#DEEEF6" transform="translate(188,2)"/>
<path d="M0 0 C2.99324263 1.0975223 3.84610901 1.67682892 5.25 4.625 C5.4975 5.40875 5.745 6.1925 6 7 C5.01 7 4.02 7 3 7 C3 6.01 3 5.02 3 4 C2.01 3.67 1.02 3.34 0 3 C0 2.01 0 1.02 0 0 Z " fill="#DBE6EF" transform="translate(5,95)"/>
<path d="M0 0 C2.3431213 0.25561323 4.67843403 0.59270772 7 1 C7.33 1.66 7.66 2.32 8 3 C8.99 3.66 9.98 4.32 11 5 C4.6 4.50769231 4.6 4.50769231 1.5625 1.9375 C1.046875 1.298125 0.53125 0.65875 0 0 Z " fill="#B2BCBD" transform="translate(71,52)"/>
<path d="M0 0 C0.99 0 1.98 0 3 0 C3 1.65 3 3.3 3 5 C3.66 5.33 4.32 5.66 5 6 C3.35 6 1.7 6 0 6 C0 4.02 0 2.04 0 0 Z " fill="#D6E5EC" transform="translate(214,96)"/>
<path d="M0 0 C2.125 0.9375 2.125 0.9375 4 2 C4 3.65 4 5.3 4 7 C3.01 7 2.02 7 1 7 C1 5.68 1 4.36 1 3 C0.01 2.34 -0.98 1.68 -2 1 C-1.34 0.67 -0.68 0.34 0 0 Z " fill="#111E31" transform="translate(198,86)"/>
<path d="M0 0 C0.99 0.33 1.98 0.66 3 1 C4.231394 4.69418201 3.64432764 7.2056261 3 11 C2.01 10.34 1.02 9.68 0 9 C0.185625 7.88625 0.37125 6.7725 0.5625 5.625 C1.31680657 2.17431139 1.31680657 2.17431139 0 0 Z " fill="#D7E6EF" transform="translate(175,86)"/>
<path d="M0 0 C2.62187494 1.04874998 3.79371361 1.64931313 5.25 4.125 C5.4975 4.74375 5.745 5.3625 6 6 C5.34 6.66 4.68 7.32 4 8 C0 1.125 0 1.125 0 0 Z " fill="#1F2F41" transform="translate(50,88)"/>
<path d="M0 0 C-0.33 0.66 -0.66 1.32 -1 2 C-3.64860427 2.59355614 -6.29197322 2.74209269 -9 3 C-5.83583464 -0.30799106 -4.50236011 -1.35070803 0 0 Z " fill="#B1BABB" transform="translate(204,43)"/>
<path d="M0 0 C0.66 0 1.32 0 2 0 C3.8597711 2.59240819 5.57205423 5.14410847 7 8 C4.50638429 6.79618552 2.31856917 5.54571278 0 4 C0 2.68 0 1.36 0 0 Z " fill="#355C88" transform="translate(194,14)"/>
<path d="M0 0 C0.99 0 1.98 0 3 0 C3 1.32 3 2.64 3 4 C3.66 4.33 4.32 4.66 5 5 C3.35 5 1.7 5 0 5 C0 3.35 0 1.7 0 0 Z " fill="#EDFDFE" transform="translate(117,88)"/>
<path d="M0 0 C2.3773161 2.3773161 2.67028521 3.70285207 3 7 C2.34 7.66 1.68 8.32 1 9 C0.87625 7.865625 0.7525 6.73125 0.625 5.5625 C0.41875 4.386875 0.2125 3.21125 0 2 C-0.66 1.67 -1.32 1.34 -2 1 C-1.34 0.67 -0.68 0.34 0 0 Z " fill="#24324B" transform="translate(32,86)"/>
<path d="M0 0 C1.65 0 3.3 0 5 0 C5 2 5 2 3.625 3.625 C2 5 2 5 0 5 C0 3.35 0 1.7 0 0 Z " fill="#E7F6FE" transform="translate(166,88)"/>
</svg>
