<svg id="maske" xmlns="http://www.w3.org/2000/svg" viewBox="0 0 1920 1080">
  <defs>
    <mask id="logoMask">
      <!-- Weißer Hintergrund = sichtbar -->
      <rect width="100%" height="100%" fill="white"/>
      <!-- Schwarzes Logo = ausgeschnitten/transparent -->
      <g transform="translate(710, 390) scale(1)">
        <!-- K rechts -->
        <path fill="black" d="m453.43,27.68h73.06l-86.71,119.46,88.18,125.76h-71.05l-87.68-125.76,84.21-119.46Z"/>
        <!-- K mitte -->
        <path fill="black" d="m321.51,27.68h73.05l-86.71,119.46,88.18,125.76h-71.05l-87.68-125.76,84.21-119.46Z"/>
        <!-- G links -->
        <path fill="black" d="m198.35,141.95s54.2-76.67,58.63-83.19C233.47,25.3,191.91,2.29,143.09,2.29,63.93,2.29,2.05,65.13,2.05,143.89s60.72,140.82,145.27,140.82c47.19,0,88.24-19.8,111.61-55.01l-60.57-87.75Z"/>
      </g>
    </mask>
  </defs>
  <!-- Graue Fläche mit Logo-Loch -->
  <rect width="100%" height="100%" fill="#e8e8e8" mask="url(#logoMask)"/>
</svg>
