<svg version="1.1" xmlns="http://www.w3.org/2000/svg" viewBox="0 0 300 271">
    <g>
        <path fill="#892336" d="M41.3,59.7c0,15.4,15.6,22.9,28.9,30.3l14,7.3c7.2,3.9,14.5,7.9,20.6,13.1V36.7c-6.3-1.8-16.3-4-27.9-4
            C52.1,32.7,41.3,44.3,41.3,59.7z"/>
        <path fill="#892336" d="M222.4,34.3h-19.2v60.2h24.6c19.4,0,34.8-6.4,34.8-29.5C262.6,39.3,244.6,34.3,222.4,34.3z"/>
        <path fill="#892336" d="M257,0H43C43,0,0,0,0,43v123.3c0,0,0,43,43,43H257c0,0,43,0,43-43V43C300,43,300,0,257,0z M226.9,106.9
            h-23.6v71.5h0v6.6h-14.2l0-78.1h-70.2v35c0,0,0,0,0,0c0,0,0,0,0,0v43h-14.2v-9.8C94,184.1,78.6,187.6,63,187.6
            c-19.2,0-30.5-3.3-34.3-4v-14.4c5.4,1.7,16.1,5,37.8,5c19.4,0,38-10.9,38.1-30v-0.1c0-21.3-19.2-28.3-29.1-34l-13.5-7.3
            c-14.9-8.3-35-17.3-35-41.9c0-6.9,2.8-41.6,49.7-41.6c9.1,0,18.8,1.3,25.7,2.6l2.2,0h14.2v72.6h70.2l0-72.6h0v0h35
            c18.7,0,52.7,3.4,52.7,42.5C276.8,97.4,253.6,106.9,226.9,106.9z"/>
    </g>
    <g>
        <path fill="#892336" d="M24,259.4c-3.8,0-7-0.8-9.1-2.3v-35.3c1.8-1.3,5-2.3,8.7-2.3c6.9,0,11.2,3.9,11.2,9.9c0,5-3.1,7.8-6,8.7
            v0.1c2.8,0.8,7.2,3.5,7.2,9.9C36.1,256.1,30.4,259.4,24,259.4z M23.6,223c-1.6,0-2.9,0.2-3.9,0.6V237h1.5c6,0,8.8-1.6,8.8-7.1
            C30,225.3,27.9,223,23.6,223z M21.2,240h-1.5v15c1,0.4,2.3,0.7,4.2,0.7c4.2,0,7.2-2.4,7.2-7.5C31.1,242.5,28.4,240,21.2,240z"/>
        <path fill="#892336" d="M44.7,245.5c0.3,6.5,3,10,7.4,10c3.1,0,5.3-1,6.4-1.9l1.2,3.5c-1.6,1.2-4.4,2.3-7.9,2.3
            c-6.9,0-11.6-5-11.6-15.8c0-10.1,4.3-15.6,10.5-15.6c6.4,0,10.1,5.2,9.9,15.6L44.7,245.5z M50.5,231.6c-3.4,0-6,3.9-6,10.7
            l11.2-1.5C55.6,234.6,53.9,231.6,50.5,231.6z"/>
        <path fill="#892336" d="M75.8,232.1c-2-0.8-4.3-0.6-5.8,0.3v26.4h-4.7v-28.6c2.6-1.6,5.1-2.4,11.6-2.3L75.8,232.1z"/>
    </g>
    <g>
        <path fill="#892336" d="M87.4,259.4c-6.6,0-9.8-3.7-9.8-9.1c0-8,6.5-10.4,14.1-11.4v-1.5c0-4.3-2.2-5.9-5.3-5.9
            c-2.5,0-4.8,1-6.1,1.8l-1.1-3.2c1.5-1,4.3-2.3,7.9-2.3c4.7,0,9.1,2.4,9.1,10v19.2C94.1,258.5,91.2,259.4,87.4,259.4z M91.7,241.9
            c-6.2,1-9.6,2.6-9.6,8.3c0,3.9,2.1,6,5.7,6c1.5,0,3-0.4,3.8-0.8L91.7,241.9z"/>
        <path fill="#892336" d="M110,259.1c-3.9,0-6.5-2.6-6.5-7.7v-19.5h-2.7v-3.4h2.7v-7l4.6-1.7v8.7h4.6v3.4h-4.6v19.2
            c0,3.2,1.3,4.3,3.1,4.3c0.5,0,1-0.1,1.5-0.2v3.4C112.2,258.8,111.1,259.1,110,259.1z"/>
    </g>
    <g>
        <path fill="#892336" d="M119.9,245.5c0.3,6.5,3,10,7.4,10c3.1,0,5.3-1,6.4-1.9l1.2,3.5c-1.6,1.2-4.4,2.3-7.9,2.3
            c-6.9,0-11.6-5-11.6-15.8c0-10.1,4.3-15.6,10.5-15.6c6.4,0,10.1,5.2,9.9,15.6L119.9,245.5z M125.7,231.6c-3.4,0-6,3.9-6,10.7
            l11.2-1.5C130.8,234.6,129.1,231.6,125.7,231.6z"/>
        <path fill="#892336" d="M151,232.1c-2-0.8-4.3-0.6-5.8,0.3v26.4h-4.7v-28.6c2.6-1.6,5.1-2.4,11.6-2.3L151,232.1z"/>
    </g>
    <g>
        <path fill="#892336" d="M162.8,271.5c-3.7,0-6.5-0.9-8.2-2.3l1.5-3.5c1.1,0.8,3.5,1.8,6,1.8c4.4,0,6.1-3.3,6.1-7.7V258
            c-1.3,1-2.9,1.4-5,1.4c-6,0-10-5.9-10-15c0-9.7,3.9-16.4,11.8-16.4c3.8,0,6.2,1,7.7,2.3v29.1C172.9,267,169.1,271.5,162.8,271.5z
             M168.2,232.2c-0.7-0.4-2-0.7-3.4-0.7c-4.8,0-6.9,5-6.9,12.7c0,6.8,2.2,11.8,6.3,11.8c1.1,0,2.3-0.1,3.9-1.1V232.2z"/>
        <path fill="#892336" d="M189.8,232.1c-2-0.8-4.3-0.6-5.8,0.3v26.4h-4.7v-28.6c2.6-1.6,5.1-2.4,11.6-2.3L189.8,232.1z"/>
        <path fill="#892336" d="M204.1,259.4c-6.1,0-9.3-3.2-9.3-10v-20.9h4.7V250c0,3.8,1.9,5.7,4.9,5.7c1.8,0,3.2-0.5,4.3-1.2v-26.1
            h4.7v28.4C211.5,258.3,208.4,259.4,204.1,259.4z"/>
    </g>
    <g>
        <path fill="#892336" d="M228.1,259.3c-1.5,0-2.6-0.3-3.5-0.6v12.2h-4.7v-40.7c1.9-1.4,4.7-2.3,8.2-2.3c7.5,0,11.4,5.9,11.4,15.4
            C239.3,253.4,234.6,259.3,228.1,259.3z M227.8,231.3c-1.6,0-2.6,0.3-3.3,0.7v23.4c0.7,0.2,1.6,0.5,2.8,0.5
            c5.7,0,7.4-6.4,7.4-12.4C234.6,236.8,232.8,231.3,227.8,231.3z"/>
        <path fill="#892336" d="M252.5,259.3c-1.5,0-2.6-0.3-3.5-0.6v12.2h-4.7v-40.7c1.9-1.4,4.7-2.3,8.2-2.3c7.5,0,11.4,5.9,11.4,15.4
            C263.8,253.4,259.1,259.3,252.5,259.3z M252.3,231.3c-1.6,0-2.6,0.3-3.3,0.7v23.4c0.7,0.2,1.6,0.5,2.8,0.5
            c5.7,0,7.4-6.4,7.4-12.4C259.1,236.8,257.3,231.3,252.3,231.3z"/>
        <path fill="#892336" d="M272.5,245.5c0.3,6.5,3,10,7.4,10c3.1,0,5.3-1,6.4-1.9l1.2,3.5c-1.6,1.2-4.4,2.3-7.9,2.3
            c-6.9,0-11.6-5-11.6-15.8c0-10.1,4.3-15.6,10.5-15.6c6.4,0,10.1,5.2,9.9,15.6L272.5,245.5z M278.3,231.6c-3.4,0-6,3.9-6,10.7
            l11.2-1.5C283.4,234.6,281.7,231.6,278.3,231.6z"/>
    </g>
</svg>
