<?xml version="1.0" encoding="UTF-8" standalone="no"?>
<!DOCTYPE svg PUBLIC "-//W3C//DTD SVG 1.1//EN" "http://www.w3.org/Graphics/SVG/1.1/DTD/svg11.dtd">
<svg width="100%" height="100%" viewBox="0 0 2325 534" version="1.1" xmlns="http://www.w3.org/2000/svg" xmlns:xlink="http://www.w3.org/1999/xlink" xml:space="preserve" xmlns:serif="http://www.serif.com/" style="fill-rule:evenodd;clip-rule:evenodd;stroke-linejoin:round;stroke-miterlimit:2;">
    <g transform="matrix(1,0,0,1,-55.7333,-81.9517)">
        <g transform="matrix(4.16667,0,0,4.16667,0,0)">
            <g id="Logo-M-G-R-Kopie" serif:id="Logo-M&amp;G&amp;R Kopie">
                <g transform="matrix(1,0,0,1,366.73,89.5469)">
                    <path d="M0,-3.625C-0.612,-3.625 -1.137,-3.311 -1.573,-2.683C-2.009,-2.055 -2.228,-1.16 -2.228,0L2.228,0C2.228,-1.16 2.009,-2.055 1.573,-2.683C1.137,-3.311 0.612,-3.625 0,-3.625" style="fill:rgb(80,113,119);fill-rule:nonzero;"/>
                </g>
                <g transform="matrix(1,0,0,1,321.77,95.7814)">
                    <path d="M0,-9.715C-0.706,-9.715 -1.276,-9.338 -1.713,-8.584C-2.148,-7.83 -2.367,-6.611 -2.367,-4.93C-2.367,-3.151 -2.135,-1.885 -1.671,-1.131C-1.207,-0.377 -0.558,0 0.278,0C0.835,0 1.336,-0.145 1.781,-0.435C1.985,-0.551 2.181,-0.695 2.366,-0.87L2.366,-7.975C2.144,-8.322 1.938,-8.612 1.754,-8.845C1.197,-9.425 0.612,-9.715 0,-9.715" style="fill:rgb(80,113,119);fill-rule:nonzero;"/>
                </g>
                <g transform="matrix(1,0,0,1,260.106,93.6065)">
                    <path d="M0,0.29C0,0.812 0.171,1.232 0.515,1.552C0.858,1.871 1.336,2.03 1.949,2.03C2.524,2.03 3.09,1.74 3.647,1.16C3.907,0.89 4.129,0.6 4.315,0.29L4.315,-1.74L2.366,-1.74C0.789,-1.74 0,-1.063 0,0.29" style="fill:rgb(80,113,119);fill-rule:nonzero;"/>
                </g>
                <g transform="matrix(1,0,0,1,394.987,89.5469)">
                    <path d="M0,-3.625C-0.612,-3.625 -1.137,-3.311 -1.573,-2.683C-2.009,-2.055 -2.228,-1.16 -2.228,0L2.228,0C2.228,-1.16 2.009,-2.055 1.573,-2.683C1.137,-3.311 0.612,-3.625 0,-3.625" style="fill:rgb(80,113,119);fill-rule:nonzero;"/>
                </g>
                <g transform="matrix(1,0,0,1,236.582,89.5469)">
                    <path d="M0,-3.625C-0.612,-3.625 -1.137,-3.311 -1.573,-2.683C-2.009,-2.055 -2.227,-1.16 -2.227,0L2.228,0C2.228,-1.16 2.009,-2.055 1.573,-2.683C1.137,-3.311 0.613,-3.625 0,-3.625" style="fill:rgb(80,113,119);fill-rule:nonzero;"/>
                </g>
                <g transform="matrix(1,0,0,1,164.198,89.5469)">
                    <path d="M0,-3.625C-0.612,-3.625 -1.137,-3.311 -1.573,-2.683C-2.009,-2.055 -2.227,-1.16 -2.227,0L2.228,0C2.228,-1.16 2.009,-2.055 1.573,-2.683C1.137,-3.311 0.613,-3.625 0,-3.625" style="fill:rgb(80,113,119);fill-rule:nonzero;"/>
                </g>
                <g transform="matrix(1,0,0,1,195.1,89.5469)">
                    <path d="M0,-3.625C-0.612,-3.625 -1.137,-3.311 -1.573,-2.683C-2.009,-2.055 -2.227,-1.16 -2.227,0L2.228,0C2.228,-1.16 2.009,-2.055 1.573,-2.683C1.137,-3.311 0.613,-3.625 0,-3.625" style="fill:rgb(80,113,119);fill-rule:nonzero;"/>
                </g>
                <g transform="matrix(1,0,0,1,221.548,95.6369)">
                    <path d="M0,-9.715C-0.483,-9.715 -0.984,-9.57 -1.503,-9.28L-2.088,-8.845L-2.088,-1.74C-1.865,-1.393 -1.662,-1.103 -1.476,-0.87C-0.919,-0.29 -0.334,0 0.278,0C0.983,0 1.554,-0.377 1.99,-1.131C2.426,-1.885 2.645,-3.104 2.645,-4.785C2.645,-6.564 2.412,-7.83 1.949,-8.584C1.484,-9.338 0.835,-9.715 0,-9.715" style="fill:rgb(80,113,119);fill-rule:nonzero;"/>
                </g>
                <g transform="matrix(1,0,0,1,351.141,95.7814)">
                    <path d="M0,-9.715C-0.706,-9.715 -1.276,-9.338 -1.713,-8.584C-2.148,-7.83 -2.367,-6.611 -2.367,-4.93C-2.367,-3.151 -2.135,-1.885 -1.671,-1.131C-1.207,-0.377 -0.558,0 0.278,0C0.835,0 1.336,-0.145 1.781,-0.435C1.985,-0.551 2.181,-0.695 2.366,-0.87L2.366,-7.975C2.144,-8.322 1.938,-8.612 1.754,-8.845C1.197,-9.425 0.612,-9.715 0,-9.715" style="fill:rgb(80,113,119);fill-rule:nonzero;"/>
                </g>
                <g transform="matrix(1,0,0,1,562.162,79.2356)">
                    <path d="M0,18.866L-3.897,18.866L-3.897,9.876L-9.744,9.876L-9.744,18.866L-13.642,18.866L-13.642,-1.433L-9.744,-1.433L-9.744,7.266L-3.897,7.266L-3.897,-1.433L0,-1.433L0,18.866ZM-18.791,17.227C-19.812,18.513 -21.157,19.156 -22.827,19.156C-23.923,19.156 -24.859,18.818 -25.64,18.141C-26.029,17.832 -26.345,17.494 -26.586,17.126L-26.726,17.126L-27.004,18.866L-29.787,18.866L-29.787,-0.273L-28.674,-1.433L-25.89,-1.433L-25.89,4.946C-25.705,4.811 -25.454,4.666 -25.139,4.511C-24.47,4.221 -23.793,4.076 -23.105,4.076C-21.306,4.076 -19.881,4.714 -18.832,5.99C-17.784,7.266 -17.26,9.141 -17.26,11.616C-17.26,14.071 -17.771,15.942 -18.791,17.227M-33.686,18.866L-37.583,18.866L-37.583,9.586C-37.583,8.697 -37.755,8.015 -38.098,7.542C-38.441,7.068 -38.873,6.831 -39.393,6.831C-39.894,6.831 -40.395,7.073 -40.896,7.556C-41.026,7.691 -41.221,7.933 -41.48,8.281L-41.48,18.866L-45.378,18.866L-45.378,9.586C-45.378,8.697 -45.55,8.015 -45.894,7.542C-46.236,7.068 -46.668,6.831 -47.188,6.831C-47.782,6.831 -48.302,7.121 -48.747,7.701C-48.988,8.03 -49.164,8.32 -49.275,8.571L-49.275,18.866L-53.173,18.866L-53.173,4.366L-50.39,4.366L-50.111,6.106L-49.972,6.106C-49.768,5.797 -49.471,5.459 -49.081,5.091C-48.283,4.415 -47.42,4.076 -46.491,4.076C-45.359,4.076 -44.413,4.415 -43.652,5.091C-43.318,5.42 -43.059,5.758 -42.872,6.106C-42.612,5.777 -42.251,5.439 -41.787,5.091C-40.747,4.415 -39.718,4.076 -38.696,4.076C-37.138,4.076 -35.912,4.559 -35.021,5.526C-34.131,6.493 -33.686,7.846 -33.686,9.586L-33.686,18.866ZM-65.005,18.431C-66.007,18.914 -66.981,19.156 -67.928,19.156C-69.524,19.156 -70.781,18.702 -71.7,17.793C-72.619,16.885 -73.078,15.695 -73.078,14.226L-73.078,6.976L-74.888,6.976L-74.888,5.236L-70.712,0.886L-69.181,0.886L-69.181,4.366L-65.979,4.366L-65.979,6.976L-69.181,6.976L-69.181,14.226C-69.181,15 -69.042,15.58 -68.764,15.966C-68.485,16.353 -68.114,16.546 -67.649,16.546C-67.093,16.546 -66.546,16.353 -66.007,15.966C-65.767,15.792 -65.524,15.599 -65.283,15.386L-65.005,15.386L-63.752,17.706C-64.235,18.035 -64.652,18.276 -65.005,18.431M-75.444,2.046C-75.686,1.834 -75.927,1.64 -76.168,1.466C-76.706,1.08 -77.254,0.886 -77.811,0.886C-78.312,0.886 -78.738,1.094 -79.091,1.51C-79.443,1.926 -79.62,2.491 -79.62,3.206L-79.62,4.366L-76.14,4.366L-76.14,6.976L-79.62,6.976L-79.62,18.866L-83.518,18.866L-83.518,6.976L-85.049,6.976L-85.049,4.366L-83.518,4.366L-83.518,3.206C-83.518,1.718 -83.04,0.523 -82.084,-0.375C-81.128,-1.274 -79.797,-1.723 -78.089,-1.723C-77.217,-1.723 -76.242,-1.481 -75.165,-0.999C-74.813,-0.843 -74.396,-0.602 -73.913,-0.273L-75.165,2.046L-75.444,2.046ZM-87.555,18.866L-90.338,18.866L-90.617,17.126L-90.756,17.126C-91.071,17.552 -91.387,17.89 -91.702,18.141C-92.482,18.818 -93.419,19.156 -94.515,19.156C-96.147,19.156 -97.414,18.746 -98.314,17.924C-99.215,17.102 -99.665,16.014 -99.665,14.661C-99.665,13.211 -99.159,12.075 -98.147,11.254C-97.136,10.432 -95.554,10.021 -93.4,10.021L-91.452,10.021L-91.452,9.586C-91.452,8.561 -91.665,7.822 -92.092,7.368C-92.52,6.914 -93.188,6.686 -94.097,6.686C-94.876,6.686 -95.591,6.88 -96.24,7.266C-96.501,7.401 -96.76,7.595 -97.02,7.846L-97.298,7.846L-98.551,5.526C-98.105,5.217 -97.67,4.975 -97.242,4.801C-96.036,4.318 -94.895,4.076 -93.818,4.076C-92.52,4.076 -91.396,4.313 -90.449,4.787C-89.503,5.261 -88.784,5.913 -88.292,6.744C-87.801,7.576 -87.555,8.523 -87.555,9.586L-87.555,18.866ZM-102.728,18.866L-106.625,18.866L-106.625,9.586C-106.625,8.678 -106.811,7.991 -107.182,7.527C-107.554,7.063 -108.063,6.831 -108.713,6.831C-109.325,6.831 -109.91,7.121 -110.467,7.701C-110.652,7.933 -110.856,8.223 -111.079,8.571L-111.079,18.866L-114.977,18.866L-114.977,-0.273L-113.863,-1.433L-111.079,-1.433L-111.079,5.381C-110.895,5.188 -110.625,4.975 -110.272,4.743C-109.53,4.299 -108.778,4.076 -108.017,4.076C-106.328,4.076 -105.024,4.554 -104.105,5.512C-103.187,6.469 -102.728,7.827 -102.728,9.586L-102.728,18.866ZM-118.957,18.431C-120.071,18.914 -121.203,19.156 -122.354,19.156C-126.901,19.156 -129.175,16.643 -129.175,11.616C-129.175,9.103 -128.618,7.218 -127.504,5.961C-126.391,4.705 -124.767,4.076 -122.632,4.076C-121.574,4.076 -120.442,4.318 -119.235,4.801C-118.864,4.956 -118.419,5.197 -117.899,5.526L-119.152,7.846L-119.431,7.846C-119.69,7.595 -119.95,7.401 -120.21,7.266C-120.86,6.88 -121.574,6.686 -122.354,6.686C-123.3,6.686 -124.024,7.058 -124.525,7.803C-125.026,8.547 -125.277,9.818 -125.277,11.616C-125.277,13.433 -125.018,14.71 -124.497,15.444C-123.978,16.178 -123.171,16.546 -122.075,16.546C-121.296,16.546 -120.581,16.353 -119.932,15.966C-119.672,15.831 -119.412,15.637 -119.152,15.386L-118.874,15.386L-117.621,17.706C-118.141,18.035 -118.586,18.276 -118.957,18.431M-132.766,17.938C-133.769,18.75 -135.309,19.156 -137.388,19.156C-138.854,19.156 -140.227,18.914 -141.508,18.431C-141.99,18.257 -142.52,18.015 -143.095,17.706L-141.842,15.386L-141.563,15.386C-141.211,15.618 -140.877,15.811 -140.562,15.966C-139.781,16.353 -138.863,16.546 -137.805,16.546C-136.877,16.546 -136.204,16.396 -135.786,16.096C-135.369,15.797 -135.16,15.405 -135.16,14.922C-135.16,14.458 -135.393,14.091 -135.856,13.82C-136.32,13.55 -137.035,13.26 -138,12.95C-139.021,12.602 -139.847,12.273 -140.478,11.964C-141.108,11.655 -141.656,11.21 -142.12,10.63C-142.584,10.05 -142.816,9.315 -142.816,8.426C-142.816,7.131 -142.324,6.082 -141.341,5.279C-140.357,4.477 -138.9,4.076 -136.97,4.076C-135.801,4.076 -134.538,4.318 -133.184,4.801C-132.72,4.975 -132.219,5.217 -131.68,5.526L-132.933,7.846L-133.211,7.846C-133.545,7.595 -133.861,7.401 -134.158,7.266C-134.937,6.88 -135.782,6.686 -136.691,6.686C-137.415,6.686 -137.968,6.827 -138.348,7.106C-138.729,7.387 -138.919,7.73 -138.919,8.136C-138.919,8.581 -138.691,8.938 -138.236,9.209C-137.782,9.48 -137.062,9.779 -136.079,10.108C-135.096,10.437 -134.278,10.761 -133.629,11.08C-132.979,11.398 -132.423,11.848 -131.958,12.428C-131.495,13.008 -131.263,13.743 -131.263,14.632C-131.263,16.024 -131.764,17.126 -132.766,17.938M-146.017,18.866L-149.914,18.866L-149.914,-0.273L-148.801,-1.433L-146.017,-1.433L-146.017,18.866ZM-153.951,18.866L-157.849,18.866L-157.849,-0.273L-156.735,-1.433L-153.951,-1.433L-153.951,18.866ZM-161.05,12.051L-161.885,12.921L-169.402,12.921C-169.402,15.338 -168.288,16.546 -166.062,16.546C-165.281,16.546 -164.567,16.353 -163.917,15.966C-163.657,15.831 -163.398,15.637 -163.138,15.386L-162.859,15.386L-161.606,17.706C-162.127,18.035 -162.572,18.276 -162.943,18.431C-164.057,18.914 -165.188,19.156 -166.34,19.156C-170.979,19.156 -173.3,16.643 -173.3,11.616C-173.3,9.141 -172.762,7.266 -171.685,5.99C-170.608,4.714 -169.105,4.076 -167.175,4.076C-165.264,4.076 -163.765,4.695 -162.679,5.932C-161.593,7.17 -161.05,8.968 -161.05,11.326L-161.05,12.051ZM-176.891,17.938C-177.894,18.75 -179.434,19.156 -181.513,19.156C-182.979,19.156 -184.352,18.914 -185.633,18.431C-186.115,18.257 -186.645,18.015 -187.22,17.706L-185.967,15.386L-185.688,15.386C-185.336,15.618 -185.002,15.811 -184.687,15.966C-183.906,16.353 -182.988,16.546 -181.93,16.546C-181.002,16.546 -180.329,16.396 -179.911,16.096C-179.494,15.797 -179.285,15.405 -179.285,14.922C-179.285,14.458 -179.518,14.091 -179.981,13.82C-180.445,13.55 -181.16,13.26 -182.125,12.95C-183.146,12.602 -183.972,12.273 -184.603,11.964C-185.233,11.655 -185.781,11.21 -186.245,10.63C-186.709,10.05 -186.941,9.315 -186.941,8.426C-186.941,7.131 -186.449,6.082 -185.466,5.279C-184.482,4.477 -183.025,4.076 -181.095,4.076C-179.926,4.076 -178.663,4.318 -177.309,4.801C-176.845,4.975 -176.344,5.217 -175.805,5.526L-177.058,7.846L-177.336,7.846C-177.67,7.595 -177.986,7.401 -178.283,7.266C-179.062,6.88 -179.907,6.686 -180.816,6.686C-181.54,6.686 -182.093,6.827 -182.473,7.106C-182.854,7.387 -183.044,7.73 -183.044,8.136C-183.044,8.581 -182.816,8.938 -182.361,9.209C-181.907,9.48 -181.187,9.779 -180.204,10.108C-179.221,10.437 -178.403,10.761 -177.754,11.08C-177.104,11.398 -176.548,11.848 -176.083,12.428C-175.62,13.008 -175.388,13.743 -175.388,14.632C-175.388,16.024 -175.889,17.126 -176.891,17.938M-189.307,12.051L-190.142,12.921L-197.659,12.921C-197.659,15.338 -196.545,16.546 -194.318,16.546C-193.538,16.546 -192.824,16.353 -192.174,15.966C-191.914,15.831 -191.655,15.637 -191.395,15.386L-191.116,15.386L-189.863,17.706C-190.384,18.035 -190.829,18.276 -191.2,18.431C-192.313,18.914 -193.445,19.156 -194.597,19.156C-199.236,19.156 -201.557,16.643 -201.557,11.616C-201.557,9.141 -201.019,7.266 -199.941,5.99C-198.865,4.714 -197.362,4.076 -195.432,4.076C-193.521,4.076 -192.021,4.695 -190.936,5.932C-189.85,7.17 -189.307,8.968 -189.307,11.326L-189.307,12.051ZM-204.758,19.156C-204.758,20.277 -205.018,21.277 -205.537,22.157C-206.058,23.037 -206.809,23.723 -207.792,24.217C-208.776,24.71 -209.945,24.956 -211.3,24.956C-212.544,24.956 -213.723,24.714 -214.836,24.231C-215.263,24.057 -215.709,23.815 -216.172,23.506L-214.919,21.186L-214.641,21.186C-214.4,21.398 -214.131,21.592 -213.834,21.766C-213.185,22.152 -212.433,22.346 -211.579,22.346C-210.67,22.346 -209.955,22.07 -209.435,21.519C-208.916,20.969 -208.655,20.18 -208.655,19.156L-208.655,18.286C-208.916,18.479 -209.175,18.625 -209.435,18.721C-210.104,19.011 -210.771,19.156 -211.439,19.156C-213.24,19.156 -214.664,18.518 -215.713,17.242C-216.762,15.966 -217.286,14.091 -217.286,11.616C-217.286,9.161 -216.775,7.291 -215.755,6.005C-214.734,4.719 -213.389,4.076 -211.718,4.076C-210.716,4.076 -209.778,4.415 -208.906,5.091C-208.535,5.42 -208.22,5.758 -207.959,6.106L-207.82,6.106L-207.542,4.366L-204.758,4.366L-204.758,19.156ZM-220.876,17.938C-221.879,18.75 -223.419,19.156 -225.498,19.156C-226.964,19.156 -228.337,18.914 -229.618,18.431C-230.101,18.257 -230.63,18.015 -231.205,17.706L-229.952,15.386L-229.674,15.386C-229.321,15.618 -228.987,15.811 -228.672,15.966C-227.892,16.353 -226.974,16.546 -225.915,16.546C-224.987,16.546 -224.314,16.396 -223.896,16.096C-223.479,15.797 -223.271,15.405 -223.271,14.922C-223.271,14.458 -223.503,14.091 -223.967,13.82C-224.431,13.55 -225.146,13.26 -226.11,12.95C-227.131,12.602 -227.957,12.273 -228.588,11.964C-229.219,11.655 -229.767,11.21 -230.23,10.63C-230.694,10.05 -230.927,9.315 -230.927,8.426C-230.927,7.131 -230.435,6.082 -229.451,5.279C-228.468,4.477 -227.011,4.076 -225.08,4.076C-223.911,4.076 -222.648,4.318 -221.294,4.801C-220.83,4.975 -220.329,5.217 -219.79,5.526L-221.043,7.846L-221.321,7.846C-221.655,7.595 -221.972,7.401 -222.269,7.266C-223.048,6.88 -223.893,6.686 -224.802,6.686C-225.525,6.686 -226.078,6.827 -226.458,7.106C-226.839,7.387 -227.029,7.73 -227.029,8.136C-227.029,8.581 -226.802,8.938 -226.347,9.209C-225.893,9.48 -225.173,9.779 -224.189,10.108C-223.206,10.437 -222.389,10.761 -221.739,11.08C-221.09,11.398 -220.533,11.848 -220.068,12.428C-219.605,13.008 -219.373,13.743 -219.373,14.632C-219.373,16.024 -219.874,17.126 -220.876,17.938M-234.128,19.156C-234.128,20.277 -234.388,21.277 -234.907,22.157C-235.428,23.037 -236.179,23.723 -237.162,24.217C-238.146,24.71 -239.315,24.956 -240.67,24.956C-241.914,24.956 -243.093,24.714 -244.206,24.231C-244.633,24.057 -245.079,23.815 -245.542,23.506L-244.289,21.186L-244.011,21.186C-243.771,21.398 -243.501,21.592 -243.204,21.766C-242.555,22.152 -241.803,22.346 -240.949,22.346C-240.04,22.346 -239.325,22.07 -238.805,21.519C-238.286,20.969 -238.025,20.18 -238.025,19.156L-238.025,18.286C-238.286,18.479 -238.545,18.625 -238.805,18.721C-239.474,19.011 -240.142,19.156 -240.81,19.156C-242.61,19.156 -244.034,18.518 -245.083,17.242C-246.132,15.966 -246.656,14.091 -246.656,11.616C-246.656,9.161 -246.146,7.291 -245.125,6.005C-244.104,4.719 -242.759,4.076 -241.088,4.076C-240.086,4.076 -239.148,4.415 -238.276,5.091C-237.905,5.42 -237.59,5.758 -237.329,6.106L-237.19,6.106L-236.912,4.366L-234.128,4.366L-234.128,19.156ZM-249.719,18.866L-253.616,18.866L-253.616,9.586C-253.616,8.678 -253.802,7.991 -254.173,7.527C-254.545,7.063 -255.055,6.831 -255.704,6.831C-256.316,6.831 -256.901,7.121 -257.458,7.701C-257.644,7.933 -257.848,8.223 -258.07,8.571L-258.07,18.866L-261.968,18.866L-261.968,4.366L-259.185,4.366L-258.906,6.106L-258.767,6.106C-258.581,5.816 -258.266,5.478 -257.82,5.091C-256.948,4.415 -256.011,4.076 -255.008,4.076C-253.319,4.076 -252.016,4.554 -251.097,5.512C-250.178,6.469 -249.719,7.827 -249.719,9.586L-249.719,18.866ZM-266.004,18.866L-268.788,18.866L-269.066,17.126L-269.205,17.126C-269.521,17.552 -269.837,17.89 -270.152,18.141C-270.932,18.818 -271.869,19.156 -272.964,19.156C-274.653,19.156 -275.957,18.678 -276.875,17.72C-277.794,16.763 -278.253,15.405 -278.253,13.646L-278.253,4.366L-274.355,4.366L-274.355,13.646C-274.355,14.555 -274.171,15.241 -273.799,15.705C-273.428,16.169 -272.918,16.401 -272.268,16.401C-271.655,16.401 -271.07,16.111 -270.514,15.531C-270.328,15.299 -270.124,15.009 -269.901,14.661L-269.901,4.366L-266.004,4.366L-266.004,18.866ZM-281.595,18.431C-282.597,18.914 -283.571,19.156 -284.518,19.156C-286.113,19.156 -287.371,18.702 -288.29,17.793C-289.208,16.885 -289.668,15.695 -289.668,14.226L-289.668,6.976L-291.478,6.976L-291.478,5.236L-287.301,0.886L-285.77,0.886L-285.77,4.366L-282.569,4.366L-282.569,6.976L-285.77,6.976L-285.77,14.226C-285.77,15 -285.631,15.58 -285.353,15.966C-285.074,16.353 -284.703,16.546 -284.239,16.546C-283.682,16.546 -283.135,16.353 -282.597,15.966C-282.356,15.792 -282.114,15.599 -281.872,15.386L-281.595,15.386L-280.341,17.706C-280.825,18.035 -281.241,18.276 -281.595,18.431M-293.843,18.866L-296.627,18.866L-296.906,17.126L-297.045,17.126C-297.361,17.552 -297.676,17.89 -297.992,18.141C-298.771,18.818 -299.708,19.156 -300.803,19.156C-302.437,19.156 -303.704,18.746 -304.604,17.924C-305.504,17.102 -305.954,16.014 -305.954,14.661C-305.954,13.211 -305.448,12.075 -304.437,11.254C-303.425,10.432 -301.843,10.021 -299.69,10.021L-297.741,10.021L-297.741,9.586C-297.741,8.561 -297.955,7.822 -298.381,7.368C-298.809,6.914 -299.477,6.686 -300.386,6.686C-301.166,6.686 -301.88,6.88 -302.529,7.266C-302.79,7.401 -303.049,7.595 -303.309,7.846L-303.587,7.846L-304.84,5.526C-304.395,5.217 -303.959,4.975 -303.532,4.801C-302.326,4.318 -301.184,4.076 -300.107,4.076C-298.809,4.076 -297.686,4.313 -296.739,4.787C-295.792,5.261 -295.073,5.913 -294.581,6.744C-294.089,7.576 -293.843,8.523 -293.843,9.586L-293.843,18.866ZM-307.763,7.266L-308.042,7.266C-308.208,7.247 -308.413,7.198 -308.654,7.121C-309.062,7.024 -309.508,6.976 -309.99,6.976C-310.603,6.976 -311.187,7.266 -311.744,7.846C-311.93,8.078 -312.134,8.368 -312.357,8.716L-312.357,18.866L-316.254,18.866L-316.254,4.366L-313.47,4.366L-313.192,6.106L-313.053,6.106C-312.867,5.816 -312.552,5.478 -312.106,5.091C-311.234,4.415 -310.296,4.076 -309.294,4.076C-308.812,4.076 -308.339,4.125 -307.875,4.221C-307.578,4.299 -307.355,4.347 -307.207,4.366L-307.763,7.266ZM-319.456,12.051L-320.291,12.921L-327.808,12.921C-327.808,15.338 -326.694,16.546 -324.467,16.546C-323.687,16.546 -322.973,16.353 -322.323,15.966C-322.063,15.831 -321.804,15.637 -321.543,15.386L-321.265,15.386L-320.012,17.706C-320.532,18.035 -320.978,18.276 -321.349,18.431C-322.462,18.914 -323.595,19.156 -324.745,19.156C-329.385,19.156 -331.705,16.643 -331.705,11.616C-331.705,9.141 -331.167,7.266 -330.09,5.99C-329.014,4.714 -327.511,4.076 -325.581,4.076C-323.669,4.076 -322.17,4.695 -321.084,5.932C-319.999,7.17 -319.456,8.968 -319.456,11.326L-319.456,12.051ZM-335.603,17.227C-336.624,18.513 -337.97,19.156 -339.64,19.156C-340.735,19.156 -341.672,18.818 -342.452,18.141C-342.842,17.832 -343.157,17.494 -343.398,17.126L-343.538,17.126L-343.816,18.866L-346.6,18.866L-346.6,-0.273L-345.486,-1.433L-342.703,-1.433L-342.703,4.946C-342.517,4.811 -342.267,4.666 -341.951,4.511C-341.283,4.221 -340.605,4.076 -339.918,4.076C-338.118,4.076 -336.694,4.714 -335.645,5.99C-334.597,7.266 -334.072,9.141 -334.072,11.616C-334.072,14.071 -334.583,15.942 -335.603,17.227M-349.245,7.266L-349.523,7.266C-349.69,7.247 -349.895,7.198 -350.135,7.121C-350.544,7.024 -350.989,6.976 -351.472,6.976C-352.084,6.976 -352.669,7.266 -353.226,7.846C-353.412,8.078 -353.615,8.368 -353.838,8.716L-353.838,18.866L-357.736,18.866L-357.736,4.366L-354.952,4.366L-354.673,6.106L-354.534,6.106C-354.349,5.816 -354.033,5.478 -353.587,5.091C-352.715,4.415 -351.778,4.076 -350.776,4.076C-350.293,4.076 -349.82,4.125 -349.356,4.221C-349.059,4.299 -348.836,4.347 -348.688,4.366L-349.245,7.266ZM-360.937,12.051L-361.772,12.921L-369.289,12.921C-369.289,15.338 -368.175,16.546 -365.948,16.546C-365.169,16.546 -364.455,16.353 -363.805,15.966C-363.545,15.831 -363.285,15.637 -363.025,15.386L-362.747,15.386L-361.494,17.706C-362.014,18.035 -362.459,18.276 -362.83,18.431C-363.944,18.914 -365.076,19.156 -366.227,19.156C-370.867,19.156 -373.187,16.643 -373.187,11.616C-373.187,9.141 -372.648,7.266 -371.572,5.99C-370.496,4.714 -368.992,4.076 -367.062,4.076C-365.15,4.076 -363.651,4.695 -362.566,5.932C-361.48,7.17 -360.937,8.968 -360.937,11.326L-360.937,12.051ZM-376.388,18.866L-379.172,18.866L-379.45,17.126L-379.59,17.126C-379.905,17.552 -380.221,17.89 -380.536,18.141C-381.316,18.818 -382.253,19.156 -383.348,19.156C-385.037,19.156 -386.341,18.678 -387.26,17.72C-388.178,16.763 -388.638,15.405 -388.638,13.646L-388.638,4.366L-384.74,4.366L-384.74,13.646C-384.74,14.555 -384.555,15.241 -384.183,15.705C-383.812,16.169 -383.302,16.401 -382.652,16.401C-382.04,16.401 -381.455,16.111 -380.898,15.531C-380.713,15.299 -380.508,15.009 -380.286,14.661L-380.286,4.366L-376.388,4.366L-376.388,18.866ZM-391.839,12.051L-392.674,12.921L-400.191,12.921C-400.191,15.338 -399.077,16.546 -396.85,16.546C-396.071,16.546 -395.356,16.353 -394.707,15.966C-394.447,15.831 -394.187,15.637 -393.927,15.386L-393.648,15.386L-392.396,17.706C-392.916,18.035 -393.361,18.276 -393.732,18.431C-394.846,18.914 -395.978,19.156 -397.128,19.156C-401.769,19.156 -404.088,16.643 -404.088,11.616C-404.088,9.141 -403.55,7.266 -402.474,5.99C-401.397,4.714 -399.894,4.076 -397.964,4.076C-396.052,4.076 -394.553,4.695 -393.468,5.932C-392.382,7.17 -391.839,8.968 -391.839,11.326L-391.839,12.051ZM-406.594,18.431C-407.596,18.914 -408.57,19.156 -409.517,19.156C-411.113,19.156 -412.371,18.702 -413.289,17.793C-414.208,16.885 -414.667,15.695 -414.667,14.226L-414.667,6.976L-416.477,6.976L-416.477,5.236L-412.301,0.886L-410.77,0.886L-410.77,4.366L-407.568,4.366L-407.568,6.976L-410.77,6.976L-410.77,14.226C-410.77,15 -410.63,15.58 -410.352,15.966C-410.074,16.353 -409.703,16.546 -409.239,16.546C-408.682,16.546 -408.134,16.353 -407.596,15.966C-407.355,15.792 -407.114,15.599 -406.872,15.386L-406.594,15.386L-405.341,17.706C-405.824,18.035 -406.241,18.276 -406.594,18.431M-418.801,16.357C-419.33,17.237 -420.119,17.924 -421.167,18.417C-422.216,18.91 -423.483,19.156 -424.968,19.156C-426.768,19.156 -428.271,18.895 -429.478,18.373C-430.109,18.122 -430.601,17.851 -430.953,17.561L-429.701,15.241L-429.422,15.241C-429.181,15.454 -428.847,15.676 -428.42,15.908C-427.529,16.334 -426.471,16.546 -425.246,16.546C-424.151,16.546 -423.321,16.285 -422.754,15.763C-422.188,15.241 -421.905,14.536 -421.905,13.646C-421.905,13.086 -422.063,12.597 -422.378,12.181C-422.694,11.766 -423.093,11.408 -423.576,11.108C-424.059,10.809 -424.717,10.456 -425.552,10.05C-426.666,9.509 -427.576,9.002 -428.281,8.527C-428.986,8.053 -429.585,7.43 -430.076,6.657C-430.568,5.884 -430.814,4.927 -430.814,3.786C-430.814,2.762 -430.554,1.829 -430.035,0.987C-429.515,0.146 -428.764,-0.515 -427.78,-0.999C-426.796,-1.481 -425.627,-1.723 -424.272,-1.723C-422.639,-1.723 -421.219,-1.453 -420.012,-0.912C-419.474,-0.699 -418.992,-0.437 -418.564,-0.129L-419.817,2.191L-420.096,2.191C-420.3,2.017 -420.616,1.804 -421.042,1.553C-421.933,1.108 -422.917,0.886 -423.993,0.886C-424.81,0.886 -425.501,1.152 -426.067,1.683C-426.634,2.216 -426.917,2.819 -426.917,3.496C-426.917,4.057 -426.759,4.545 -426.443,4.961C-426.128,5.377 -425.729,5.734 -425.246,6.034C-424.764,6.334 -424.104,6.686 -423.27,7.092C-422.156,7.634 -421.247,8.141 -420.541,8.614C-419.836,9.089 -419.237,9.712 -418.746,10.485C-418.254,11.259 -418.008,12.216 -418.008,13.356C-418.008,14.477 -418.272,15.478 -418.801,16.357M-436.956,27.155L9.073,27.155L9.073,-8.289L-436.956,-8.289L-436.956,27.155Z" style="fill:rgb(80,113,119);fill-rule:nonzero;"/>
                </g>
                <g transform="matrix(1,0,0,1,466.394,93.6065)">
                    <path d="M0,0.29C0,0.812 0.172,1.232 0.516,1.552C0.858,1.871 1.337,2.03 1.949,2.03C2.524,2.03 3.091,1.74 3.647,1.16C3.907,0.89 4.13,0.6 4.315,0.29L4.315,-1.74L2.367,-1.74C0.789,-1.74 0,-1.063 0,0.29" style="fill:rgb(80,113,119);fill-rule:nonzero;"/>
                </g>
                <g transform="matrix(1,0,0,1,538.36,95.6369)">
                    <path d="M0,-9.715C-0.483,-9.715 -0.984,-9.57 -1.504,-9.28L-2.088,-8.845L-2.088,-1.74C-1.865,-1.393 -1.661,-1.103 -1.476,-0.87C-0.919,-0.29 -0.334,0 0.278,0C0.983,0 1.554,-0.377 1.99,-1.131C2.426,-1.885 2.645,-3.104 2.645,-4.785C2.645,-6.564 2.412,-7.83 1.948,-8.584C1.484,-9.338 0.835,-9.715 0,-9.715" style="fill:rgb(80,113,119);fill-rule:nonzero;"/>
                </g>
                <g transform="matrix(1,0,0,1,128.339,123.355)">
                    <path d="M0,19.308C-0.612,19.057 -1.113,18.787 -1.503,18.496L-0.528,16.756L-0.25,16.756C0.01,16.95 0.391,17.172 0.892,17.424C1.894,17.85 2.905,18.063 3.926,18.063C5.169,18.064 6.13,17.751 6.808,17.122C7.486,16.495 7.825,15.65 7.826,14.586C7.826,13.91 7.65,13.334 7.298,12.86C6.945,12.386 6.509,11.995 5.99,11.685C5.47,11.375 4.756,10.998 3.847,10.552C2.751,10.049 1.871,9.579 1.203,9.145C0.535,8.708 -0.035,8.128 -0.508,7.404C-0.981,6.679 -1.217,5.784 -1.216,4.72C-1.216,3.658 -0.979,2.71 -0.505,1.879C-0.031,1.048 0.646,0.397 1.528,-0.078C2.41,-0.549 3.445,-0.787 4.633,-0.786C6.192,-0.785 7.546,-0.513 8.697,0.028C9.198,0.242 9.652,0.503 10.061,0.812L9.085,2.551L8.807,2.551C8.565,2.338 8.232,2.126 7.805,1.913C6.877,1.467 5.913,1.246 4.91,1.245C3.964,1.244 3.17,1.558 2.529,2.186C1.889,2.813 1.568,3.562 1.567,4.432C1.567,5.109 1.743,5.684 2.096,6.158C2.447,6.632 2.884,7.024 3.403,7.333C3.922,7.643 4.637,8.021 5.546,8.465C6.641,8.969 7.522,9.439 8.19,9.873C8.858,10.309 9.428,10.889 9.902,11.615C10.375,12.339 10.611,13.234 10.61,14.297C10.609,16.076 10.051,17.487 8.937,18.53C7.823,19.574 6.245,20.095 4.204,20.094C2.57,20.093 1.169,19.831 0,19.308" style="fill:rgb(80,113,119);fill-rule:nonzero;"/>
                </g>
                <g transform="matrix(1,0,0,1,142.676,122.866)">
                    <path d="M0,20.299L0.008,5.799L2.792,5.8L2.784,20.3L0,20.299ZM0.205,2.986C-0.11,2.656 -0.268,2.241 -0.268,1.738C-0.268,1.236 -0.109,0.82 0.206,0.492C0.521,0.163 0.921,-0.001 1.404,-0.001C1.886,0 2.285,0.164 2.601,0.493C2.916,0.821 3.073,1.237 3.073,1.74C3.073,2.243 2.915,2.658 2.599,2.987C2.283,3.316 1.884,3.48 1.402,3.479C0.919,3.479 0.52,3.315 0.205,2.986" style="fill:rgb(80,113,119);fill-rule:nonzero;"/>
                </g>
                <g transform="matrix(1,0,0,1,158.244,136.935)">
                    <path d="M0,-2.026C0,-3.553 -0.263,-4.685 -0.792,-5.421C-1.32,-6.155 -2.03,-6.523 -2.921,-6.523C-3.812,-6.524 -4.522,-6.157 -5.051,-5.422C-5.581,-4.688 -5.846,-3.557 -5.847,-2.03L0,-2.026ZM-7.02,4.611C-8.096,3.333 -8.632,1.458 -8.631,-1.016C-8.63,-3.471 -8.109,-5.341 -7.069,-6.627C-6.029,-7.913 -4.646,-8.554 -2.92,-8.553C-1.194,-8.552 0.188,-7.909 1.228,-6.623C2.266,-5.336 2.785,-3.465 2.783,-1.01L2.783,-0.576L2.226,0.004L-5.848,-0.001C-5.849,1.489 -5.534,2.61 -4.903,3.365C-4.273,4.119 -3.382,4.496 -2.231,4.496C-1.545,4.497 -0.83,4.286 -0.087,3.861C0.303,3.628 0.609,3.407 0.832,3.194L1.11,3.194L2.083,4.935C1.75,5.225 1.332,5.495 0.831,5.745C-0.135,6.268 -1.249,6.528 -2.511,6.527C-4.441,6.526 -5.944,5.887 -7.02,4.611" style="fill:rgb(80,113,119);fill-rule:nonzero;"/>
                </g>
                <g transform="matrix(1,0,0,1,175.096,130.064)">
                    <path d="M0,12.031C-0.881,11.113 -1.321,9.928 -1.32,8.479L-1.314,-1.381L1.47,-1.38L1.464,8.48C1.463,9.292 1.709,9.954 2.201,10.468C2.691,10.98 3.328,11.236 4.107,11.237C4.793,11.237 5.49,10.948 6.196,10.368C6.492,10.117 6.771,9.827 7.031,9.499L7.038,-1.376L9.822,-1.375L9.813,13.125L7.865,13.124L7.587,11.384L7.448,11.384C7.188,11.77 6.863,12.108 6.473,12.398C5.656,13.075 4.635,13.412 3.41,13.411C2.018,13.411 0.881,12.951 0,12.031" style="fill:rgb(80,113,119);fill-rule:nonzero;"/>
                </g>
                <g transform="matrix(1,0,0,1,189.761,142.911)">
                    <path d="M0,-14.22L1.949,-14.219L2.227,-12.479L2.366,-12.479C2.569,-12.787 2.895,-13.125 3.34,-13.493C4.25,-14.168 5.271,-14.507 6.403,-14.506C7.795,-14.505 8.932,-14.045 9.813,-13.126C10.694,-12.208 11.134,-11.023 11.133,-9.574L11.128,0.287L8.344,0.285L8.349,-9.575C8.35,-10.387 8.104,-11.049 7.613,-11.563C7.121,-12.074 6.486,-12.331 5.707,-12.332C5.02,-12.332 4.323,-12.042 3.618,-11.463C3.32,-11.192 3.042,-10.902 2.782,-10.593L2.776,0.282L-0.008,0.28L0,-14.22Z" style="fill:rgb(80,113,119);fill-rule:nonzero;"/>
                </g>
                <g transform="matrix(1,0,0,1,207.404,126.5)">
                    <path d="M0,15.715C-0.834,14.864 -1.251,13.743 -1.25,12.352L-1.246,4.232L-3.334,4.23L-3.333,2.489L0.288,-1.279L1.541,-1.278L1.539,2.202L5.019,2.204L5.018,4.235L1.538,4.233L1.533,12.353C1.533,13.203 1.718,13.851 2.089,14.296C2.459,14.741 2.97,14.963 3.62,14.963C4.177,14.964 4.724,14.772 5.263,14.384C5.504,14.211 5.745,14.018 5.987,13.805L6.265,13.805L7.239,15.546C6.83,15.874 6.459,16.115 6.125,16.271C5.233,16.752 4.305,16.994 3.34,16.993C1.948,16.992 0.835,16.568 0,15.715" style="fill:rgb(80,113,119);fill-rule:nonzero;"/>
                </g>
                <g transform="matrix(1,0,0,1,225.337,136.973)">
                    <path d="M0,-2.026C0,-3.553 -0.263,-4.684 -0.792,-5.421C-1.32,-6.155 -2.03,-6.522 -2.921,-6.523C-3.812,-6.523 -4.522,-6.157 -5.051,-5.422C-5.581,-4.687 -5.846,-3.557 -5.847,-2.03L0,-2.026ZM-7.02,4.611C-8.096,3.333 -8.632,1.458 -8.631,-1.016C-8.63,-3.471 -8.109,-5.341 -7.069,-6.627C-6.029,-7.913 -4.646,-8.554 -2.92,-8.553C-1.194,-8.552 0.188,-7.909 1.228,-6.622C2.266,-5.336 2.785,-3.465 2.783,-1.01L2.783,-0.576L2.226,0.004L-5.848,-0.001C-5.849,1.489 -5.534,2.611 -4.903,3.365C-4.273,4.119 -3.382,4.496 -2.231,4.496C-1.545,4.497 -0.83,4.286 -0.087,3.861C0.303,3.628 0.609,3.407 0.832,3.194L1.111,3.194L2.083,4.935C1.75,5.225 1.332,5.495 0.831,5.745C-0.135,6.268 -1.249,6.528 -2.511,6.527C-4.441,6.526 -5.944,5.887 -7.02,4.611" style="fill:rgb(80,113,119);fill-rule:nonzero;"/>
                </g>
                <g transform="matrix(1,0,0,1,232.133,142.93)">
                    <path d="M0,-14.214L1.949,-14.213L2.227,-12.473L2.366,-12.473C2.551,-12.763 2.867,-13.101 3.313,-13.487C4.185,-14.163 5.169,-14.501 6.264,-14.501C6.747,-14.5 7.173,-14.451 7.545,-14.355L8.074,-14.21L7.655,-11.89L7.376,-11.89C7.246,-11.909 7.051,-11.957 6.792,-12.035C6.383,-12.133 5.975,-12.181 5.567,-12.181C4.955,-12.181 4.295,-11.892 3.589,-11.312C3.348,-11.099 3.079,-10.809 2.782,-10.443L2.776,0.287L-0.008,0.286L0,-14.214Z" style="fill:rgb(80,113,119);fill-rule:nonzero;"/>
                </g>
                <g transform="matrix(1,0,0,1,242.963,142.942)">
                    <path d="M0,-14.22L1.949,-14.219L2.227,-12.479L2.366,-12.479C2.569,-12.787 2.895,-13.125 3.34,-13.493C4.25,-14.168 5.271,-14.507 6.403,-14.506C7.795,-14.505 8.932,-14.045 9.813,-13.126C10.694,-12.208 11.134,-11.023 11.133,-9.574L11.128,0.287L8.344,0.285L8.349,-9.575C8.35,-10.387 8.104,-11.049 7.613,-11.562C7.121,-12.074 6.486,-12.331 5.707,-12.332C5.02,-12.332 4.323,-12.042 3.618,-11.463C3.32,-11.192 3.042,-10.902 2.782,-10.593L2.776,0.282L-0.008,0.28L0,-14.22Z" style="fill:rgb(80,113,119);fill-rule:nonzero;"/>
                </g>
                <g transform="matrix(1,0,0,1,266.735,136.997)">
                    <path d="M0,-2.026C0,-3.553 -0.263,-4.684 -0.792,-5.421C-1.32,-6.155 -2.03,-6.522 -2.921,-6.523C-3.812,-6.523 -4.522,-6.157 -5.051,-5.422C-5.581,-4.687 -5.846,-3.556 -5.847,-2.029L0,-2.026ZM-7.02,4.611C-8.096,3.333 -8.632,1.458 -8.631,-1.016C-8.63,-3.471 -8.109,-5.341 -7.069,-6.627C-6.029,-7.913 -4.646,-8.554 -2.92,-8.553C-1.194,-8.552 0.188,-7.909 1.228,-6.622C2.266,-5.336 2.785,-3.464 2.783,-1.009L2.783,-0.575L2.226,0.004L-5.848,0C-5.849,1.49 -5.534,2.611 -4.903,3.365C-4.273,4.119 -3.382,4.496 -2.231,4.497C-1.545,4.497 -0.83,4.286 -0.087,3.861C0.303,3.628 0.609,3.407 0.832,3.194L1.111,3.195L2.083,4.935C1.75,5.225 1.332,5.495 0.831,5.745C-0.135,6.268 -1.249,6.528 -2.511,6.527C-4.441,6.526 -5.944,5.887 -7.02,4.611" style="fill:rgb(80,113,119);fill-rule:nonzero;"/>
                </g>
                <g transform="matrix(1,0,0,1,273.534,142.376)">
                    <path d="M0,-18.566L0.836,-19.436L2.785,-19.434L2.781,-12.474C3.078,-12.784 3.383,-13.025 3.7,-13.2C4.591,-13.681 5.492,-13.923 6.401,-13.922C7.792,-13.922 8.928,-13.462 9.81,-12.543C10.691,-11.625 11.131,-10.44 11.13,-8.991L11.125,0.87L8.341,0.869L8.347,-8.992C8.347,-9.803 8.101,-10.465 7.61,-10.979C7.118,-11.491 6.483,-11.748 5.703,-11.749C5.017,-11.749 4.32,-11.46 3.615,-10.879C3.318,-10.608 3.04,-10.318 2.78,-10.009L2.773,0.866L-0.011,0.864L0,-18.566Z" style="fill:rgb(80,113,119);fill-rule:nonzero;"/>
                </g>
                <g transform="matrix(1,0,0,1,289.371,142.972)">
                    <path d="M0,-14.224L1.949,-14.223L2.227,-12.483L2.365,-12.482C2.626,-12.791 2.96,-13.129 3.369,-13.497C4.241,-14.172 5.16,-14.511 6.126,-14.51C7.202,-14.51 8.139,-14.17 8.937,-13.495C9.308,-13.145 9.577,-12.807 9.743,-12.478C10.004,-12.768 10.385,-13.106 10.886,-13.493C11.925,-14.168 12.938,-14.506 13.921,-14.506C14.756,-14.505 15.512,-14.297 16.189,-13.88C16.866,-13.465 17.4,-12.88 17.789,-12.125C18.179,-11.371 18.372,-10.52 18.372,-9.574L18.366,0.287L15.583,0.285L15.589,-9.576C15.589,-10.368 15.357,-11.025 14.894,-11.547C14.43,-12.069 13.873,-12.331 13.223,-12.331C12.647,-12.331 12.035,-12.09 11.386,-11.607C11.182,-11.472 10.912,-11.23 10.577,-10.883L10.571,0.282L7.787,0.281L7.793,-9.579C7.793,-10.371 7.562,-11.029 7.099,-11.552C6.634,-12.074 6.077,-12.335 5.428,-12.336C4.834,-12.336 4.222,-12.046 3.591,-11.467C3.349,-11.254 3.08,-10.964 2.782,-10.597L2.776,0.278L-0.008,0.276L0,-14.224Z" style="fill:rgb(80,113,119);fill-rule:nonzero;"/>
                </g>
                <g transform="matrix(1,0,0,1,320.383,137.029)">
                    <path d="M0,-2.028C0.001,-3.555 -0.264,-4.686 -0.792,-5.422C-1.32,-6.157 -2.03,-6.524 -2.921,-6.524C-3.813,-6.525 -4.522,-6.158 -5.051,-5.424C-5.581,-4.689 -5.846,-3.558 -5.847,-2.031L0,-2.028ZM-7.02,4.609C-8.096,3.332 -8.633,1.456 -8.632,-1.018C-8.63,-3.473 -8.109,-5.342 -7.069,-6.629C-6.029,-7.914 -4.646,-8.555 -2.919,-8.554C-1.193,-8.553 0.188,-7.911 1.227,-6.624C2.266,-5.337 2.785,-3.466 2.783,-1.011L2.783,-0.577L2.227,0.003L-5.848,-0.002C-5.849,1.488 -5.534,2.609 -4.902,3.363C-4.273,4.118 -3.382,4.494 -2.231,4.495C-1.545,4.495 -0.83,4.284 -0.088,3.859C0.303,3.626 0.609,3.406 0.832,3.193L1.11,3.193L2.084,4.933C1.75,5.223 1.331,5.493 0.83,5.744C-0.135,6.266 -1.249,6.527 -2.511,6.526C-4.441,6.525 -5.944,5.886 -7.02,4.609" style="fill:rgb(80,113,119);fill-rule:nonzero;"/>
                </g>
                <g transform="matrix(1,0,0,1,327.178,142.989)">
                    <path d="M0,-14.22L1.949,-14.219L2.227,-12.478L2.365,-12.478C2.57,-12.787 2.896,-13.125 3.341,-13.493C4.25,-14.168 5.272,-14.507 6.404,-14.506C7.796,-14.505 8.932,-14.045 9.813,-13.126C10.694,-12.208 11.135,-11.023 11.134,-9.574L11.128,0.287L8.345,0.285L8.351,-9.575C8.351,-10.387 8.104,-11.049 7.613,-11.562C7.121,-12.074 6.486,-12.331 5.706,-12.331C5.02,-12.332 4.323,-12.042 3.618,-11.463C3.321,-11.192 3.043,-10.902 2.782,-10.593L2.776,0.282L-0.008,0.28L0,-14.22Z" style="fill:rgb(80,113,119);fill-rule:nonzero;"/>
                </g>
                <g transform="matrix(1,0,0,1,342.51,140.583)">
                    <path d="M0,2.492C-0.315,2.164 -0.473,1.748 -0.473,1.245C-0.473,0.743 -0.314,0.327 0.002,-0.002C0.317,-0.33 0.716,-0.494 1.199,-0.494C1.682,-0.494 2.08,-0.329 2.396,0C2.711,0.329 2.868,0.745 2.868,1.247C2.868,1.75 2.71,2.166 2.395,2.494C2.078,2.822 1.68,2.986 1.197,2.986C0.714,2.986 0.315,2.821 0,2.492" style="fill:rgb(80,113,119);fill-rule:nonzero;"/>
                </g>
                <g transform="matrix(1,0,0,1,413.911,143.15)">
                    <path d="M0,-20.3L2.505,-20.3L5.707,-6.09C5.781,-5.664 5.855,-5.172 5.93,-4.612C5.967,-4.263 5.985,-3.983 5.985,-3.77L6.097,-3.77L6.18,-4.612L6.264,-5.22C6.282,-5.49 6.328,-5.78 6.402,-6.09L9.604,-20.3L12.305,-20.3L15.507,-6.09C15.544,-5.935 15.58,-5.684 15.618,-5.336L15.729,-4.612L15.813,-3.77L15.924,-3.77C15.924,-4.156 15.942,-4.437 15.979,-4.612C16.017,-4.766 16.054,-5.017 16.091,-5.365C16.128,-5.674 16.165,-5.916 16.202,-6.09L19.404,-20.3L21.91,-20.3L17.316,0L14.504,0L11.303,-14.21C11.247,-14.384 11.2,-14.631 11.163,-14.949C11.126,-15.269 11.089,-15.515 11.052,-15.69L10.94,-16.53L10.829,-16.53L10.718,-15.69L10.468,-14.21L7.266,0L4.593,0L0,-20.3Z" style="fill:rgb(80,113,119);fill-rule:nonzero;"/>
                </g>
                <g transform="matrix(1,0,0,1,0,96.999)">
                    <path d="M438.994,31.65L441.778,31.65L441.778,46.15L438.994,46.15L438.994,31.65ZM439.189,28.837C438.873,28.509 438.716,28.094 438.716,27.591C438.716,27.088 438.873,26.672 439.189,26.344C439.505,26.015 439.903,25.851 440.387,25.851C440.869,25.851 441.268,26.015 441.583,26.344C441.898,26.672 442.057,27.088 442.057,27.591C442.057,28.094 441.898,28.509 441.583,28.837C441.268,29.166 440.869,29.33 440.387,29.33C439.903,29.33 439.505,29.166 439.189,28.837" style="fill:rgb(80,113,119);fill-rule:nonzero;"/>
                </g>
                <g transform="matrix(1,0,0,1,446.622,142.859)">
                    <path d="M0,-14.21L1.949,-14.21L2.228,-12.47L2.366,-12.47C2.552,-12.76 2.867,-13.098 3.313,-13.485C4.186,-14.161 5.169,-14.5 6.264,-14.5C6.746,-14.5 7.173,-14.451 7.545,-14.355L8.073,-14.21L7.656,-11.89L7.378,-11.89C7.248,-11.909 7.053,-11.957 6.793,-12.035C6.385,-12.132 5.977,-12.18 5.568,-12.18C4.956,-12.18 4.297,-11.89 3.592,-11.31C3.35,-11.097 3.081,-10.807 2.784,-10.44L2.784,0.29L0,0.29L0,-14.21Z" style="fill:rgb(80,113,119);fill-rule:nonzero;"/>
                </g>
                <g transform="matrix(1,0,0,1,466.389,129.142)">
                    <path d="M0,13.514C-0.539,13.263 -0.975,12.993 -1.309,12.702L-0.334,10.962L-0.056,10.962C0.148,11.156 0.473,11.378 0.918,11.629C1.771,12.055 2.653,12.267 3.563,12.267C4.677,12.267 5.488,12.083 5.999,11.716C6.51,11.349 6.765,10.856 6.765,10.238C6.765,9.599 6.5,9.117 5.972,8.787C5.442,8.458 4.621,8.101 3.508,7.714C2.523,7.367 1.735,7.047 1.142,6.757C0.547,6.467 0.037,6.052 -0.39,5.51C-0.817,4.969 -1.03,4.273 -1.03,3.422C-1.03,2.127 -0.59,1.102 0.292,0.348C1.173,-0.406 2.496,-0.783 4.259,-0.783C5.577,-0.783 6.774,-0.511 7.851,0.03C8.37,0.281 8.797,0.541 9.131,0.812L8.157,2.552L7.878,2.552C7.6,2.339 7.284,2.127 6.932,1.914C6.115,1.47 5.317,1.247 4.537,1.247C3.609,1.247 2.913,1.426 2.449,1.784C1.985,2.142 1.754,2.591 1.754,3.132C1.754,3.77 2.019,4.253 2.547,4.582C3.076,4.911 3.897,5.269 5.011,5.656C5.994,6.003 6.783,6.323 7.377,6.613C7.971,6.902 8.481,7.318 8.908,7.859C9.335,8.401 9.549,9.097 9.549,9.948C9.549,11.32 9.085,12.388 8.157,13.152C7.229,13.915 5.79,14.297 3.842,14.297C2.319,14.297 1.039,14.036 0,13.514" style="fill:rgb(80,113,119);fill-rule:nonzero;"/>
                </g>
                <g transform="matrix(1,0,0,1,481.477,126.445)">
                    <path d="M0,15.718C-0.835,14.867 -1.253,13.746 -1.253,12.355L-1.253,4.235L-3.341,4.235L-3.341,2.494L0.278,-1.276L1.531,-1.276L1.531,2.204L5.012,2.204L5.012,4.235L1.531,4.235L1.531,12.355C1.531,13.205 1.717,13.853 2.088,14.297C2.459,14.742 2.97,14.964 3.619,14.964C4.176,14.964 4.724,14.772 5.262,14.384C5.503,14.21 5.744,14.017 5.985,13.804L6.264,13.804L7.238,15.544C6.83,15.873 6.459,16.114 6.125,16.27C5.234,16.752 4.306,16.994 3.341,16.994C1.949,16.994 0.835,16.57 0,15.718" style="fill:rgb(80,113,119);fill-rule:nonzero;"/>
                </g>
                <g transform="matrix(1,0,0,1,499.406,136.915)">
                    <path d="M0,-2.03C0,-3.557 -0.265,-4.688 -0.794,-5.424C-1.322,-6.158 -2.032,-6.525 -2.923,-6.525C-3.814,-6.525 -4.524,-6.158 -5.053,-5.424C-5.582,-4.688 -5.847,-3.557 -5.847,-2.03L0,-2.03ZM-7.016,4.611C-8.093,3.334 -8.631,1.459 -8.631,-1.015C-8.631,-3.47 -8.111,-5.341 -7.071,-6.627C-6.032,-7.913 -4.649,-8.555 -2.923,-8.555C-1.197,-8.555 0.186,-7.913 1.225,-6.627C2.264,-5.341 2.784,-3.47 2.784,-1.015L2.784,-0.581L2.228,-0.001L-5.847,-0.001C-5.847,1.489 -5.531,2.61 -4.899,3.364C-4.27,4.117 -3.378,4.494 -2.228,4.494C-1.541,4.494 -0.826,4.282 -0.084,3.857C0.307,3.624 0.612,3.403 0.835,3.19L1.113,3.19L2.088,4.93C1.754,5.22 1.336,5.491 0.835,5.741C-0.13,6.264 -1.244,6.525 -2.506,6.525C-4.437,6.525 -5.939,5.887 -7.016,4.611" style="fill:rgb(80,113,119);fill-rule:nonzero;"/>
                </g>
                <g transform="matrix(1,0,0,1,507.52,130.028)">
                    <path d="M0,12.034C-0.882,11.116 -1.322,9.931 -1.322,8.482L-1.322,-1.378L1.462,-1.378L1.462,8.482C1.462,9.294 1.708,9.956 2.199,10.469C2.691,10.981 3.327,11.237 4.106,11.237C4.793,11.237 5.489,10.947 6.194,10.367C6.491,10.116 6.77,9.826 7.03,9.497L7.03,-1.378L9.813,-1.378L9.813,13.122L7.865,13.122L7.587,11.382L7.447,11.382C7.187,11.768 6.863,12.107 6.473,12.397C5.656,13.074 4.636,13.412 3.41,13.412C2.019,13.412 0.882,12.953 0,12.034" style="fill:rgb(80,113,119);fill-rule:nonzero;"/>
                </g>
                <g transform="matrix(1,0,0,1,530.113,136.915)">
                    <path d="M0,-2.03C0,-3.557 -0.265,-4.688 -0.794,-5.424C-1.322,-6.158 -2.032,-6.525 -2.923,-6.525C-3.814,-6.525 -4.524,-6.158 -5.053,-5.424C-5.582,-4.688 -5.847,-3.557 -5.847,-2.03L0,-2.03ZM-7.016,4.611C-8.093,3.334 -8.631,1.459 -8.631,-1.015C-8.631,-3.47 -8.111,-5.341 -7.071,-6.627C-6.032,-7.913 -4.649,-8.555 -2.923,-8.555C-1.197,-8.555 0.186,-7.913 1.225,-6.627C2.264,-5.341 2.784,-3.47 2.784,-1.015L2.784,-0.581L2.228,-0.001L-5.847,-0.001C-5.847,1.489 -5.531,2.61 -4.899,3.364C-4.27,4.117 -3.378,4.494 -2.228,4.494C-1.541,4.494 -0.826,4.282 -0.084,3.857C0.307,3.624 0.612,3.403 0.835,3.19L1.113,3.19L2.088,4.93C1.754,5.22 1.336,5.491 0.835,5.741C-0.13,6.264 -1.244,6.525 -2.506,6.525C-4.437,6.525 -5.939,5.887 -7.016,4.611" style="fill:rgb(80,113,119);fill-rule:nonzero;"/>
                </g>
                <g transform="matrix(1,0,0,1,536.905,142.859)">
                    <path d="M0,-14.21L1.949,-14.21L2.228,-12.47L2.366,-12.47C2.552,-12.76 2.867,-13.098 3.313,-13.485C4.186,-14.161 5.169,-14.5 6.264,-14.5C6.746,-14.5 7.173,-14.451 7.545,-14.355L8.073,-14.21L7.656,-11.89L7.378,-11.89C7.248,-11.909 7.053,-11.957 6.793,-12.035C6.385,-12.132 5.977,-12.18 5.568,-12.18C4.956,-12.18 4.297,-11.89 3.592,-11.31C3.35,-11.097 3.081,-10.807 2.784,-10.44L2.784,0.29L0,0.29L0,-14.21Z" style="fill:rgb(80,113,119);fill-rule:nonzero;"/>
                </g>
                <g transform="matrix(1,0,0,1,547.734,142.859)">
                    <path d="M0,-14.21L1.949,-14.21L2.228,-12.47L2.366,-12.47C2.57,-12.779 2.896,-13.117 3.341,-13.485C4.25,-14.161 5.271,-14.5 6.403,-14.5C7.795,-14.5 8.932,-14.04 9.813,-13.122C10.695,-12.204 11.136,-11.02 11.136,-9.57L11.136,0.29L8.353,0.29L8.353,-9.57C8.353,-10.382 8.105,-11.044 7.614,-11.557C7.122,-12.068 6.487,-12.325 5.707,-12.325C5.021,-12.325 4.324,-12.035 3.619,-11.455C3.322,-11.184 3.044,-10.894 2.784,-10.585L2.784,0.29L0,0.29L0,-14.21Z" style="fill:rgb(80,113,119);fill-rule:nonzero;"/>
                </g>
                <g transform="matrix(1,0,0,1,563.074,140.452)">
                    <path d="M0,2.494C-0.315,2.166 -0.474,1.75 -0.474,1.247C-0.474,0.745 -0.315,0.329 0,0C0.315,-0.328 0.714,-0.493 1.197,-0.493C1.68,-0.493 2.078,-0.328 2.395,0C2.71,0.329 2.867,0.745 2.867,1.247C2.867,1.75 2.71,2.166 2.395,2.494C2.078,2.823 1.68,2.987 1.197,2.987C0.714,2.987 0.315,2.823 0,2.494" style="fill:rgb(80,113,119);fill-rule:nonzero;"/>
                </g>
                <g transform="matrix(1,0,0,1,34.363,147.667)">
                    <path d="M0,-35.445L42.778,-35.445L42.778,0L-20.987,0L0,-35.445Z" style="fill:rgb(0,181,165);fill-rule:nonzero;"/>
                </g>
                <g transform="matrix(1,0,0,1,58.3088,106.39)">
                    <path d="M0,-35.445L39.462,-35.445L39.462,0L-20.987,0L0,-35.445Z" style="fill:rgb(129,206,196);fill-rule:nonzero;"/>
                </g>
                <g transform="matrix(1,0,0,1,88.5305,65.1124)">
                    <path d="M0,-45.444L29.241,-45.444L29.241,0L-26.902,0L0,-45.444Z" style="fill:rgb(212,236,232);fill-rule:nonzero;"/>
                </g>
                <g transform="matrix(1,0,0,1,125.101,55.6162)">
                    <path d="M0,-26L3.293,-26L10.208,-10.214C10.384,-9.892 10.526,-9.509 10.636,-9.063C10.724,-8.691 10.779,-8.456 10.801,-8.357L10.933,-8.357C10.954,-8.456 11.009,-8.691 11.097,-9.063C11.207,-9.509 11.349,-9.892 11.525,-10.214L18.44,-26L21.733,-26L21.733,0L18.44,0L18.44,-16.343C18.44,-16.739 18.462,-17.407 18.506,-18.349L18.572,-19.5L18.44,-19.5L18.144,-18.349C18.078,-18.15 17.979,-17.834 17.848,-17.401C17.716,-16.968 17.584,-16.615 17.453,-16.343L12.184,-4.643L9.549,-4.643L4.281,-16.343C4.149,-16.615 4.017,-16.968 3.886,-17.401C3.754,-17.834 3.655,-18.15 3.589,-18.349L3.293,-19.5L3.161,-19.5L3.227,-18.349C3.271,-17.407 3.293,-16.739 3.293,-16.343L3.293,0L0,0L0,-26Z" style="fill:rgb(80,113,119);fill-rule:nonzero;"/>
                </g>
                <g transform="matrix(1,0,0,1,159.118,40.5734)">
                    <path d="M0,11.514C0.373,11.168 0.702,10.796 0.988,10.4L0.988,6.686L-1.646,6.686C-2.898,6.686 -3.842,6.958 -4.479,7.503C-5.116,8.048 -5.434,8.765 -5.434,9.657C-5.434,10.623 -5.187,11.36 -4.693,11.867C-4.199,12.375 -3.458,12.629 -2.47,12.629C-1.658,12.629 -0.835,12.257 0,11.514M-7.294,13.873C-8.249,12.846 -8.727,11.44 -8.727,9.657C-8.727,7.899 -8.162,6.531 -7.031,5.553C-5.9,4.575 -4.105,4.086 -1.646,4.086L0.988,4.086L0.988,3.157C0.988,1.696 0.686,0.588 0.082,-0.167C-0.522,-0.923 -1.373,-1.3 -2.47,-1.3C-3.26,-1.3 -4.117,-1.015 -5.039,-0.446C-5.5,-0.149 -5.851,0.124 -6.092,0.371L-6.421,0.371L-7.574,-1.857C-7.135,-2.229 -6.641,-2.563 -6.092,-2.86C-4.907,-3.553 -3.589,-3.9 -2.141,-3.9C-0.889,-3.9 0.219,-3.596 1.185,-2.99C2.151,-2.383 2.908,-1.542 3.458,-0.465C4.006,0.613 4.281,1.82 4.281,3.157L4.281,15.043L1.976,15.043L1.646,12.814L1.481,12.814C1.174,13.31 0.79,13.743 0.329,14.114C-0.637,14.981 -1.844,15.414 -3.293,15.414C-5.005,15.414 -6.339,14.901 -7.294,13.873" style="fill:rgb(80,113,119);fill-rule:nonzero;"/>
                </g>
                <g transform="matrix(1,0,0,1,166.856,37.6019)">
                    <path d="M0,25.257C-0.374,25.109 -0.67,24.923 -0.889,24.7L-0.066,22.286L0.264,22.286C0.483,22.533 0.659,22.694 0.791,22.769C1.207,23.066 1.635,23.215 2.075,23.215C2.646,23.215 3.156,22.973 3.606,22.49C4.056,22.007 4.369,21.382 4.544,20.614L5.203,18.014L4.215,18.014L-1.416,-0.557L1.746,-0.557L5.368,11.7C5.478,12.071 5.631,12.703 5.829,13.594C5.895,13.817 5.971,14.176 6.059,14.672L6.191,14.672C6.235,14.276 6.301,13.916 6.389,13.594L6.816,11.7L9.813,-0.557L13.106,-0.557L7.837,20.614C7.442,22.174 6.772,23.431 5.829,24.384C4.885,25.337 3.743,25.814 2.404,25.814C1.503,25.814 0.703,25.629 0,25.257" style="fill:rgb(80,113,119);fill-rule:nonzero;"/>
                </g>
                <g transform="matrix(1,0,0,1,0,-83.768)">
                    <path d="M182.036,120.813L185.329,120.813L185.329,139.384L182.036,139.384L182.036,120.813ZM182.267,117.21C181.893,116.789 181.707,116.257 181.707,115.613C181.707,114.969 181.893,114.437 182.267,114.016C182.64,113.595 183.111,113.384 183.683,113.384C184.253,113.384 184.725,113.595 185.099,114.016C185.472,114.437 185.658,114.969 185.658,115.613C185.658,116.257 185.472,116.789 185.099,117.21C184.725,117.631 184.253,117.841 183.683,117.841C183.111,117.841 182.64,117.631 182.267,117.21" style="fill:rgb(80,113,119);fill-rule:nonzero;"/>
                </g>
                <g transform="matrix(1,0,0,1,189.379,55.2439)">
                    <path d="M0,-18.199L2.305,-18.199L2.634,-15.97L2.799,-15.97C3.041,-16.366 3.425,-16.8 3.952,-17.271C5.027,-18.137 6.234,-18.571 7.574,-18.571C9.22,-18.571 10.565,-17.982 11.608,-16.806C12.65,-15.63 13.172,-14.114 13.172,-12.256L13.172,0.372L9.879,0.372L9.879,-12.256C9.879,-13.296 9.588,-14.144 9.006,-14.801C8.424,-15.456 7.673,-15.785 6.75,-15.785C5.938,-15.785 5.115,-15.413 4.281,-14.671C3.93,-14.324 3.6,-13.952 3.293,-13.556L3.293,0.372L0,0.372L0,-18.199Z" style="fill:rgb(80,113,119);fill-rule:nonzero;"/>
                </g>
                <g transform="matrix(1,0,0,1,214.934,47.0731)">
                    <path d="M0,5.943C0.395,5.819 0.691,5.696 0.889,5.571L0.889,-5.386C0.581,-5.807 0.252,-6.178 -0.099,-6.5C-0.934,-7.243 -1.757,-7.614 -2.569,-7.614C-3.579,-7.614 -4.408,-7.057 -5.055,-5.943C-5.703,-4.828 -6.026,-3.095 -6.026,-0.743C-6.026,1.709 -5.681,3.498 -4.989,4.625C-4.297,5.752 -3.381,6.315 -2.239,6.315C-1.493,6.315 -0.747,6.191 0,5.943M-6.85,15.34C-7.442,15.018 -7.936,14.672 -8.332,14.3L-7.179,12.072L-6.85,12.072C-6.63,12.319 -6.279,12.604 -5.796,12.926C-4.918,13.47 -4.062,13.743 -3.227,13.743C-1.823,13.743 -0.785,13.359 -0.115,12.592C0.554,11.824 0.889,10.598 0.889,8.915L0.889,7.8C0.56,8.023 0.197,8.209 -0.198,8.358C-1.01,8.729 -1.855,8.915 -2.733,8.915C-4.709,8.915 -6.301,8.091 -7.508,6.444C-8.716,4.798 -9.319,2.402 -9.319,-0.743C-9.319,-2.823 -9.051,-4.587 -8.513,-6.036C-7.975,-7.484 -7.256,-8.574 -6.355,-9.304C-5.456,-10.034 -4.468,-10.4 -3.392,-10.4C-2.053,-10.4 -0.846,-9.966 0.23,-9.1C0.757,-8.629 1.141,-8.196 1.383,-7.8L1.547,-7.8L1.877,-10.028L4.182,-10.028L4.182,8.915C4.182,11.168 3.551,12.969 2.289,14.319C1.026,15.668 -0.703,16.343 -2.898,16.343C-4.391,16.343 -5.708,16.009 -6.85,15.34" style="fill:rgb(80,113,119);fill-rule:nonzero;"/>
                </g>
                <g transform="matrix(1,0,0,1,232.551,47.6313)">
                    <path d="M0,-2.601C0,-4.557 -0.313,-6.005 -0.938,-6.947C-1.564,-7.887 -2.404,-8.358 -3.458,-8.358C-4.512,-8.358 -5.352,-7.887 -5.977,-6.947C-6.603,-6.005 -6.916,-4.557 -6.916,-2.601L0,-2.601ZM-8.298,5.905C-9.572,4.271 -10.208,1.869 -10.208,-1.301C-10.208,-4.445 -9.594,-6.841 -8.364,-8.488C-7.135,-10.135 -5.5,-10.958 -3.458,-10.958C-1.416,-10.958 0.219,-10.135 1.449,-8.488C2.678,-6.841 3.293,-4.445 3.293,-1.301L3.293,-0.744L2.634,-0.001L-6.916,-0.001C-6.916,1.906 -6.542,3.342 -5.796,4.308C-5.05,5.274 -3.996,5.756 -2.635,5.756C-1.823,5.756 -0.978,5.484 -0.099,4.939C0.362,4.642 0.724,4.357 0.988,4.085L1.317,4.085L2.47,6.314C2.074,6.685 1.581,7.032 0.988,7.354C-0.154,8.022 -1.471,8.357 -2.964,8.357C-5.248,8.357 -7.025,7.539 -8.298,5.905" style="fill:rgb(80,113,119);fill-rule:nonzero;"/>
                </g>
                <g transform="matrix(1,0,0,1,238.906,55.2439)">
                    <path d="M0,-18.199L2.305,-18.199L2.634,-15.97L2.799,-15.97C3.018,-16.342 3.392,-16.775 3.918,-17.271C4.95,-18.137 6.114,-18.571 7.409,-18.571C7.98,-18.571 8.484,-18.509 8.924,-18.385L9.55,-18.199L9.056,-15.228L8.727,-15.228C8.573,-15.252 8.342,-15.314 8.035,-15.413C7.552,-15.537 7.069,-15.599 6.586,-15.599C5.861,-15.599 5.082,-15.228 4.248,-14.485C3.962,-14.212 3.644,-13.841 3.293,-13.37L3.293,0.372L0,0.372L0,-18.199Z" style="fill:rgb(80,113,119);fill-rule:nonzero;"/>
                </g>
                <g transform="matrix(1,0,0,1,269.019,32.5686)">
                    <path d="M0,20.095C-1.548,17.879 -2.322,14.53 -2.322,10.048C-2.322,7.052 -1.965,4.551 -1.251,2.545C-0.538,0.539 0.439,-0.94 1.679,-1.894C2.919,-2.847 4.33,-3.324 5.911,-3.324C7.469,-3.324 8.885,-2.977 10.159,-2.284C10.774,-1.962 11.278,-1.628 11.674,-1.281L10.522,0.948L10.192,0.948C9.862,0.676 9.489,0.403 9.073,0.131C8.106,-0.439 7.163,-0.724 6.24,-0.724C2.728,-0.724 0.971,2.867 0.971,10.048C0.971,13.91 1.459,16.672 2.437,18.33C3.413,19.99 4.791,20.819 6.569,20.819C6.965,20.819 7.344,20.763 7.706,20.652C8.067,20.54 8.364,20.423 8.594,20.299C8.825,20.176 8.973,20.101 9.04,20.076L9.04,11.533L5.252,11.533L5.252,8.933L11.344,8.933L12.333,10.048L12.333,21.376C11.893,21.773 11.356,22.119 10.719,22.416C9.446,23.085 7.952,23.419 6.24,23.419C3.627,23.419 1.547,22.311 0,20.095" style="fill:rgb(80,113,119);fill-rule:nonzero;"/>
                </g>
                <g transform="matrix(1,0,0,1,285.303,37.6759)">
                    <path d="M0,17.309C-0.637,16.987 -1.152,16.641 -1.548,16.269L-0.396,14.04L-0.065,14.04C0.176,14.288 0.56,14.573 1.087,14.894C2.097,15.439 3.14,15.712 4.215,15.712C5.532,15.712 6.492,15.476 7.097,15.006C7.7,14.536 8.002,13.905 8.002,13.112C8.002,12.295 7.689,11.676 7.063,11.255C6.437,10.834 5.467,10.376 4.149,9.88C2.985,9.434 2.053,9.026 1.351,8.655C0.647,8.283 0.044,7.751 -0.461,7.058C-0.966,6.365 -1.219,5.473 -1.219,4.383C-1.219,2.725 -0.697,1.412 0.346,0.446C1.389,-0.52 2.952,-1.003 5.038,-1.003C6.597,-1.003 8.013,-0.655 9.286,0.038C9.9,0.359 10.406,0.694 10.801,1.04L9.648,3.269L9.319,3.269C8.99,2.996 8.616,2.725 8.199,2.452C7.233,1.882 6.29,1.598 5.367,1.598C4.27,1.598 3.446,1.827 2.897,2.285C2.349,2.743 2.074,3.319 2.074,4.012C2.074,4.829 2.388,5.448 3.013,5.869C3.639,6.29 4.61,6.748 5.928,7.243C7.091,7.689 8.023,8.098 8.727,8.469C9.429,8.84 10.032,9.373 10.538,10.066C11.042,10.76 11.295,11.651 11.295,12.74C11.295,14.499 10.746,15.867 9.648,16.845C8.551,17.823 6.85,18.312 4.544,18.312C2.744,18.312 1.229,17.977 0,17.309" style="fill:rgb(80,113,119);fill-rule:nonzero;"/>
                </g>
                <g transform="matrix(1,0,0,1,300.418,39.1251)">
                    <path d="M0,14.411C-1.273,12.777 -1.91,10.375 -1.91,7.205C-1.91,4.036 -1.29,1.634 -0.05,-0.001C1.19,-1.635 2.876,-2.452 5.005,-2.452C6.454,-2.452 7.771,-2.105 8.957,-1.412C9.527,-1.115 10.021,-0.78 10.438,-0.409L9.286,1.82L8.957,1.82C8.671,1.572 8.309,1.3 7.87,1.002C6.948,0.433 6.103,0.148 5.334,0.148C4.104,0.148 3.139,0.705 2.437,1.82C1.733,2.934 1.383,4.729 1.383,7.205C1.383,9.707 1.75,11.508 2.486,12.61C3.222,13.712 4.28,14.263 5.664,14.263C6.476,14.263 7.321,13.99 8.199,13.445C8.66,13.148 9.022,12.864 9.286,12.591L9.615,12.591L10.768,14.82C10.373,15.191 9.879,15.538 9.286,15.86C8.145,16.528 6.827,16.863 5.334,16.863C3.051,16.863 1.272,16.045 0,14.411" style="fill:rgb(80,113,119);fill-rule:nonzero;"/>
                </g>
                <g transform="matrix(1,0,0,1,313.424,54.5025)">
                    <path d="M0,-23.772L0.988,-24.886L3.293,-24.886L3.293,-15.972C3.644,-16.368 4.006,-16.678 4.38,-16.9C5.434,-17.519 6.498,-17.829 7.574,-17.829C9.221,-17.829 10.564,-17.241 11.607,-16.065C12.65,-14.889 13.172,-13.372 13.172,-11.515L13.172,1.114L9.879,1.114L9.879,-11.515C9.879,-12.555 9.588,-13.403 9.007,-14.059C8.425,-14.715 7.673,-15.043 6.751,-15.043C5.938,-15.043 5.115,-14.672 4.281,-13.929C3.93,-13.582 3.601,-13.21 3.293,-12.815L3.293,1.114L0,1.114L0,-23.772Z" style="fill:rgb(80,113,119);fill-rule:nonzero;"/>
                </g>
                <g transform="matrix(1,0,0,1,328.506,55.6159)">
                    <path d="M0,-18.571L3.128,-18.571L5.763,-7.242C5.807,-7.044 5.85,-6.779 5.895,-6.444C5.938,-6.11 5.981,-5.831 6.026,-5.608L6.092,-4.828L6.224,-4.828C6.224,-5.001 6.245,-5.261 6.289,-5.608C6.333,-5.831 6.377,-6.078 6.421,-6.351C6.465,-6.623 6.52,-6.921 6.586,-7.242L9.286,-18.571L12.579,-18.571L15.147,-7.242C15.191,-7.044 15.235,-6.779 15.279,-6.444C15.323,-6.11 15.367,-5.831 15.411,-5.608L15.51,-4.828L15.642,-4.828C15.642,-5.001 15.663,-5.261 15.707,-5.608C15.817,-6.376 15.905,-6.921 15.971,-7.242L18.605,-18.571L21.733,-18.571L17.453,0L14.16,0L11.36,-11.7C11.251,-12.095 11.151,-12.64 11.064,-13.334L10.933,-14.3L10.801,-14.3L10.669,-13.334C10.625,-12.913 10.526,-12.368 10.373,-11.7L7.573,0L4.28,0L0,-18.571Z" style="fill:rgb(80,113,119);fill-rule:nonzero;"/>
                </g>
                <g transform="matrix(1,0,0,1,0,-83.768)">
                    <path d="M352.972,120.813L356.265,120.813L356.265,139.384L352.972,139.384L352.972,120.813ZM353.202,117.21C352.829,116.789 352.643,116.257 352.643,115.613C352.643,114.969 352.829,114.437 353.202,114.016C353.575,113.595 354.047,113.384 354.618,113.384C355.188,113.384 355.66,113.595 356.034,114.016C356.407,114.437 356.594,114.969 356.594,115.613C356.594,116.257 356.407,116.789 356.034,117.21C355.66,117.631 355.188,117.841 354.618,117.841C354.047,117.841 353.575,117.631 353.202,117.21" style="fill:rgb(80,113,119);fill-rule:nonzero;"/>
                </g>
                <g transform="matrix(1,0,0,1,360.315,55.2439)">
                    <path d="M0,-18.199L2.305,-18.199L2.635,-15.97L2.799,-15.97C3.04,-16.366 3.425,-16.8 3.951,-17.271C5.027,-18.137 6.234,-18.571 7.574,-18.571C9.221,-18.571 10.564,-17.982 11.607,-16.806C12.65,-15.63 13.172,-14.114 13.172,-12.256L13.172,0.372L9.879,0.372L9.879,-12.256C9.879,-13.296 9.588,-14.144 9.007,-14.801C8.425,-15.456 7.673,-15.785 6.751,-15.785C5.938,-15.785 5.115,-15.413 4.281,-14.671C3.93,-14.324 3.601,-13.952 3.293,-13.556L3.293,0.372L0,0.372L0,-18.199Z" style="fill:rgb(80,113,119);fill-rule:nonzero;"/>
                </g>
                <g transform="matrix(1,0,0,1,385.769,33.5164)">
                    <path d="M0,18.571C0.373,18.225 0.702,17.853 0.987,17.457L0.987,6.5C0.79,6.376 0.493,6.253 0.099,6.128C-0.648,5.881 -1.395,5.757 -2.141,5.757C-3.282,5.757 -4.199,6.321 -4.891,7.447C-5.582,8.574 -5.928,10.363 -5.928,12.814C-5.928,15.167 -5.604,16.9 -4.956,18.014C-4.309,19.128 -3.48,19.686 -2.47,19.686C-1.658,19.686 -0.835,19.314 0,18.571M-6.257,21.376C-7.157,20.645 -7.876,19.555 -8.414,18.107C-8.952,16.658 -9.221,14.894 -9.221,12.814C-9.221,9.67 -8.617,7.274 -7.409,5.627C-6.202,3.98 -4.61,3.157 -2.635,3.157C-1.889,3.157 -1.043,3.342 -0.099,3.714L0.987,4.271L0.987,-2.786L1.976,-3.9L4.28,-3.9L4.28,22.1L1.976,22.1L1.646,19.871L1.481,19.871C1.174,20.367 0.79,20.8 0.329,21.171C-0.638,22.038 -1.845,22.471 -3.293,22.471C-4.369,22.471 -5.357,22.106 -6.257,21.376" style="fill:rgb(80,113,119);fill-rule:nonzero;"/>
                </g>
                <g transform="matrix(1,0,0,1,417.514,41.8729)">
                    <path d="M0,1.486C3.293,1.486 4.939,-0.371 4.939,-4.085C4.939,-7.8 3.293,-9.657 0,-9.657L-2.305,-9.657L-2.305,1.486L0,1.486ZM-5.598,-12.257L0,-12.257C2.767,-12.257 4.83,-11.563 6.191,-10.177C7.552,-8.79 8.232,-6.76 8.232,-4.085C8.232,-0.123 6.729,2.415 3.722,3.529L9.221,13.743L5.434,13.743L0.329,4.086L-2.305,4.086L-2.305,13.743L-5.598,13.743L-5.598,-12.257Z" style="fill:rgb(80,113,119);fill-rule:nonzero;"/>
                </g>
                <g transform="matrix(1,0,0,1,438.853,47.6313)">
                    <path d="M0,-2.601C0,-4.557 -0.312,-6.005 -0.938,-6.947C-1.563,-7.887 -2.403,-8.358 -3.457,-8.358C-4.511,-8.358 -5.351,-7.887 -5.977,-6.947C-6.603,-6.005 -6.915,-4.557 -6.915,-2.601L0,-2.601ZM-8.298,5.905C-9.571,4.271 -10.208,1.869 -10.208,-1.301C-10.208,-4.445 -9.594,-6.841 -8.364,-8.488C-7.135,-10.135 -5.499,-10.958 -3.457,-10.958C-1.416,-10.958 0.22,-10.135 1.449,-8.488C2.679,-6.841 3.293,-4.445 3.293,-1.301L3.293,-0.744L2.635,-0.001L-6.915,-0.001C-6.915,1.906 -6.542,3.342 -5.795,4.308C-5.05,5.274 -3.995,5.756 -2.634,5.756C-1.822,5.756 -0.977,5.484 -0.099,4.939C0.362,4.642 0.725,4.357 0.988,4.085L1.317,4.085L2.47,6.314C2.075,6.685 1.581,7.032 0.988,7.354C-0.153,8.022 -1.471,8.357 -2.964,8.357C-5.247,8.357 -7.025,7.539 -8.298,5.905" style="fill:rgb(80,113,119);fill-rule:nonzero;"/>
                </g>
                <g transform="matrix(1,0,0,1,0,-83.768)">
                    <path d="M445.207,120.813L448.5,120.813L448.5,139.384L445.207,139.384L445.207,120.813ZM445.437,117.21C445.064,116.789 444.878,116.257 444.878,115.613C444.878,114.969 445.064,114.437 445.437,114.016C445.811,113.595 446.282,113.384 446.854,113.384C447.424,113.384 447.896,113.595 448.27,114.016C448.643,114.437 448.829,114.969 448.829,115.613C448.829,116.257 448.643,116.789 448.27,117.21C447.896,117.631 447.424,117.841 446.854,117.841C446.282,117.841 445.811,117.631 445.437,117.21" style="fill:rgb(80,113,119);fill-rule:nonzero;"/>
                </g>
                <g transform="matrix(1,0,0,1,452.781,37.6759)">
                    <path d="M0,17.309C-0.637,16.987 -1.152,16.641 -1.548,16.269L-0.396,14.04L-0.065,14.04C0.176,14.288 0.56,14.573 1.087,14.894C2.097,15.439 3.14,15.712 4.215,15.712C5.532,15.712 6.492,15.476 7.097,15.006C7.7,14.536 8.002,13.905 8.002,13.112C8.002,12.295 7.689,11.676 7.063,11.255C6.437,10.834 5.467,10.376 4.149,9.88C2.985,9.434 2.053,9.026 1.351,8.655C0.647,8.283 0.044,7.751 -0.461,7.058C-0.966,6.365 -1.219,5.473 -1.219,4.383C-1.219,2.725 -0.697,1.412 0.346,0.446C1.389,-0.52 2.952,-1.003 5.038,-1.003C6.597,-1.003 8.013,-0.655 9.286,0.038C9.9,0.359 10.406,0.694 10.801,1.04L9.648,3.269L9.319,3.269C8.99,2.996 8.616,2.725 8.199,2.452C7.233,1.882 6.29,1.598 5.367,1.598C4.27,1.598 3.446,1.827 2.897,2.285C2.349,2.743 2.074,3.319 2.074,4.012C2.074,4.829 2.388,5.448 3.013,5.869C3.639,6.29 4.61,6.748 5.928,7.243C7.091,7.689 8.023,8.098 8.727,8.469C9.429,8.84 10.032,9.373 10.538,10.066C11.042,10.76 11.295,11.651 11.295,12.74C11.295,14.499 10.746,15.867 9.648,16.845C8.551,17.823 6.85,18.312 4.544,18.312C2.744,18.312 1.229,17.977 0,17.309" style="fill:rgb(80,113,119);fill-rule:nonzero;"/>
                </g>
                <g transform="matrix(1,0,0,1,467.895,39.1251)">
                    <path d="M0,14.411C-1.273,12.777 -1.91,10.375 -1.91,7.205C-1.91,4.036 -1.29,1.634 -0.05,-0.001C1.19,-1.635 2.876,-2.452 5.005,-2.452C6.454,-2.452 7.771,-2.105 8.957,-1.412C9.527,-1.115 10.021,-0.78 10.438,-0.409L9.286,1.82L8.957,1.82C8.671,1.572 8.309,1.3 7.87,1.002C6.948,0.433 6.103,0.148 5.334,0.148C4.104,0.148 3.139,0.705 2.437,1.82C1.733,2.934 1.383,4.729 1.383,7.205C1.383,9.707 1.75,11.508 2.486,12.61C3.222,13.712 4.28,14.263 5.664,14.263C6.476,14.263 7.321,13.99 8.199,13.445C8.66,13.148 9.022,12.864 9.286,12.591L9.615,12.591L10.768,14.82C10.373,15.191 9.879,15.538 9.286,15.86C8.145,16.528 6.827,16.863 5.334,16.863C3.051,16.863 1.272,16.045 0,14.411" style="fill:rgb(80,113,119);fill-rule:nonzero;"/>
                </g>
                <g transform="matrix(1,0,0,1,480.902,54.5025)">
                    <path d="M0,-23.772L0.988,-24.886L3.293,-24.886L3.293,-15.972C3.644,-16.368 4.006,-16.678 4.38,-16.9C5.434,-17.519 6.498,-17.829 7.574,-17.829C9.221,-17.829 10.564,-17.241 11.607,-16.065C12.65,-14.889 13.172,-13.372 13.172,-11.515L13.172,1.114L9.879,1.114L9.879,-11.515C9.879,-12.555 9.588,-13.403 9.007,-14.059C8.425,-14.715 7.673,-15.043 6.751,-15.043C5.938,-15.043 5.115,-14.672 4.281,-13.929C3.93,-13.582 3.601,-13.21 3.293,-12.815L3.293,1.114L0,1.114L0,-23.772Z" style="fill:rgb(80,113,119);fill-rule:nonzero;"/>
                </g>
                <g transform="matrix(1,0,0,1,497.959,55.2439)">
                    <path d="M0,-18.199L2.305,-18.199L2.635,-15.97L2.799,-15.97C3.106,-16.366 3.501,-16.8 3.984,-17.271C5.017,-18.137 6.103,-18.571 7.244,-18.571C8.518,-18.571 9.626,-18.137 10.57,-17.271C11.01,-16.825 11.328,-16.391 11.525,-15.97C11.833,-16.342 12.283,-16.775 12.876,-17.271C14.104,-18.137 15.301,-18.571 16.465,-18.571C17.453,-18.571 18.347,-18.304 19.148,-17.772C19.95,-17.24 20.581,-16.491 21.042,-15.525C21.503,-14.559 21.733,-13.47 21.733,-12.256L21.733,0.372L18.44,0.372L18.44,-12.256C18.44,-13.271 18.166,-14.114 17.617,-14.782C17.068,-15.45 16.41,-15.785 15.642,-15.785C14.961,-15.785 14.236,-15.475 13.469,-14.856C13.227,-14.683 12.908,-14.373 12.514,-13.928L12.514,0.372L9.221,0.372L9.221,-12.256C9.221,-13.271 8.945,-14.114 8.397,-14.782C7.848,-15.45 7.189,-15.785 6.421,-15.785C5.719,-15.785 4.994,-15.413 4.248,-14.671C3.963,-14.398 3.644,-14.027 3.293,-13.556L3.293,0.372L0,0.372L0,-18.199Z" style="fill:rgb(80,113,119);fill-rule:nonzero;"/>
                </g>
                <g transform="matrix(1,0,0,1,531.317,40.5734)">
                    <path d="M0,11.514C0.373,11.168 0.702,10.796 0.988,10.4L0.988,6.686L-1.646,6.686C-2.897,6.686 -3.842,6.958 -4.479,7.503C-5.115,8.048 -5.434,8.765 -5.434,9.657C-5.434,10.623 -5.187,11.36 -4.692,11.867C-4.198,12.375 -3.457,12.629 -2.47,12.629C-1.657,12.629 -0.834,12.257 0,11.514M-7.294,13.873C-8.249,12.846 -8.727,11.44 -8.727,9.657C-8.727,7.899 -8.161,6.531 -7.03,5.553C-5.899,4.575 -4.105,4.086 -1.646,4.086L0.988,4.086L0.988,3.157C0.988,1.696 0.687,0.588 0.083,-0.167C-0.521,-0.923 -1.372,-1.3 -2.47,-1.3C-3.26,-1.3 -4.116,-1.015 -5.038,-0.446C-5.499,-0.149 -5.851,0.124 -6.092,0.371L-6.421,0.371L-7.573,-1.857C-7.135,-2.229 -6.641,-2.563 -6.092,-2.86C-4.906,-3.553 -3.589,-3.9 -2.141,-3.9C-0.889,-3.9 0.22,-3.596 1.186,-2.99C2.151,-2.383 2.909,-1.542 3.458,-0.465C4.007,0.613 4.281,1.82 4.281,3.157L4.281,15.043L1.976,15.043L1.646,12.814L1.482,12.814C1.175,13.31 0.791,13.743 0.329,14.114C-0.637,14.981 -1.844,15.414 -3.293,15.414C-5.005,15.414 -6.339,14.901 -7.294,13.873" style="fill:rgb(80,113,119);fill-rule:nonzero;"/>
                </g>
                <g transform="matrix(1,0,0,1,539.483,55.2439)">
                    <path d="M0,-18.199L2.305,-18.199L2.635,-15.97L2.799,-15.97C3.04,-16.366 3.425,-16.8 3.951,-17.271C5.027,-18.137 6.234,-18.571 7.574,-18.571C9.221,-18.571 10.564,-17.982 11.607,-16.806C12.65,-15.63 13.172,-14.114 13.172,-12.256L13.172,0.372L9.879,0.372L9.879,-12.256C9.879,-13.296 9.588,-14.144 9.007,-14.801C8.425,-15.456 7.673,-15.785 6.751,-15.785C5.938,-15.785 5.115,-15.413 4.281,-14.671C3.93,-14.324 3.601,-13.952 3.293,-13.556L3.293,0.372L0,0.372L0,-18.199Z" style="fill:rgb(80,113,119);fill-rule:nonzero;"/>
                </g>
                <g transform="matrix(1,0,0,1,556.541,55.2439)">
                    <path d="M0,-18.199L2.305,-18.199L2.635,-15.97L2.799,-15.97C3.04,-16.366 3.425,-16.8 3.951,-17.271C5.027,-18.137 6.234,-18.571 7.574,-18.571C9.221,-18.571 10.564,-17.982 11.607,-16.806C12.65,-15.63 13.172,-14.114 13.172,-12.256L13.172,0.372L9.879,0.372L9.879,-12.256C9.879,-13.296 9.588,-14.144 9.007,-14.801C8.425,-15.456 7.673,-15.785 6.751,-15.785C5.938,-15.785 5.115,-15.413 4.281,-14.671C3.93,-14.324 3.601,-13.952 3.293,-13.556L3.293,0.372L0,0.372L0,-18.199Z" style="fill:rgb(80,113,119);fill-rule:nonzero;"/>
                </g>
                <g transform="matrix(-1,0,0,1,512.456,-81.702)">
                    <rect x="255.478" y="108.104" width="1.5" height="34.494" style="fill:rgb(80,113,119);"/>
                </g>
                <g transform="matrix(-1,0,0,1,802.488,-81.702)">
                    <rect x="400.494" y="108.104" width="1.5" height="34.494" style="fill:rgb(80,113,119);"/>
                </g>
            </g>
        </g>
    </g>
</svg>
