<svg id="Ebene_1" data-name="Ebene 1" xmlns="http://www.w3.org/2000/svg" xmlns:xlink="http://www.w3.org/1999/xlink" viewBox="0 0 418.96 45.3"><defs><style>.cls-1{fill:#fff;}.cls-2{fill:url(#Unbenannter_Verlauf_42);}.cls-3{fill:url(#Unbenannter_Verlauf_43);}</style><linearGradient id="Unbenannter_Verlauf_42" x1="-0.23" y1="36.1" x2="44.37" y2="10.35" gradientUnits="userSpaceOnUse"><stop offset="0" stop-color="#2a7fc0"/><stop offset="0.73" stop-color="#5496cf"/><stop offset="1" stop-color="#5f9fd4"/></linearGradient><linearGradient id="Unbenannter_Verlauf_43" x1="150.29" y1="224.75" x2="514.5" y2="224.75" gradientUnits="userSpaceOnUse"><stop offset="0" stop-color="#2a7fc0"/><stop offset="0.73" stop-color="#5496cf"/><stop offset="1" stop-color="#5f9fd4"/></linearGradient></defs><rect class="cls-1" y="1.15" width="44.14" height="44.14" rx="12"/><rect class="cls-2" y="1.15" width="44.14" height="44.14" rx="12"/><path class="cls-1" d="M123.12,208.43H111.69a8.83,8.83,0,0,0-8.84,8.84v27.11h1.37a3,3,0,0,0,3-3V221.53a3.21,3.21,0,0,1,3.2-3.21h5.21a5,5,0,0,0,3.48-1.4l5.33-5.13a2,2,0,0,0-1.36-3.36Z" transform="translate(-95.54 -203.25)"/><path class="cls-1" d="M126.83,208.43c3.3-.6,5.86.72,4.28,4.88a10.71,10.71,0,0,1-2.34,3.6l-8.28,8.56a3,3,0,0,0,.06,4.17L132,240.79a2.09,2.09,0,0,1-1.46,3.59h-5.36a9.58,9.58,0,0,1-7-3.1l-4.25-4.63a7.76,7.76,0,0,1,.25-10.74l11.24-11.18a7.64,7.64,0,0,0,1.67-2.39A4,4,0,0,0,126.83,208.43Z" transform="translate(-95.54 -203.25)"/><path class="cls-1" d="M168.94,217.12a11.06,11.06,0,0,1-.66,2.89c-.63,2.1-.94,2.73-2,2.73a10.8,10.8,0,0,1-2-.34,11.07,11.07,0,0,0-2.79-.35c-2.12,0-3.27,1-3.27,3.65V242c0,3.67,0,3.67-3.9,3.67s-4,0-4-3.67V224.2c0-6,3.5-9.84,10.13-9.84a24.3,24.3,0,0,1,5.94.77C168,215.57,168.94,216,168.94,217.12Zm26.29,16H179.79v.57c0,3.65,2.87,5.6,6.66,5.6a15.84,15.84,0,0,0,5.94-1.12,8.11,8.11,0,0,1,2.35-.77c.81,0,1.21.6,2.1,2.61a6.29,6.29,0,0,1,.77,2.44c0,.57-.34,1-2,1.8a22.9,22.9,0,0,1-9.12,2c-8.36,0-13.52-5.11-14.15-12.23a57.72,57.72,0,0,1,0-7.46c.64-7.46,6-12.2,13.52-12.2,7.87,0,13.23,5.17,13.23,13.29v1.49C199.13,232.76,198.5,233.16,195.23,233.16ZM192,227.1c.11-3.76-2.21-6.25-6-6.25-4.31,0-6.26,2.75-6.23,7h11.57C192,227.82,192,227.82,192,227.1Zm18-15.49c-4.1,0-4.1,0-4.1-4.22s0-4.14,4.1-4.14,4.14,0,4.14,4.14S214.17,211.61,210,211.61Zm4,7.31v23c0,3.76,0,3.76-4,3.76s-3.87,0-3.87-3.76v-23c0-4,0-4,3.87-4S214,214.91,214,218.92Zm28.53-1.83c.95.77,1.26,1.23,1.26,1.81s-.25,1-1.49,2.61-1.55,2-2.27,2-1.12-.4-2.24-1a10.44,10.44,0,0,0-4.73-1.18c-2.81,0-4.13,1-4.13,2.59,0,1.23.91,2,3.44,2.55,1.29.32,3,.66,3.88.86,5.94,1.44,8.75,4.25,8.75,9.16,0,6.11-5.37,9.76-11.94,9.76a17.85,17.85,0,0,1-11.11-3.33c-.86-.63-1.46-1.18-1.46-1.9,0-.51.17-.89,1.41-2.49s1.66-2.07,2.38-2.07a4.76,4.76,0,0,1,2,1,12.43,12.43,0,0,0,6.86,1.95c2.92,0,4.27-1.21,4.27-2.79,0-1.2-.89-2.06-3.3-2.64-1.58-.37-2.55-.57-4.36-1-4.56-1.12-8.27-3.85-8.27-8.93,0-6.11,5.28-9.67,12-9.67C236.87,214.36,240.51,215.39,242.52,217.09Zm34,4.33a7.58,7.58,0,0,1,.6,2.58c0,.89-.72,1.12-2.7,1.81a13.11,13.11,0,0,1-3.16.95c-.71,0-.83-.69-1.4-1.67a5.92,5.92,0,0,0-5.63-3.24c-3.67,0-5.79,2.18-6.11,5.43a41.85,41.85,0,0,0,0,5.71c.34,3.53,2.44,5.77,6.11,5.77a5.91,5.91,0,0,0,5.66-3.33c.43-.78.69-1.67,1.43-1.67a9.8,9.8,0,0,1,3,.86c2.52.92,2.95,1.15,2.95,1.93a8.51,8.51,0,0,1-.8,2.72c-1.18,2.64-4.48,7-12.46,7-7.55,0-13.08-5.31-13.63-12.09a58.59,58.59,0,0,1,0-8.06c.43-6.89,6.17-11.74,13.83-11.74C271.62,214.36,275.49,218.58,276.53,221.42Zm21.69-7.06c7.32,0,11.65,4.36,11.65,12.57v14.93c0,3.84,0,3.84-4,3.84-3.84,0-3.84,0-3.84-3.84v-14.5c0-3.47-2-5.31-5.11-5.31a8.21,8.21,0,0,0-5.77,2.47v17.42c0,3.76,0,3.76-3.9,3.76s-3.94,0-3.94-3.76V208.68c0-4.08,0-4.08,3.91-4.08s3.93,0,3.93,4.08v7.89A11.81,11.81,0,0,1,298.22,214.36Zm27.26-5.71v17.79h.57c1.38,0,1.67-.08,2.87-1.32l8.78-9.1c1-1.14,1.44-1.55,2.16-1.55s1.09.29,2.84,1.9,2.41,2,2.41,2.7c0,.37-.09.77-1.32,2l-9.24,8.84,8.84,9.15c1.17,1.18,1.49,1.69,1.49,2.33s-.37,1-2.1,2.64c-1.92,1.8-2.18,2.09-2.92,2.09s-1.26-.6-2.07-1.52l-8.7-9.41c-1.17-1.27-1.4-1.3-2.95-1.3h-.66v8c0,3.76,0,3.76-3.93,3.76s-3.91,0-3.91-3.76V208.65c0-4.05,0-4.05,3.91-4.05S325.48,204.6,325.48,208.65Zm28.06,6.26c4,0,4,0,4,4.16v14.35c0,3.38,2.18,5.13,5.43,5.13a10.24,10.24,0,0,0,5.48-1.46V219c0-4.07,0-4.07,3.9-4.07s3.93,0,3.93,4.07v21.27c0,1.81,0,1.83-1.37,2.78-1.78,1.24-6,3.22-12.12,3.22-8.29,0-13.08-4.48-13.08-12.57V219.07C349.7,214.91,349.7,214.91,353.54,214.91Zm7.61-7.12c0,3.47,0,3.47-3.47,3.47s-3.48,0-3.48-3.47,0-3.53,3.48-3.53S361.15,204.26,361.15,207.79Zm10.47,0c0,3.47,0,3.47-3.47,3.47s-3.5,0-3.5-3.47,0-3.53,3.5-3.53S371.62,204.26,371.62,207.79Zm35.53,37.91c-3.9,0-3.9,0-3.9-3.76V227.36c0-3.7-2.47-5.31-5.43-5.31a11.16,11.16,0,0,0-5.51,1.41v18.48c0,3.76,0,3.76-3.9,3.76s-3.93,0-3.93-3.76V220.3a3,3,0,0,1,1.37-2.81c1.78-1.24,6.06-3.13,12.17-3.13,8.67,0,13.06,4.54,13.06,12.63v14.95C411.08,245.7,411.08,245.7,407.15,245.7ZM439,217.09c.95.77,1.27,1.23,1.27,1.81s-.26,1-1.5,2.61-1.55,2-2.26,2-1.12-.4-2.24-1a10.51,10.51,0,0,0-4.74-1.18c-2.81,0-4.13,1-4.13,2.59,0,1.23.92,2,3.44,2.55,1.3.32,3,.66,3.88.86,5.94,1.44,8.75,4.25,8.75,9.16,0,6.11-5.36,9.76-11.94,9.76a17.82,17.82,0,0,1-11.1-3.33c-.86-.63-1.47-1.18-1.47-1.9,0-.51.18-.89,1.41-2.49s1.66-2.07,2.38-2.07a4.71,4.71,0,0,1,2,1,12.45,12.45,0,0,0,6.86,1.95c2.93,0,4.28-1.21,4.28-2.79,0-1.2-.89-2.06-3.3-2.64-1.58-.37-2.56-.57-4.37-1-4.56-1.12-8.26-3.85-8.26-8.93,0-6.11,5.28-9.67,12-9.67C433.32,214.36,437,215.39,439,217.09Zm18.86,29.16c-7.15,0-10.42-4.91-10.42-11.37V211.4c0-4.1,0-4.1,3.87-4.1s4,0,4,4.1v3.51h6.89c3.7,0,3.7.14,3.7,3.64s0,3.5-3.7,3.5h-6.89v12.72c0,2.78,1.21,4.21,3.76,4.21a12.27,12.27,0,0,0,3.56-.6,8.93,8.93,0,0,1,2-.43c.92,0,1.21.75,1.9,2.64a7.43,7.43,0,0,1,.69,2.56c0,.63-.49,1.09-1.81,1.63A18.34,18.34,0,0,1,457.83,246.25Zm22.64-37.63v33.32c0,3.76,0,3.76-3.94,3.76s-3.9,0-3.9-3.76V208.62c0-4.08,0-4.08,3.9-4.08S480.47,204.54,480.47,208.62Zm30.13,24.54H495.16v.57c0,3.65,2.87,5.6,6.66,5.6a15.84,15.84,0,0,0,5.94-1.12,8.11,8.11,0,0,1,2.35-.77c.81,0,1.21.6,2.1,2.61a6.29,6.29,0,0,1,.77,2.44c0,.57-.34,1-2,1.8a22.91,22.91,0,0,1-9.13,2c-8.35,0-13.51-5.11-14.14-12.23a57.72,57.72,0,0,1,0-7.46c.64-7.46,6-12.2,13.52-12.2,7.87,0,13.23,5.17,13.23,13.29v1.49C514.5,232.76,513.87,233.16,510.6,233.16Zm-3.21-6.06c.11-3.76-2.21-6.25-6-6.25-4.31,0-6.26,2.75-6.23,7h11.57C507.39,227.82,507.39,227.82,507.39,227.1Z" transform="translate(-95.54 -203.25)"/><path class="cls-3" d="M168.94,217.12a11.06,11.06,0,0,1-.66,2.89c-.63,2.1-.94,2.73-2,2.73a10.8,10.8,0,0,1-2-.34,11.07,11.07,0,0,0-2.79-.35c-2.12,0-3.27,1-3.27,3.65V242c0,3.67,0,3.67-3.9,3.67s-4,0-4-3.67V224.2c0-6,3.5-9.84,10.13-9.84a24.3,24.3,0,0,1,5.94.77C168,215.57,168.94,216,168.94,217.12Zm26.29,16H179.79v.57c0,3.65,2.87,5.6,6.66,5.6a15.84,15.84,0,0,0,5.94-1.12,8.11,8.11,0,0,1,2.35-.77c.81,0,1.21.6,2.1,2.61a6.29,6.29,0,0,1,.77,2.44c0,.57-.34,1-2,1.8a22.9,22.9,0,0,1-9.12,2c-8.36,0-13.52-5.11-14.15-12.23a57.72,57.72,0,0,1,0-7.46c.64-7.46,6-12.2,13.52-12.2,7.87,0,13.23,5.17,13.23,13.29v1.49C199.13,232.76,198.5,233.16,195.23,233.16ZM192,227.1c.11-3.76-2.21-6.25-6-6.25-4.31,0-6.26,2.75-6.23,7h11.57C192,227.82,192,227.82,192,227.1Zm18-15.49c-4.1,0-4.1,0-4.1-4.22s0-4.14,4.1-4.14,4.14,0,4.14,4.14S214.17,211.61,210,211.61Zm4,7.31v23c0,3.76,0,3.76-4,3.76s-3.87,0-3.87-3.76v-23c0-4,0-4,3.87-4S214,214.91,214,218.92Zm28.53-1.83c.95.77,1.26,1.23,1.26,1.81s-.25,1-1.49,2.61-1.55,2-2.27,2-1.12-.4-2.24-1a10.44,10.44,0,0,0-4.73-1.18c-2.81,0-4.13,1-4.13,2.59,0,1.23.91,2,3.44,2.55,1.29.32,3,.66,3.88.86,5.94,1.44,8.75,4.25,8.75,9.16,0,6.11-5.37,9.76-11.94,9.76a17.85,17.85,0,0,1-11.11-3.33c-.86-.63-1.46-1.18-1.46-1.9,0-.51.17-.89,1.41-2.49s1.66-2.07,2.38-2.07a4.76,4.76,0,0,1,2,1,12.43,12.43,0,0,0,6.86,1.95c2.92,0,4.27-1.21,4.27-2.79,0-1.2-.89-2.06-3.3-2.64-1.58-.37-2.55-.57-4.36-1-4.56-1.12-8.27-3.85-8.27-8.93,0-6.11,5.28-9.67,12-9.67C236.87,214.36,240.51,215.39,242.52,217.09Zm34,4.33a7.58,7.58,0,0,1,.6,2.58c0,.89-.72,1.12-2.7,1.81a13.11,13.11,0,0,1-3.16.95c-.71,0-.83-.69-1.4-1.67a5.92,5.92,0,0,0-5.63-3.24c-3.67,0-5.79,2.18-6.11,5.43a41.85,41.85,0,0,0,0,5.71c.34,3.53,2.44,5.77,6.11,5.77a5.91,5.91,0,0,0,5.66-3.33c.43-.78.69-1.67,1.43-1.67a9.8,9.8,0,0,1,3,.86c2.52.92,2.95,1.15,2.95,1.93a8.51,8.51,0,0,1-.8,2.72c-1.18,2.64-4.48,7-12.46,7-7.55,0-13.08-5.31-13.63-12.09a58.59,58.59,0,0,1,0-8.06c.43-6.89,6.17-11.74,13.83-11.74C271.62,214.36,275.49,218.58,276.53,221.42Zm21.69-7.06c7.32,0,11.65,4.36,11.65,12.57v14.93c0,3.84,0,3.84-4,3.84-3.84,0-3.84,0-3.84-3.84v-14.5c0-3.47-2-5.31-5.11-5.31a8.21,8.21,0,0,0-5.77,2.47v17.42c0,3.76,0,3.76-3.9,3.76s-3.94,0-3.94-3.76V208.68c0-4.08,0-4.08,3.91-4.08s3.93,0,3.93,4.08v7.89A11.81,11.81,0,0,1,298.22,214.36Zm27.26-5.71v17.79h.57c1.38,0,1.67-.08,2.87-1.32l8.78-9.1c1-1.14,1.44-1.55,2.16-1.55s1.09.29,2.84,1.9,2.41,2,2.41,2.7c0,.37-.09.77-1.32,2l-9.24,8.84,8.84,9.15c1.17,1.18,1.49,1.69,1.49,2.33s-.37,1-2.1,2.64c-1.92,1.8-2.18,2.09-2.92,2.09s-1.26-.6-2.07-1.52l-8.7-9.41c-1.17-1.27-1.4-1.3-2.95-1.3h-.66v8c0,3.76,0,3.76-3.93,3.76s-3.91,0-3.91-3.76V208.65c0-4.05,0-4.05,3.91-4.05S325.48,204.6,325.48,208.65Zm28.06,6.26c4,0,4,0,4,4.16v14.35c0,3.38,2.18,5.13,5.43,5.13a10.24,10.24,0,0,0,5.48-1.46V219c0-4.07,0-4.07,3.9-4.07s3.93,0,3.93,4.07v21.27c0,1.81,0,1.83-1.37,2.78-1.78,1.24-6,3.22-12.12,3.22-8.29,0-13.08-4.48-13.08-12.57V219.07C349.7,214.91,349.7,214.91,353.54,214.91Zm7.61-7.12c0,3.47,0,3.47-3.47,3.47s-3.48,0-3.48-3.47,0-3.53,3.48-3.53S361.15,204.26,361.15,207.79Zm10.47,0c0,3.47,0,3.47-3.47,3.47s-3.5,0-3.5-3.47,0-3.53,3.5-3.53S371.62,204.26,371.62,207.79Zm35.53,37.91c-3.9,0-3.9,0-3.9-3.76V227.36c0-3.7-2.47-5.31-5.43-5.31a11.16,11.16,0,0,0-5.51,1.41v18.48c0,3.76,0,3.76-3.9,3.76s-3.93,0-3.93-3.76V220.3a3,3,0,0,1,1.37-2.81c1.78-1.24,6.06-3.13,12.17-3.13,8.67,0,13.06,4.54,13.06,12.63v14.95C411.08,245.7,411.08,245.7,407.15,245.7ZM439,217.09c.95.77,1.27,1.23,1.27,1.81s-.26,1-1.5,2.61-1.55,2-2.26,2-1.12-.4-2.24-1a10.51,10.51,0,0,0-4.74-1.18c-2.81,0-4.13,1-4.13,2.59,0,1.23.92,2,3.44,2.55,1.3.32,3,.66,3.88.86,5.94,1.44,8.75,4.25,8.75,9.16,0,6.11-5.36,9.76-11.94,9.76a17.82,17.82,0,0,1-11.1-3.33c-.86-.63-1.47-1.18-1.47-1.9,0-.51.18-.89,1.41-2.49s1.66-2.07,2.38-2.07a4.71,4.71,0,0,1,2,1,12.45,12.45,0,0,0,6.86,1.95c2.93,0,4.28-1.21,4.28-2.79,0-1.2-.89-2.06-3.3-2.64-1.58-.37-2.56-.57-4.37-1-4.56-1.12-8.26-3.85-8.26-8.93,0-6.11,5.28-9.67,12-9.67C433.32,214.36,437,215.39,439,217.09Zm18.86,29.16c-7.15,0-10.42-4.91-10.42-11.37V211.4c0-4.1,0-4.1,3.87-4.1s4,0,4,4.1v3.51h6.89c3.7,0,3.7.14,3.7,3.64s0,3.5-3.7,3.5h-6.89v12.72c0,2.78,1.21,4.21,3.76,4.21a12.27,12.27,0,0,0,3.56-.6,8.93,8.93,0,0,1,2-.43c.92,0,1.21.75,1.9,2.64a7.43,7.43,0,0,1,.69,2.56c0,.63-.49,1.09-1.81,1.63A18.34,18.34,0,0,1,457.83,246.25Zm22.64-37.63v33.32c0,3.76,0,3.76-3.94,3.76s-3.9,0-3.9-3.76V208.62c0-4.08,0-4.08,3.9-4.08S480.47,204.54,480.47,208.62Zm30.13,24.54H495.16v.57c0,3.65,2.87,5.6,6.66,5.6a15.84,15.84,0,0,0,5.94-1.12,8.11,8.11,0,0,1,2.35-.77c.81,0,1.21.6,2.1,2.61a6.29,6.29,0,0,1,.77,2.44c0,.57-.34,1-2,1.8a22.91,22.91,0,0,1-9.13,2c-8.35,0-13.51-5.11-14.14-12.23a57.72,57.72,0,0,1,0-7.46c.64-7.46,6-12.2,13.52-12.2,7.87,0,13.23,5.17,13.23,13.29v1.49C514.5,232.76,513.87,233.16,510.6,233.16Zm-3.21-6.06c.11-3.76-2.21-6.25-6-6.25-4.31,0-6.26,2.75-6.23,7h11.57C507.39,227.82,507.39,227.82,507.39,227.1Z" transform="translate(-95.54 -203.25)"/></svg>