<svg id="Ebene_1" data-name="Ebene 1" xmlns="http://www.w3.org/2000/svg" viewBox="0 0 690 75.67"><defs><style>.cls-1{fill:#fff;}</style></defs><g id="Gruppe_1524" data-name="Gruppe 1524"><g id="Gruppe_1523" data-name="Gruppe 1523"><path id="Pfad_3686" data-name="Pfad 3686" class="cls-1" d="M54.72,2.94H21.78A19.68,19.68,0,0,0,2.16,22.56V55.49A19.68,19.68,0,0,0,21.78,75.11H54.72A19.67,19.67,0,0,0,74.33,55.49V22.56A19.67,19.67,0,0,0,54.72,2.94Zm-33.39,28V63.32a5,5,0,0,1-5,5H14.11V24A14.45,14.45,0,0,1,28.57,9.51h18.7A3.2,3.2,0,0,1,49.48,15l-8.73,8.38a8.23,8.23,0,0,1-5.7,2.3h-8.5a5.24,5.24,0,0,0-5.24,5.24h0ZM59.39,68.29H50.62a15.65,15.65,0,0,1-11.53-5.07l-6.94-7.56a12.69,12.69,0,0,1,.4-17.57L50.92,19.82a12.49,12.49,0,0,0,2.73-3.9,6.54,6.54,0,0,0-.33-6.41c5.39-1,9.59,1.19,7,8a17.36,17.36,0,0,1-3.82,5.88L43,37.38a4.84,4.84,0,0,0,.1,6.82l18.7,18.23a3.42,3.42,0,0,1-2.4,5.86Z"/></g><path id="Pfad_3687" data-name="Pfad 3687" class="cls-1" d="M122.17,23.72a19.29,19.29,0,0,1-1.08,4.74c-1,3.42-1.55,4.45-3.34,4.45a17.93,17.93,0,0,1-3.34-.56,18.9,18.9,0,0,0-4.55-.56c-3.47,0-5.34,1.69-5.34,6V64.46c0,6,0,6-6.38,6s-6.48,0-6.48-6V35.32c0-9.85,5.73-16.09,16.56-16.09a38.93,38.93,0,0,1,9.72,1.27C120.57,21.19,122.17,21.94,122.17,23.72Zm43,26.23H139.89v.94c0,6,4.7,9.15,10.89,9.15a25.9,25.9,0,0,0,9.72-1.83,13.34,13.34,0,0,1,3.84-1.27c1.32,0,2,1,3.43,4.27a10.43,10.43,0,0,1,1.27,4c0,.94-.57,1.69-3.24,3a37.61,37.61,0,0,1-14.92,3.19c-13.66,0-22.11-8.35-23.14-20a95.51,95.51,0,0,1,.05-12.2,20.89,20.89,0,0,1,21.8-19.95h.3a20.43,20.43,0,0,1,21.64,19.12,20.66,20.66,0,0,1,0,2.61v2.44c0,5.9-1,6.56-6.38,6.56Zm-5.26-9.9a9.2,9.2,0,0,0-8.11-10.19,8.68,8.68,0,0,0-1.69,0c-7,0-10.23,4.5-10.19,11.4h18.93c1.07,0,1.07,0,1.07-1.18Zm29.46-25.34c-6.71,0-6.71,0-6.71-6.9,0-6.75,0-6.75,6.71-6.75s6.76,0,6.76,6.75C196.1,14.71,196.1,14.71,189.34,14.71Zm6.48,12V64.31c0,6.14,0,6.14-6.48,6.14s-6.34,0-6.34-6.14V26.69c0-6.57,0-6.57,6.34-6.57s6.48,0,6.48,6.57Zm46.64-3c1.55,1.27,2.06,2,2.06,2.95s-.42,1.65-2.44,4.27c-1.88,2.45-2.54,3.2-3.71,3.2s-1.83-.67-3.67-1.55A17.25,17.25,0,0,0,227,30.61c-4.6,0-6.76,1.69-6.76,4.23,0,2,1.5,3.19,5.63,4.17,2.11.52,4.93,1.08,6.35,1.41,9.71,2.34,14.31,6.95,14.31,15,0,10-8.77,16-19.52,16a29.13,29.13,0,0,1-18.16-5.44c-1.41-1-2.39-1.92-2.39-3.1,0-.84.28-1.45,2.29-4.08s2.73-3.37,3.9-3.37a7.67,7.67,0,0,1,3.28,1.59,20.27,20.27,0,0,0,11.22,3.19c4.79,0,7-2,7-4.55,0-2-1.46-3.38-5.4-4.32-2.58-.61-4.17-.94-7.13-1.64-7.46-1.83-13.51-6.28-13.51-14.59,0-10,8.63-15.81,19.56-15.81a24.65,24.65,0,0,1,14.84,4.46Zm55.59,7.08A12.33,12.33,0,0,1,299,35c0,1.45-1.17,1.83-4.41,3a22.21,22.21,0,0,1-5.16,1.54c-1.18,0-1.36-1.12-2.3-2.72a9.66,9.66,0,0,0-9.2-5.3,9.24,9.24,0,0,0-10,8.45c0,.14,0,.28,0,.42a69.46,69.46,0,0,0,0,9.35,9.42,9.42,0,0,0,9.39,9.45l.6,0a9.63,9.63,0,0,0,9.25-5.44c.7-1.27,1.12-2.73,2.34-2.73a15.85,15.85,0,0,1,4.87,1.41c4.13,1.51,4.84,1.88,4.84,3.15A13.93,13.93,0,0,1,298,60c-1.92,4.32-7.31,11.4-20.36,11.4A21.57,21.57,0,0,1,255.3,51.6a93.65,93.65,0,0,1,0-13.19c.7-11.26,10.09-19.19,22.61-19.19,12.12,0,18.46,6.89,20.13,11.54Zm35.47-11.54c12,0,19.05,7.13,19.05,20.55v24.4c0,6.29,0,6.29-6.52,6.29-6.29,0-6.29,0-6.29-6.29V40.46a7.79,7.79,0,0,0-6.83-8.65,7.71,7.71,0,0,0-1.52,0,13.42,13.42,0,0,0-9.43,4V64.29c0,6.15,0,6.15-6.38,6.15s-6.43,0-6.43-6.15V9.92c0-6.67,0-6.67,6.38-6.67s6.43,0,6.43,6.67V22.83a19.23,19.23,0,0,1,11.54-3.61Zm44.57-9.35V39H379c2.25,0,2.72-.14,4.69-2.15l14.36-14.88c1.69-1.87,2.34-2.53,3.52-2.53s1.78.47,4.65,3.1,3.94,3.28,3.94,4.41c0,.61-.14,1.26-2.16,3.28L392.91,44.64l14.45,15c1.93,1.92,2.44,2.76,2.44,3.8,0,.84-.61,1.68-3.42,4.31-3.15,3-3.57,3.43-4.79,3.43s-2.06-1-3.38-2.49L384,53.27a4.75,4.75,0,0,0-4.84-2.11h-1.08V64.3c0,6.14,0,6.14-6.43,6.14s-6.38,0-6.38-6.14V9.87c0-6.61,0-6.61,6.38-6.61s6.44,0,6.44,6.62ZM424,20.09c6.52,0,6.52,0,6.52,6.81V50.36a7.93,7.93,0,0,0,7.37,8.44,8.36,8.36,0,0,0,1.5,0,16.73,16.73,0,0,0,9-2.4V26.76c0-6.68,0-6.68,6.38-6.68s6.43,0,6.43,6.68V61.53c0,3-.05,3-2.25,4.55a35.78,35.78,0,0,1-19.8,5.25c-13.56,0-21.4-7.31-21.4-20.55V26.9c0-6.79,0-6.79,6.29-6.79ZM436.4,8.46c0,5.67,0,5.67-5.67,5.67s-5.68,0-5.68-5.67,0-5.77,5.68-5.77,5.67,0,5.67,5.78Zm17.13,0c0,5.67,0,5.67-5.68,5.67s-5.72,0-5.72-5.67,0-5.77,5.72-5.77,5.68,0,5.68,5.78Zm58.09,62c-6.38,0-6.38,0-6.38-6.14V40.46a8.11,8.11,0,0,0-7.45-8.7,8.42,8.42,0,0,0-1.42,0,18.2,18.2,0,0,0-9,2.3V64.3c0,6.14,0,6.14-6.38,6.14s-6.43,0-6.43-6.14V28.9a4.86,4.86,0,0,1,2.25-4.59,36.6,36.6,0,0,1,19.9-5.12c14.17,0,21.35,7.42,21.35,20.65V64.28c0,6.17,0,6.17-6.44,6.17Zm52-46.76c1.55,1.27,2.06,2,2.06,3s-.42,1.64-2.44,4.27c-1.87,2.44-2.53,3.19-3.71,3.19s-1.83-.67-3.67-1.55a17.11,17.11,0,0,0-7.74-1.92c-4.6,0-6.76,1.69-6.76,4.22,0,2,1.51,3.19,5.63,4.18,2.12.52,4.93,1.08,6.35,1.41,9.71,2.33,14.31,6.94,14.31,15,0,10-8.77,16-19.52,16A29.14,29.14,0,0,1,530,65.91c-1.41-1-2.4-1.92-2.4-3.09,0-.85.29-1.46,2.3-4.08s2.72-3.38,3.89-3.38A7.77,7.77,0,0,1,537.07,57a20.31,20.31,0,0,0,11.21,3.2c4.79,0,7-2,7-4.56,0-2-1.46-3.38-5.4-4.32-2.58-.6-4.18-.93-7.13-1.63-7.46-1.83-13.52-6.29-13.52-14.6,0-10,8.64-15.81,19.57-15.81A24.66,24.66,0,0,1,563.64,23.68Zm30.82,47.67c-11.69,0-17-8-17-18.58V14.38c0-6.71,0-6.71,6.34-6.71s6.48,0,6.48,6.71V20.1h11.26c6,0,6,.24,6,6s0,5.72-6,5.72H590.25V52.57c0,4.55,2,6.9,6.14,6.9a20.53,20.53,0,0,0,5.82-1,15,15,0,0,1,3.24-.7c1.5,0,2,1.22,3.09,4.32a11.86,11.86,0,0,1,1.13,4.17c0,1-.8,1.79-3,2.67a30,30,0,0,1-12.25,2.4Zm37-61.51V64.32c0,6.14,0,6.14-6.43,6.14s-6.38,0-6.38-6.14V9.83c0-6.68,0-6.68,6.38-6.68s6.43,0,6.43,6.68ZM680.74,50H655.49v.94c0,6,4.69,9.15,10.89,9.15a25.81,25.81,0,0,0,9.71-1.83A13.4,13.4,0,0,1,679.94,57c1.32,0,2,1,3.43,4.27a10.25,10.25,0,0,1,1.26,4c0,.94-.56,1.69-3.23,3a37.65,37.65,0,0,1-14.92,3.19c-13.66,0-22.1-8.35-23.14-20a95.51,95.51,0,0,1,0-12.2,20.9,20.9,0,0,1,21.81-20h.29A20.39,20.39,0,0,1,687.12,41V43.4c0,5.89-1,6.55-6.38,6.55Zm-5.26-9.9a9.21,9.21,0,0,0-8.12-10.19,8.66,8.66,0,0,0-1.69,0c-7,0-10.23,4.5-10.18,11.4H674.4c1.08,0,1.08,0,1.08-1.19Z"/></g></svg>