<?xml version="1.0" encoding="UTF-8"?>
<svg version="1.1" xmlns="http://www.w3.org/2000/svg" width="324" height="54">
<path d="M0 0 C0.99 0.495 0.99 0.495 2 1 C0.50880341 3.60959403 -0.93998311 5.932239 -2.9375 8.1875 C-7.79535811 14.81185197 -9.56376529 22.69289289 -11.19140625 30.62890625 C-11.45824219 31.41136719 -11.72507813 32.19382813 -12 33 C-12.99 33.33 -13.98 33.66 -15 34 C-18.87501321 24.89273546 -20.496907 15.71316919 -22 6 C-22.56459762 7.24905395 -23.12647564 8.49933701 -23.6875 9.75 C-24.05488281 10.5646875 -24.42226562 11.379375 -24.80078125 12.21875 C-25.6367428 14.15752728 -26.42226217 16.11850046 -27.16796875 18.09375 C-29.55090668 24.32486277 -31.22825025 28.46627566 -37 32 C-44.23485956 34.84733269 -53.02095365 35.63982914 -60.3125 32.5 C-61.199375 32.005 -62.08625 31.51 -63 31 C-62.68838763 28.09161791 -62.07847158 27.07477009 -59.9296875 25.02734375 C-56.55655653 22.69313712 -53.20482625 21.45911598 -49.3125 20.3125 C-48.60931641 20.09827393 -47.90613281 19.88404785 -47.18164062 19.66333008 C-41.82788769 18.09486694 -36.59263969 17.1478823 -31 17 C-33.34202748 19.73189111 -35.25319188 20.60024973 -38.7109375 21.5 C-39.62617187 21.7475 -40.54140625 21.995 -41.484375 22.25 C-42.43828125 22.4975 -43.3921875 22.745 -44.375 23 C-52.59481666 25.0258776 -52.59481666 25.0258776 -60 29 C-53.12520148 31.29159951 -42.63688725 31.22245559 -36 28 C-30.90500568 23.13784144 -28.79962005 14.85041699 -26.33203125 8.390625 C-25.32717515 5.83280946 -24.289568 3.42023189 -23 1 C-20.525 1.495 -20.525 1.495 -18 2 C-16.20018517 6.78193479 -15.46461692 11.27509567 -14.9375 16.3125 C-14.82813265 21.03893777 -14.82813265 21.03893777 -13 25 C-12.70867187 23.9378125 -12.41734375 22.875625 -12.1171875 21.78125 C-7.76785556 6.56488117 -7.76785556 6.56488117 -2 1 C-1.34 0.67 -0.68 0.34 0 0 Z " fill="#C88E7C" transform="translate(114,7)"/>
<path d="M0 0 C0.99 0.66 1.98 1.32 3 2 C3.95046938 7.97875899 3.04872917 14.04727096 1.4375 19.83203125 C0.88274475 22.58104165 0.93617319 25.20358793 1 28 C8.96596542 18.36102624 8.96596542 18.36102624 14.28125 7.12109375 C15.01291808 4.96187763 15.93979044 3.01531214 17 1 C17.99 1 18.98 1 20 1 C18.8433255 8.96820212 15.89773292 13.7090957 11 20 C10.054112 21.24826203 9.10883753 22.49698913 8.1640625 23.74609375 C7.17342138 25.04024768 6.1812378 26.33322238 5.1875 27.625 C4.70740479 28.25365967 4.22730957 28.88231934 3.73266602 29.5300293 C2.53600086 31.05847681 1.27318242 32.53467894 0 34 C-0.66 34 -1.32 34 -2 34 C-5.21339089 29.17991367 -4.38778437 23.96357868 -3.32421875 18.578125 C-2.7882203 16.16994241 -2.23321928 13.76588385 -1.65625 11.3671875 C-1.02830532 8.14523327 -0.88067453 5.27150675 -1 2 C-7.64375317 2.8737816 -12.77832836 4.54545081 -17 10 C-18.40302902 13.48188593 -18.40302902 13.48188593 -18 17 C-16.1687189 19.81099414 -16.1687189 19.81099414 -14 22 C-14 22.66 -14 23.32 -14 24 C-16.97454134 23.67842796 -18.59335278 23.37860258 -20.8125 21.3125 C-22.39534065 18.2301261 -22.48082023 16.43443019 -22 13 C-17.13409796 3.82964615 -10.21626973 -0.64865205 0 0 Z " fill="#C88E7C" transform="translate(215,7)"/>
<path d="M0 0 C-0.29132812 0.53496094 -0.58265625 1.06992188 -0.8828125 1.62109375 C-2.17918509 4.38155146 -3.01463416 7.13654511 -3.875 10.0625 C-5.1982294 14.41445447 -6.53028443 18.75750635 -8 23.0625 C-8.433125 24.34833984 -8.433125 24.34833984 -8.875 25.66015625 C-10.19540435 28.40641391 -11.68538492 30.03170044 -14 32 C-16.70716242 32.90238747 -18.23776768 33.11851302 -21.01171875 33.09765625 C-22.14770508 33.09282227 -22.14770508 33.09282227 -23.30664062 33.08789062 C-24.48516602 33.07532227 -24.48516602 33.07532227 -25.6875 33.0625 C-26.48478516 33.05798828 -27.28207031 33.05347656 -28.10351562 33.04882812 C-30.06904257 33.0370585 -32.03453085 33.01912348 -34 33 C-33 31.51953125 -33 31.51953125 -31 30 C-27.56806758 29.72006483 -24.24228692 29.65986906 -20.8046875 29.73632812 C-18.40880183 29.75400469 -18.40880183 29.75400469 -15 29 C-11.34489327 23.98945785 -10.50065028 17.50894052 -9.0625 11.55859375 C-8.07858882 8.26321475 -6.91434086 5.83344201 -5 3 C-11.11980026 4.34635606 -15.6452928 6.49793547 -19.2265625 11.82421875 C-21.78609407 16.51055533 -22.62134443 20.69882197 -23 26 C-23.66 26 -24.32 26 -25 26 C-26.85987691 22.28024618 -25.78750337 17.96804025 -25 14 C-21.23227967 6.73368222 -15.86743105 3.58865822 -8.44921875 0.75 C-5.54541037 -0.13920448 -3.01781467 -0.3176647 0 0 Z " fill="#C88E7C" transform="translate(35,8)"/>
<path d="M0 0 C0.99 0.33 1.98 0.66 3 1 C3 1.66 3 2.32 3 3 C2.34 3 1.68 3 1 3 C1.33 3.556875 1.66 4.11375 2 4.6875 C3.1309601 7.30284522 3.15662974 9.1806646 3 12 C6.89091235 9.40605843 6.98336169 7.45756796 8 3 C8 2.01 8 1.02 8 0 C8.66 0 9.32 0 10 0 C11.98384711 3.96769422 11.32630565 8.85529486 10 13 C13.65316671 11.75023244 14.78065836 11.32901247 17 8 C17.39013716 6.0103005 17.73202649 4.00980131 18 2 C18.99 2 19.98 2 21 2 C21.125 9.625 21.125 9.625 20 13 C21.65 12.67 23.3 12.34 25 12 C24.3125 13.9375 24.3125 13.9375 23 16 C20.375 16.75 20.375 16.75 18 17 C17.67 16.01 17.34 15.02 17 14 C16.2575 14.515625 15.515 15.03125 14.75 15.5625 C12 17 12 17 9.75 16.875 C8 16 8 16 7 13 C6.44828125 13.49113281 5.8965625 13.98226562 5.328125 14.48828125 C2.53629931 16.30109424 1.03814259 16.3172951 -2.25 16.1875 C-3.14203125 16.16042969 -4.0340625 16.13335937 -4.953125 16.10546875 C-5.62859375 16.07066406 -6.3040625 16.03585938 -7 16 C-7 15.01 -7 14.02 -7 13 C-5.02 12.67 -3.04 12.34 -1 12 C-1.33 10.68 -1.66 9.36 -2 8 C-3.32 8.33 -4.64 8.66 -6 9 C-4.68775452 5.06326356 -3.08089673 2.77280706 0 0 Z " fill="#C88E7C" transform="translate(248,24)"/>
<path d="M0 0 C0.99 0 1.98 0 3 0 C2.68950274 1.43793392 2.3765224 2.8753318 2.0625 4.3125 C1.88847656 5.11300781 1.71445312 5.91351563 1.53515625 6.73828125 C1 9 1 9 0 12 C2.31 11.34 4.62 10.68 7 10 C7.04125 9.278125 7.0825 8.55625 7.125 7.8125 C8.11866852 4.61856546 9.53066601 2.98198719 12.17578125 0.9453125 C15.54150909 -0.79881199 18.27641398 -0.43441837 22 0 C24 2 24 2 24.4375 5.3125 C23.89444451 9.88968196 22.51844617 11.15173405 19 14 C16.19084526 15.40457737 14.11189466 15.24895157 11 15 C8.625 13.5 8.625 13.5 7 12 C6.443125 12.515625 5.88625 13.03125 5.3125 13.5625 C3 15 3 15 0.3125 14.75 C-2 14 -2 14 -3 13 C-2.94921875 11.07421875 -2.94921875 11.07421875 -2.6875 8.6875 C-2.60886719 7.90761719 -2.53023438 7.12773438 -2.44921875 6.32421875 C-1.98413721 3.91792729 -1.19341444 2.12866168 0 0 Z M12.125 3.6875 C10.71135089 6.59333428 11.01829848 7.97308697 12 11 C13.11258591 12.32745166 13.11258591 12.32745166 15.9375 12.25 C16.948125 12.1675 17.95875 12.085 19 12 C21.35014158 9.162422 21.35014158 9.162422 20.6875 5.875 C20.29355679 3.11913578 20.29355679 3.11913578 19 2 C15.83652139 1.58375281 14.5424252 1.51181732 12.125 3.6875 Z " fill="#C88E7C" transform="translate(295,26)"/>
<path d="M0 0 C0.3125 2.6875 0.3125 2.6875 0 6 C-2.5 8.875 -2.5 8.875 -5 11 C-5.66 10.67 -6.32 10.34 -7 10 C-6.505 9.608125 -6.01 9.21625 -5.5 8.8125 C-3.54406857 6.44908285 -3.75792027 4.98564997 -4 2 C-7.63294859 5.82359895 -8.36783404 10.46663438 -9.5625 15.4375 C-12.09092031 25.7155677 -12.09092031 25.7155677 -14 30 C-11.03 30 -8.06 30 -5 30 C-6 33 -6 33 -8.125 34.1875 C-11.51418301 35.14531259 -14.49471861 35.13746202 -18 35 C-19.474158 32.05168401 -18.38265848 30.47489594 -17.375 27.375 C-17.00246094 26.21871094 -16.62992188 25.06242187 -16.24609375 23.87109375 C-16.0435498 23.24831543 -15.84100586 22.62553711 -15.63232422 21.98388672 C-14.96940727 19.90401678 -14.34259532 17.81571785 -13.72265625 15.72265625 C-13.40192139 14.65362061 -13.40192139 14.65362061 -13.07470703 13.56298828 C-12.65741982 12.17107162 -12.24542734 10.77755404 -11.83935547 9.38232422 C-10.73251415 5.74660101 -9.65693397 2.76510431 -7 0 C-3.86650268 -1.04449911 -3.01031744 -0.93423645 0 0 Z " fill="#C88E7C" transform="translate(47,6)"/>
<path d="M0 0 C0.99 0.33 1.98 0.66 3 1 C4.11658501 5.68965706 3.80619523 8.53763531 2 13 C3.98 12.67 5.96 12.34 8 12 C8.99 8.7 9.98 5.4 11 2 C11.66 2 12.32 2 13 2 C13.0270043 3.45823212 13.04639787 4.91660675 13.0625 6.375 C13.07410156 7.18710937 13.08570312 7.99921875 13.09765625 8.8359375 C13 11 13 11 12 13 C13.65 12.67 15.3 12.34 17 12 C16.3125 13.9375 16.3125 13.9375 15 16 C12.375 16.75 12.375 16.75 10 17 C9.34 16.01 8.68 15.02 8 14 C7.4225 14.515625 6.845 15.03125 6.25 15.5625 C4 17 4 17 1.8125 16.75 C0 16 0 16 -1 15 C-1.20877927 9.88490796 -0.70869772 5.04947127 0 0 Z " fill="#C88E7C" transform="translate(108,24)"/>
<path d="M0 0 C2 1.0625 2 1.0625 3 3 C3.08541348 7.6123281 2.46895665 9.47521518 -0.625 12.9375 C-4.51985541 15.31768942 -6.51600192 15.59222616 -11 15 C-11.99 14.34 -12.98 13.68 -14 13 C-14.5 9.6875 -14.5 9.6875 -14 6 C-9.60041249 0.67418355 -6.85476092 -0.48103585 0 0 Z M-8.6875 3.25 C-10.19016309 5.25355078 -10.8432375 6.49179998 -11 9 C-10.02478463 10.89350331 -10.02478463 10.89350331 -8 12 C-4.87450983 12.25048636 -4.87450983 12.25048636 -2 12 C-0.61874982 9.23749964 -0.80920694 7.05268901 -1 4 C-1.66 3.34 -2.32 2.68 -3 2 C-6.8143014 1.60318163 -6.8143014 1.60318163 -8.6875 3.25 Z " fill="#C88E7C" transform="translate(140,26)"/>
<path d="M0 0 C2 2 2 2 2.4375 4.75 C1.83204968 9.24763096 0.14884825 10.77617917 -3 14 C-6.04983996 15.52491998 -8.6423369 15.23562548 -12 15 C-14 13.9375 -14 13.9375 -15 12 C-15.08467072 7.4277809 -14.4612152 5.52871011 -11.4375 2.0625 C-7.65961527 -0.71831588 -4.56290274 -0.53233865 0 0 Z M-9.8125 3.125 C-11.49106106 5.77535957 -11.20450238 7.93246424 -11 11 C-8.29120665 12.35439668 -5.99066732 12.06501451 -3 12 C-1.17339803 7.87851657 -1.17339803 7.87851657 -1.875 3.625 C-2.24625 3.08875 -2.6175 2.5525 -3 2 C-5.74086056 1.77776806 -7.43963721 1.65218861 -9.8125 3.125 Z " fill="#C88E7C" transform="translate(177,26)"/>
<path d="M0 0 C1.23556641 0.01740234 1.23556641 0.01740234 2.49609375 0.03515625 C3.32238281 0.04417969 4.14867187 0.05320312 5 0.0625 C5.63808594 0.07410156 6.27617187 0.08570312 6.93359375 0.09765625 C6.60359375 1.08765625 6.27359375 2.07765625 5.93359375 3.09765625 C3.62359375 3.09765625 1.31359375 3.09765625 -1.06640625 3.09765625 C1.40859375 4.08765625 1.40859375 4.08765625 3.93359375 5.09765625 C3.93359375 5.75765625 3.93359375 6.41765625 3.93359375 7.09765625 C0.46859375 8.58265625 0.46859375 8.58265625 -3.06640625 10.09765625 C-1.62901112 10.12477691 -0.19146762 10.14410692 1.24609375 10.16015625 C2.04660156 10.17175781 2.84710938 10.18335938 3.671875 10.1953125 C6.10220709 10.1942348 6.10220709 10.1942348 8.93359375 9.09765625 C7.05859375 12.97265625 7.05859375 12.97265625 5.93359375 14.09765625 C3.74719922 14.17024571 1.55858986 14.18139408 -0.62890625 14.16015625 C-2.42521484 14.14662109 -2.42521484 14.14662109 -4.2578125 14.1328125 C-5.18464844 14.12121094 -6.11148438 14.10960937 -7.06640625 14.09765625 C-7.19140625 11.72265625 -7.19140625 11.72265625 -7.06640625 9.09765625 C-6.40640625 8.43765625 -5.74640625 7.77765625 -5.06640625 7.09765625 C-4.37540072 5.10593443 -3.70737922 3.10603821 -3.06640625 1.09765625 C-2.06640625 0.09765625 -2.06640625 0.09765625 0 0 Z " fill="#C88E7C" transform="translate(232.06640625,25.90234375)"/>
<path d="M0 0 C1.32 0 2.64 0 4 0 C3.67 0.9075 3.34 1.815 3 2.75 C1.80394277 6.07045807 1.80394277 6.07045807 2 10 C4.91634129 10.2502157 4.91634129 10.2502157 8 10 C10.36980013 7.04622502 10.36980013 7.04622502 10 3 C8.68 2.34 7.36 1.68 6 1 C7 0 7 0 9.28515625 -0.09765625 C10.65994141 -0.08025391 10.65994141 -0.08025391 12.0625 -0.0625 C12.98160156 -0.05347656 13.90070313 -0.04445313 14.84765625 -0.03515625 C15.55792969 -0.02355469 16.26820313 -0.01195313 17 0 C17 0.66 17 1.32 17 2 C16.01 2 15.02 2 14 2 C13.938125 2.86625 13.87625 3.7325 13.8125 4.625 C12.7788377 8.91867418 11.18003592 10.96129901 8 14 C4.6875 14.875 4.6875 14.875 2 15 C-1.15224178 11.57365024 -1.75336704 8.60381523 -2 4 C-1.0625 1.5625 -1.0625 1.5625 0 0 Z " fill="#C88E7C" transform="translate(146,26)"/>
<path d="M0 0 C1.65 0 3.3 0 5 0 C4.5359375 1.051875 4.5359375 1.051875 4.0625 2.125 C2.96697322 5.08936657 2.43577008 7.87698108 2 11 C5.465 10.505 5.465 10.505 9 10 C9.33 7.69 9.66 5.38 10 3 C9.01 2.67 8.02 2.34 7 2 C7 1.34 7 0.68 7 0 C10.63 0 14.26 0 18 0 C18 0.66 18 1.32 18 2 C16.68 2 15.36 2 14 2 C13.979375 3.03125 13.95875 4.0625 13.9375 5.125 C12.83033779 9.70127048 11.35613544 11.08111693 7.88671875 14.03125 C6 15 6 15 3.87890625 14.75390625 C1.14430405 13.65665422 0.34959344 12.63170722 -1 10 C-1.38469375 6.53088671 -1.59385143 3.18770285 0 0 Z " fill="#C88E7C" transform="translate(275,26)"/>
<path d="M0 0 C0.99 0 1.98 0 3 0 C2.67 1.65 2.34 3.3 2 5 C1.01 5.33 0.02 5.66 -1 6 C-1.042721 4.33388095 -1.04063832 2.66617115 -1 1 C-0.67 0.67 -0.34 0.34 0 0 Z " fill="#C88E7C" transform="translate(298,18)"/>
</svg>
